<svg xmlns="http://www.w3.org/2000/svg" width="600" height="400" viewBox="0 0 600 400"><rect width="100%" height="100%" fill="#0000FF"/><path fill="#FFFFFF" d="M143.19 204.73q.47 0 .84.36l2.28 2.48q-1.89 2.34-4.66 3.59-2.76 1.24-6.63 1.24-3.46 0-6.22-1.18-2.77-1.18-4.72-3.29-1.96-2.11-3-5.03-1.05-2.92-1.05-6.38 0-3.51 1.12-6.42 1.12-2.92 3.15-5.02 2.03-2.11 4.85-3.28t6.23-1.17q3.4 0 6.04 1.11 2.63 1.12 4.48 2.93l-1.94 2.69q-.17.25-.44.45-.27.19-.74.19-.32 0-.67-.18-.34-.18-.75-.45t-.94-.59q-.54-.33-1.25-.6-.71-.26-1.65-.45-.93-.18-2.16-.18-2.08 0-3.81.74t-2.98 2.15-1.94 3.44q-.68 2.03-.68 4.64 0 2.62.74 4.66t2.01 3.44 2.99 2.14 3.69.74q1.19 0 2.14-.13.96-.13 1.77-.41.8-.28 1.52-.72t1.43-1.08q.22-.2.45-.31.24-.12.5-.12m16.02-15.07q2.45 0 4.46.79 2.01.8 3.44 2.26t2.2 3.57q.78 2.11.78 4.71 0 2.62-.78 4.73-.77 2.1-2.2 3.59-1.43 1.48-3.44 2.28-2.01.79-4.46.79-2.48 0-4.5-.79-2.02-.8-3.45-2.28-1.43-1.49-2.21-3.59-.79-2.11-.79-4.73 0-2.6.79-4.71.78-2.11 2.21-3.57t3.45-2.26q2.02-.79 4.5-.79m0 18.64q2.75 0 4.07-1.85t1.32-5.42-1.32-5.44-4.07-1.87q-2.8 0-4.14 1.88-1.35 1.88-1.35 5.43t1.35 5.41q1.34 1.86 4.14 1.86m19.54-17.33.37 1.74q.66-.67 1.4-1.24.75-.57 1.57-.96.83-.4 1.78-.63.94-.22 2.06-.22 1.81 0 3.2.61 1.4.61 2.34 1.72.93 1.11 1.42 2.64.48 1.54.48 3.39v14.04h-5.31v-14.04q0-2.02-.92-3.13-.93-1.11-2.82-1.11-1.38 0-2.58.63-1.21.62-2.28 1.7v15.95h-5.31V190h3.25q1.03 0 1.35.97m36.85 1.76-1.4 1.94q-.23.3-.46.47-.22.17-.65.17-.41 0-.8-.25-.39-.24-.92-.55-.54-.32-1.28-.56-.75-.25-1.84-.25-1.4 0-2.45.5-1.06.51-1.75 1.46-.7.94-1.05 2.29-.34 1.34-.34 3.04 0 1.76.37 3.14.38 1.37 1.09 2.31.71.93 1.72 1.42 1.01.48 2.28.48t2.05-.31q.79-.31 1.32-.69.54-.38.94-.69t.89-.31q.65 0 .97.5l1.53 1.93q-.89 1.03-1.92 1.73t-2.14 1.12q-1.1.42-2.28.59-1.17.17-2.33.17-2.04 0-3.85-.76-1.8-.76-3.16-2.23-1.35-1.46-2.14-3.58-.78-2.11-.78-4.82 0-2.43.7-4.51.7-2.07 2.05-3.59 1.36-1.51 3.35-2.37 2-.86 4.61-.86 2.47 0 4.33.79 1.86.8 3.34 2.28m3.7-2.73h5.33v22.06h-5.33zm6.06-6.43q0 .69-.28 1.29t-.74 1.06q-.46.45-1.08.72-.63.26-1.34.26-.69 0-1.3-.26-.61-.27-1.06-.72-.45-.46-.72-1.06t-.27-1.29q0-.71.27-1.33t.72-1.08q.45-.45 1.06-.72.61-.26 1.3-.26.71 0 1.34.26.62.27 1.08.72.46.46.74 1.08t.28 1.33m8.88 14.92h10.02q0-1.03-.29-1.94-.29-.92-.87-1.6-.58-.69-1.47-1.09-.9-.4-2.08-.4-2.3 0-3.62 1.31-1.32 1.32-1.69 3.72m13.55 3.21h-13.66q.13 1.7.61 2.93.47 1.24 1.24 2.04.78.81 1.84 1.21 1.07.4 2.36.4t2.22-.3q.94-.31 1.64-.67.69-.37 1.22-.67t1.02-.3q.67 0 .99.5l1.53 1.93q-.88 1.03-1.98 1.73t-2.29 1.12-2.43.59-2.4.17q-2.3 0-4.28-.76-1.97-.76-3.44-2.26-1.46-1.49-2.3-3.7-.83-2.2-.83-5.1 0-2.26.73-4.25t2.09-3.46q1.37-1.47 3.34-2.33 1.96-.86 4.43-.86 2.09 0 3.85.66 1.77.67 3.03 1.95 1.27 1.28 1.99 3.14t.72 4.24q0 1.21-.25 1.63-.26.42-.99.42m9.91-10.37.32 2.5q1.03-1.98 2.45-3.11t3.36-1.13q1.52 0 2.45.67l-.35 3.98q-.1.38-.31.54-.2.17-.55.17-.32 0-.95-.11-.64-.11-1.24-.11-.88 0-1.57.26t-1.24.74q-.54.48-.96 1.17t-.79 1.57v13.59h-5.31V190h3.12q.82 0 1.14.29t.43 1.04m19.41 9.16q.99 0 1.72-.27.73-.26 1.22-.74.48-.47.73-1.14.25-.66.25-1.46 0-1.63-.98-2.59t-2.94-.96q-1.95 0-2.93.96t-.98 2.59q0 .77.25 1.44.24.67.73 1.15.48.49 1.22.75.75.27 1.71.27m6 12.56q0-.65-.39-1.05-.38-.41-1.05-.64-.67-.22-1.56-.33t-1.89-.16q-1-.06-2.06-.1-1.07-.04-2.08-.17-.88.49-1.43 1.16t-.55 1.55q0 .58.29 1.08.29.51.93.87.63.37 1.64.57 1.01.21 2.48.21 1.48 0 2.55-.23 1.08-.22 1.78-.62t1.02-.95.32-1.19m-1.05-22.3h6.34v1.98q0 .95-1.14 1.16l-1.98.37q.45 1.14.45 2.49 0 1.64-.65 2.96-.66 1.32-1.82 2.24-1.16.93-2.74 1.43-1.58.51-3.41.51-.64 0-1.24-.06-.61-.07-1.19-.18-1.03.63-1.03 1.4 0 .67.61.98.62.31 1.63.44t2.3.16 2.64.14q1.36.11 2.65.38t2.3.85 1.62 1.58.61 2.57q0 1.46-.72 2.83-.72 1.38-2.08 2.46-1.37 1.07-3.36 1.73-1.99.65-4.52.65-2.5 0-4.35-.48-1.84-.49-3.07-1.29-1.23-.81-1.83-1.86-.6-1.06-.6-2.19 0-1.55.94-2.6.93-1.04 2.57-1.66-.89-.45-1.4-1.21-.52-.75-.52-1.97 0-.5.18-1.03.19-.52.54-1.04.36-.51.89-.98.54-.46 1.27-.82-1.67-.91-2.63-2.41-.96-1.51-.96-3.53 0-1.63.66-2.95.65-1.33 1.83-2.26 1.17-.94 2.77-1.43 1.6-.5 3.49-.5 1.42 0 2.67.29t2.28.85m13.89 7.74h10.02q0-1.03-.29-1.94-.29-.92-.88-1.6-.58-.69-1.47-1.09t-2.07-.4q-2.3 0-3.63 1.31-1.32 1.32-1.68 3.72m13.54 3.21h-13.65q.13 1.7.6 2.93.47 1.24 1.25 2.04.77.81 1.84 1.21 1.06.4 2.35.4t2.23-.3q.93-.31 1.63-.67.7-.37 1.23-.67.52-.3 1.02-.3.66 0 .99.5l1.52 1.93q-.88 1.03-1.98 1.73-1.09.7-2.29 1.12-1.19.42-2.42.59-1.24.17-2.4.17-2.3 0-4.28-.76t-3.44-2.26q-1.46-1.49-2.3-3.7-.84-2.2-.84-5.1 0-2.26.73-4.25t2.1-3.46q1.36-1.47 3.33-2.33t4.44-.86q2.09 0 3.85.66 1.76.67 3.03 1.95t1.99 3.14.72 4.24q0 1.21-.26 1.63t-.99.42M344 183.89l-1.44 2.74q-.26.45-.55.65-.29.21-.72.21-.45 0-.98-.34-.52-.33-1.26-.74-.73-.41-1.7-.74-.98-.33-2.32-.33-1.2 0-2.1.29-.91.29-1.52.8-.61.52-.91 1.24t-.3 1.58q0 1.09.61 1.83.61.73 1.62 1.24 1.01.52 2.3.93t2.65.87q1.35.46 2.64 1.07 1.29.62 2.3 1.55 1.01.94 1.63 2.29.61 1.36.61 3.29 0 2.11-.72 3.95-.72 1.83-2.11 3.2-1.39 1.36-3.39 2.15-1.99.78-4.57.78-1.49 0-2.93-.29t-2.76-.82q-1.32-.54-2.48-1.29-1.17-.76-2.07-1.68l1.7-2.77q.22-.31.56-.51t.73-.2q.54 0 1.16.44t1.48.97q.86.54 2.01.98 1.16.44 2.77.44 2.47 0 3.82-1.17 1.36-1.17 1.36-3.36 0-1.23-.61-2-.62-.78-1.63-1.3-1.01-.53-2.3-.9-1.29-.36-2.62-.79t-2.62-1.03-2.3-1.57-1.63-2.42q-.61-1.45-.61-3.58 0-1.7.68-3.31.67-1.61 1.96-2.86t3.19-2q1.89-.75 4.34-.75 2.75 0 5.07.86 2.33.86 3.96 2.4m8.94 14.6h10.02q0-1.03-.29-1.94-.29-.92-.87-1.6-.58-.69-1.47-1.09t-2.08-.4q-2.3 0-3.62 1.31-1.32 1.32-1.69 3.72m13.55 3.21h-13.65q.13 1.7.6 2.93.47 1.24 1.25 2.04.77.81 1.83 1.21 1.07.4 2.36.4t2.22-.3q.94-.31 1.64-.67.7-.37 1.22-.67.53-.3 1.02-.3.67 0 .99.5l1.53 1.93q-.88 1.03-1.98 1.73t-2.29 1.12-2.43.59q-1.23.17-2.4.17-2.3 0-4.27-.76-1.98-.76-3.44-2.26-1.47-1.49-2.3-3.7-.84-2.2-.84-5.1 0-2.26.73-4.25t2.09-3.46q1.37-1.47 3.34-2.33 1.96-.86 4.44-.86 2.08 0 3.85.66 1.76.67 3.03 1.95t1.99 3.14.72 4.24q0 1.21-.26 1.63t-.99.42m9.91-10.37.32 2.5q1.03-1.98 2.45-3.11t3.36-1.13q1.52 0 2.45.67l-.35 3.98q-.1.38-.31.54-.2.17-.55.17-.32 0-.95-.11-.64-.11-1.24-.11-.88 0-1.57.26t-1.23.74q-.55.48-.97 1.17t-.79 1.57v13.59h-5.31V190h3.12q.82 0 1.14.29t.43 1.04m27.05-1.33h4.19l-8.75 22.06h-4.82L385.32 190h4.39q.6 0 1 .28t.53.71l4.25 11.78q.35 1.03.6 2.02.26.99.46 1.98.21-.99.47-1.98t.62-2.02l4.35-11.78q.15-.43.53-.71.39-.28.93-.28m7.18 0h5.33v22.06h-5.33zm6.06-6.43q0 .69-.28 1.29t-.74 1.06q-.46.45-1.09.72-.62.26-1.33.26-.69 0-1.3-.26-.61-.27-1.06-.72-.46-.46-.72-1.06-.27-.6-.27-1.29 0-.71.27-1.33.26-.62.72-1.08.45-.45 1.06-.72.61-.26 1.3-.26.71 0 1.33.26.63.27 1.09.72.46.46.74 1.08t.28 1.33m21.89 9.16-1.4 1.94q-.24.3-.46.47-.23.17-.66.17-.41 0-.79-.25-.39-.24-.93-.55-.53-.32-1.28-.56-.74-.25-1.83-.25-1.4 0-2.46.5-1.05.51-1.75 1.46-.7.94-1.04 2.29-.34 1.34-.34 3.04 0 1.76.37 3.14.38 1.37 1.09 2.31.71.93 1.72 1.42 1.01.48 2.28.48 1.26 0 2.05-.31.78-.31 1.32-.69t.94-.69q.39-.31.89-.31.64 0 .97.5l1.52 1.93q-.88 1.03-1.91 1.73t-2.14 1.12-2.28.59-2.33.17q-2.04 0-3.85-.76t-3.16-2.23q-1.35-1.46-2.14-3.58-.78-2.11-.78-4.82 0-2.43.69-4.51.7-2.07 2.06-3.59 1.35-1.51 3.35-2.37t4.6-.86q2.48 0 4.33.79 1.86.8 3.35 2.28m7.72 5.76h10.02q0-1.03-.29-1.94-.29-.92-.88-1.6-.58-.69-1.47-1.09t-2.07-.4q-2.3 0-3.63 1.31-1.32 1.32-1.68 3.72m13.54 3.21h-13.65q.13 1.7.6 2.93.47 1.24 1.25 2.04.77.81 1.84 1.21 1.06.4 2.35.4t2.23-.3q.93-.31 1.63-.67.7-.37 1.23-.67.52-.3 1.02-.3.66 0 .99.5l1.52 1.93q-.88 1.03-1.98 1.73-1.09.7-2.29 1.12-1.19.42-2.43.59-1.23.17-2.39.17-2.3 0-4.28-.76t-3.44-2.26q-1.46-1.49-2.3-3.7-.84-2.2-.84-5.1 0-2.26.73-4.25t2.1-3.46q1.36-1.47 3.33-2.33t4.44-.86q2.09 0 3.85.66 1.76.67 3.03 1.95t1.99 3.14.72 4.24q0 1.21-.26 1.63t-.99.42m19.89-9.31-1.2 1.91q-.22.34-.46.48-.23.14-.6.14-.39 0-.83-.21-.44-.22-1.02-.48-.58-.27-1.32-.49-.74-.21-1.75-.21-1.57 0-2.46.66-.9.67-.9 1.74 0 .71.47 1.2.46.48 1.22.85.77.36 1.73.65.97.29 1.97.64 1 .34 1.97.78.96.44 1.73 1.12.76.68 1.22 1.62.47.95.47 2.28 0 1.59-.57 2.94-.57 1.34-1.69 2.32t-2.76 1.53q-1.65.54-3.8.54-1.14 0-2.22-.2-1.09-.2-2.09-.57t-1.85-.86-1.49-1.08l1.22-2.02q.24-.36.56-.56.32-.19.82-.19.49 0 .93.28t1.02.6q.59.33 1.37.6.78.28 1.99.28.94 0 1.62-.22.68-.23 1.12-.59.44-.37.64-.85.21-.49.21-1 0-.78-.46-1.27-.47-.49-1.23-.86t-1.74-.66-2-.63-2-.81q-.98-.46-1.74-1.17t-1.23-1.74q-.46-1.03-.46-2.49 0-1.36.54-2.58.54-1.23 1.58-2.14 1.04-.92 2.6-1.46 1.56-.55 3.6-.55 2.28 0 4.15.75t3.12 1.98"/></svg>