<svg xmlns="http://www.w3.org/2000/svg" width="600" height="400" viewBox="0 0 600 400"><rect width="100%" height="100%" fill="#005ea2"/><path fill="#FFFFFF" d="M127.1 204.16h10.12l-3.87-10.58q-.29-.71-.6-1.68-.31-.96-.61-2.09-.29 1.13-.6 2.11-.31.97-.59 1.7zm8.07-19.8 12.5 31.81h-4.58q-.77 0-1.25-.38-.49-.39-.73-.96l-2.37-6.49h-13.18l-2.38 6.49q-.17.5-.68.92t-1.25.42h-4.62l12.51-31.81zm15.12 9.24h5.45v22.57h-5.45zm6.2-6.58q0 .7-.29 1.32-.28.62-.76 1.08-.47.46-1.11.74-.63.27-1.36.27-.7 0-1.33-.27-.63-.28-1.09-.74t-.74-1.08q-.27-.62-.27-1.32 0-.73.27-1.36.28-.64.74-1.1.46-.47 1.09-.74.63-.28 1.33-.28.73 0 1.36.28.64.27 1.11.74.48.46.76 1.1.29.63.29 1.36m9.59 7.94.33 2.55q1.06-2.02 2.51-3.17 1.45-1.16 3.43-1.16 1.56 0 2.51.68l-.35 4.07q-.11.4-.32.56-.21.17-.56.17-.33 0-.98-.11t-1.27-.11q-.9 0-1.6.26-.71.27-1.27.76-.56.5-.99 1.2t-.8 1.61v13.9h-5.43V193.6h3.19q.83 0 1.16.3.33.29.44 1.06m29.22 1.43-1.43 1.98q-.24.31-.48.49-.23.17-.67.17-.41 0-.81-.25t-.95-.57-1.31-.58q-.75-.25-1.88-.25-1.43 0-2.5.52-1.08.52-1.8 1.48-.71.97-1.06 2.35-.36 1.37-.36 3.11 0 1.8.39 3.21.38 1.41 1.11 2.37.73.95 1.76 1.45 1.03.49 2.33.49t2.1-.32q.81-.31 1.36-.7.55-.38.95-.7.41-.32.92-.32.66 0 .99.5l1.56 1.98q-.9 1.06-1.96 1.78-1.06.71-2.19 1.14t-2.33.6q-1.2.18-2.39.18-2.09 0-3.94-.78-1.84-.78-3.23-2.28-1.39-1.49-2.19-3.66t-.8-4.94q0-2.49.71-4.61.72-2.12 2.1-3.67 1.39-1.55 3.44-2.43 2.04-.88 4.7-.88 2.53 0 4.44.81 1.9.81 3.42 2.33m8.4-1.43.33 2.55q1.06-2.02 2.51-3.17 1.45-1.16 3.43-1.16 1.56 0 2.51.68l-.35 4.07q-.11.4-.32.56-.21.17-.56.17-.33 0-.98-.11t-1.27-.11q-.9 0-1.6.26-.71.27-1.27.76-.56.5-.99 1.2t-.8 1.61v13.9h-5.43V193.6h3.19q.83 0 1.16.3.33.29.44 1.06m23.54 15.38v-3.81q-2.35.11-3.96.41-1.6.3-2.57.76t-1.39 1.08q-.42.61-.42 1.34 0 1.43.85 2.05.85.61 2.21.61 1.67 0 2.89-.6 1.23-.61 2.39-1.84m-11.48-11.86-.97-1.74q3.89-3.56 9.37-3.56 1.98 0 3.54.65 1.57.65 2.64 1.8 1.08 1.16 1.64 2.76.56 1.61.56 3.52v14.26h-2.46q-.77 0-1.19-.23t-.66-.94l-.48-1.62q-.86.77-1.67 1.35-.82.58-1.7.98-.88.39-1.88.6t-2.21.21q-1.43 0-2.64-.38-1.21-.39-2.09-1.16t-1.36-1.91q-.49-1.15-.49-2.66 0-.86.29-1.71.28-.85.93-1.62t1.69-1.45q1.03-.68 2.54-1.19 1.5-.5 3.51-.82 2-.32 4.57-.39v-1.32q0-2.26-.97-3.35-.96-1.09-2.79-1.09-1.32 0-2.19.31t-1.53.69q-.66.39-1.2.69-.54.31-1.2.31-.57 0-.96-.29-.4-.3-.64-.7m28.91 17.69h-5.44v-18.48l-1.96-.31q-.63-.13-1.02-.45-.38-.32-.38-.91v-2.22h3.36v-1.68q0-1.93.58-3.47.59-1.54 1.68-2.62t2.65-1.65 3.52-.57q1.56 0 2.9.42l-.11 2.72q-.02.31-.17.5-.16.19-.41.29-.25.09-.58.13-.33.03-.71.03-.97 0-1.73.21-.75.21-1.28.73-.53.51-.81 1.36-.27.85-.27 2.1v1.5h5.87v3.87h-5.69zm16.28.35q-2.95 0-4.53-1.66-1.57-1.66-1.57-4.59v-12.6h-2.31q-.44 0-.75-.29-.3-.28-.3-.86v-2.15l3.63-.6 1.14-6.16q.11-.44.42-.68t.79-.24h2.82v7.11h6.02v3.87h-6.02v12.23q0 1.06.51 1.65.52.59 1.42.59.51 0 .85-.12t.59-.25q.26-.13.45-.25.2-.12.4-.12.24 0 .4.12.15.12.33.36l1.62 2.64q-1.18.99-2.72 1.5-1.54.5-3.19.5m42.24-7.85q.48 0 .85.37l2.34 2.53q-1.94 2.4-4.77 3.68-2.82 1.27-6.78 1.27-3.55 0-6.37-1.21-2.83-1.21-4.83-3.36-2-2.16-3.07-5.15t-1.07-6.54q0-3.58 1.15-6.56 1.14-2.98 3.22-5.14t4.96-3.35q2.88-1.2 6.38-1.2 3.48 0 6.17 1.14 2.7 1.14 4.59 2.99l-1.98 2.75q-.18.27-.45.46-.28.2-.76.2-.33 0-.68-.18-.36-.19-.77-.47-.42-.27-.97-.6t-1.28-.61q-.72-.27-1.68-.46t-2.21-.19q-2.14 0-3.91.76t-3.04 2.2q-1.28 1.44-1.98 3.52-.71 2.08-.71 4.74 0 2.69.76 4.78t2.06 3.52 3.06 2.19 3.78.76q1.21 0 2.19-.14.98-.13 1.8-.41.83-.29 1.56-.74.74-.45 1.47-1.11.22-.2.46-.32t.51-.12m6.46-25.19h5.44v32.69h-5.44zm22.8 26.86v-3.81q-2.36.11-3.96.41-1.61.3-2.58.76t-1.38 1.08q-.42.61-.42 1.34 0 1.43.84 2.05.85.61 2.22.61 1.67 0 2.89-.6 1.22-.61 2.39-1.84m-11.49-11.86-.97-1.74q3.9-3.56 9.38-3.56 1.98 0 3.54.65t2.64 1.8q1.08 1.16 1.64 2.76.56 1.61.56 3.52v14.26h-2.47q-.77 0-1.18-.23-.42-.23-.66-.94l-.49-1.62q-.86.77-1.67 1.35t-1.69.98q-.88.39-1.89.6-1 .21-2.21.21-1.43 0-2.64-.38-1.21-.39-2.09-1.16t-1.36-1.91q-.48-1.15-.48-2.66 0-.86.28-1.71.29-.85.94-1.62t1.68-1.45 2.54-1.19q1.51-.5 3.51-.82t4.58-.39v-1.32q0-2.26-.97-3.35t-2.8-1.09q-1.32 0-2.19.31-.86.31-1.52.69-.66.39-1.2.69-.54.31-1.2.31-.57 0-.97-.29-.4-.3-.64-.7m36.9-2.44-1.24 1.96q-.22.35-.46.49-.24.15-.61.15-.4 0-.85-.22t-1.05-.5q-.59-.27-1.35-.49t-1.79-.22q-1.61 0-2.52.68t-.91 1.78q0 .73.47 1.22.47.5 1.25.87t1.77.67 2.02.65q1.02.35 2.01.8t1.77 1.15q.78.69 1.25 1.66.48.97.48 2.33 0 1.63-.59 3-.58 1.38-1.72 2.38-1.15 1-2.83 1.56t-3.88.56q-1.17 0-2.28-.21t-2.13-.58q-1.03-.37-1.9-.88-.86-.51-1.52-1.1l1.25-2.07q.24-.37.57-.57t.84-.2q.5 0 .95.29.46.28 1.05.61t1.4.62q.8.29 2.03.29.97 0 1.66-.23.7-.24 1.15-.61t.66-.87q.21-.49.21-1.02 0-.79-.48-1.3-.47-.51-1.25-.88t-1.78-.67-2.05-.65q-1.04-.35-2.05-.82-1-.48-1.78-1.2-.78-.73-1.25-1.79-.47-1.05-.47-2.55 0-1.38.55-2.64.55-1.25 1.61-2.19 1.07-.93 2.66-1.49 1.6-.56 3.69-.56 2.33 0 4.25.77 1.91.77 3.19 2.02m19.33 0-1.23 1.96q-.22.35-.46.49-.24.15-.62.15-.39 0-.84-.22t-1.05-.5q-.59-.27-1.35-.49t-1.79-.22q-1.61 0-2.52.68-.92.68-.92 1.78 0 .73.48 1.22.47.5 1.25.87t1.77.67 2.01.65q1.03.35 2.02.8t1.77 1.15q.78.69 1.25 1.66.48.97.48 2.33 0 1.63-.59 3-.58 1.38-1.72 2.38-1.15 1-2.83 1.56t-3.88.56q-1.17 0-2.28-.21t-2.14-.58q-1.02-.37-1.89-.88t-1.53-1.1l1.26-2.07q.24-.37.57-.57t.84-.2q.5 0 .95.29.45.28 1.05.61.59.33 1.39.62.81.29 2.04.29.97 0 1.66-.23.69-.24 1.14-.61.46-.37.66-.87.21-.49.21-1.02 0-.79-.47-1.3t-1.25-.88-1.79-.67q-1-.3-2.04-.65-1.05-.35-2.05-.82-1-.48-1.78-1.2-.78-.73-1.25-1.79-.48-1.05-.48-2.55 0-1.38.55-2.64.55-1.25 1.62-2.19 1.07-.93 2.66-1.49 1.6-.56 3.69-.56 2.33 0 4.24.77 1.92.77 3.19 2.02m4.51-2.44h5.46v22.57h-5.46zm6.21-6.58q0 .7-.29 1.32-.28.62-.76 1.08-.47.46-1.11.74-.64.27-1.36.27-.71 0-1.33-.27-.63-.28-1.09-.74t-.74-1.08q-.27-.62-.27-1.32 0-.73.27-1.36.28-.64.74-1.1.46-.47 1.09-.74.62-.28 1.33-.28.72 0 1.36.28.64.27 1.11.74.48.46.76 1.1.29.63.29 1.36m11.81 29.15h-5.43v-18.48l-1.96-.31q-.64-.13-1.02-.45-.39-.32-.39-.91v-2.22h3.37v-1.68q0-1.93.58-3.47t1.67-2.62 2.65-1.65q1.57-.57 3.52-.57 1.57 0 2.91.42l-.11 2.72q-.02.31-.18.5-.15.19-.41.29-.25.09-.58.13-.33.03-.7.03-.97 0-1.73.21t-1.29.73q-.52.51-.8 1.36-.27.85-.27 2.1v1.5h5.87v3.87h-5.7zm8.93-22.57h5.46v22.57h-5.46zm6.21-6.58q0 .7-.29 1.32-.28.62-.76 1.08-.47.46-1.11.74-.64.27-1.36.27-.71 0-1.33-.27-.63-.28-1.09-.74t-.74-1.08q-.27-.62-.27-1.32 0-.73.27-1.36.28-.64.74-1.1.46-.47 1.09-.74.62-.28 1.33-.28.72 0 1.36.28.64.27 1.11.74.48.46.76 1.1.29.63.29 1.36m9.08 15.27h10.26q0-1.06-.3-1.99-.3-.94-.89-1.64-.6-.71-1.51-1.11-.91-.41-2.12-.41-2.36 0-3.71 1.34t-1.73 3.81m13.86 3.28h-13.97q.14 1.73.62 3 .48 1.26 1.28 2.09.79.82 1.88 1.23t2.41.41 2.27-.31q.96-.31 1.67-.68.72-.38 1.26-.68.54-.31 1.04-.31.69 0 1.02.5l1.56 1.98q-.9 1.06-2.03 1.78-1.12.71-2.34 1.14t-2.49.6q-1.26.18-2.45.18-2.35 0-4.38-.78-2.02-.78-3.52-2.31-1.49-1.53-2.35-3.78-.86-2.26-.86-5.23 0-2.31.75-4.34.75-2.04 2.14-3.55 1.4-1.5 3.41-2.38 2.02-.88 4.55-.88 2.13 0 3.94.68 1.8.68 3.1 1.99t2.03 3.21q.74 1.9.74 4.35 0 1.23-.26 1.66-.27.43-1.02.43m19.52 3.91v-10.12q-.93-1.12-2.02-1.58-1.08-.46-2.34-.46-1.23 0-2.22.46t-1.69 1.4q-.71.93-1.08 2.37-.38 1.44-.38 3.4 0 1.98.32 3.36.32 1.37.92 2.24.59.87 1.45 1.25.86.39 1.91.39 1.7 0 2.88-.71 1.19-.7 2.25-2m0-26h5.43v32.69h-3.32q-1.08 0-1.36-.99l-.47-2.18q-1.36 1.56-3.13 2.53t-4.13.97q-1.84 0-3.38-.77t-2.66-2.23q-1.11-1.47-1.71-3.62-.61-2.16-.61-4.93 0-2.51.69-4.66.68-2.16 1.95-3.74 1.28-1.59 3.06-2.48t4.01-.89q1.89 0 3.23.59 1.34.6 2.4 1.61zm25.8 12.56-1.23 1.96q-.22.35-.46.49-.24.15-.62.15-.39 0-.84-.22t-1.05-.5q-.59-.27-1.35-.49t-1.79-.22q-1.61 0-2.52.68-.92.68-.92 1.78 0 .73.48 1.22.47.5 1.25.87t1.77.67 2.01.65q1.03.35 2.02.8t1.77 1.15q.78.69 1.25 1.66.48.97.48 2.33 0 1.63-.59 3-.58 1.38-1.72 2.38-1.15 1-2.83 1.56t-3.88.56q-1.17 0-2.28-.21t-2.14-.58q-1.02-.37-1.89-.88t-1.53-1.1l1.26-2.07q.24-.37.57-.57t.84-.2q.5 0 .95.29.45.28 1.05.61.59.33 1.39.62.81.29 2.04.29.97 0 1.66-.23.69-.24 1.14-.61.46-.37.66-.87.21-.49.21-1.02 0-.79-.47-1.3t-1.25-.88-1.79-.67q-1-.3-2.04-.65-1.05-.35-2.05-.82-1-.48-1.78-1.2-.78-.73-1.25-1.79-.48-1.05-.48-2.55 0-1.38.55-2.64.55-1.25 1.62-2.19 1.07-.93 2.66-1.49 1.6-.56 3.69-.56 2.33 0 4.24.77 1.92.77 3.19 2.02"/></svg>