<svg xmlns="http://www.w3.org/2000/svg" width="600" height="400" viewBox="0 0 600 400"><rect width="100%" height="100%" fill="#005ea2"/><path fill="#FFFFFF" d="M127.58 200.29h8.74l-3.35-9.14q-.24-.61-.51-1.45-.27-.83-.53-1.8-.25.97-.52 1.81-.26.85-.51 1.48zm6.97-17.1 10.79 27.47h-3.95q-.67 0-1.08-.33-.42-.34-.63-.83l-2.05-5.6h-11.38l-2.06 5.6q-.15.44-.58.8-.44.36-1.09.36h-3.99l10.81-27.47zm13.05 7.98h4.71v19.49h-4.71zm5.36-5.69q0 .61-.25 1.14-.24.54-.65.94t-.96.63q-.55.24-1.18.24-.61 0-1.15-.24-.54-.23-.94-.63t-.64-.94q-.23-.53-.23-1.14 0-.62.23-1.17.24-.55.64-.95t.94-.64 1.15-.24q.63 0 1.18.24t.96.64.65.95q.25.55.25 1.17m8.28 6.86.29 2.21q.91-1.75 2.16-2.75 1.26-1 2.97-1 1.35 0 2.16.59l-.3 3.52q-.09.34-.27.48-.19.15-.49.15-.28 0-.84-.1-.57-.09-1.1-.09-.78 0-1.38.22-.61.23-1.1.66-.48.43-.85 1.04-.37.6-.7 1.38v12.01h-4.69v-19.49h2.76q.72 0 1 .25.29.26.38.92m25.24 1.24-1.24 1.71q-.21.26-.41.42-.2.15-.58.15-.36 0-.7-.22t-.82-.49q-.47-.28-1.13-.5-.65-.22-1.62-.22-1.24 0-2.17.45t-1.55 1.28q-.61.84-.92 2.03-.3 1.18-.3 2.68 0 1.56.33 2.78t.96 2.04q.63.83 1.52 1.26.89.42 2.01.42t1.82-.27q.69-.28 1.17-.61.47-.33.82-.61.35-.27.79-.27.57 0 .86.43l1.35 1.71q-.78.92-1.7 1.53-.91.62-1.89.99-.97.37-2.01.52t-2.06.15q-1.81 0-3.4-.67-1.6-.67-2.8-1.97-1.19-1.29-1.89-3.16-.69-1.87-.69-4.27 0-2.14.62-3.98.62-1.83 1.81-3.17 1.2-1.34 2.97-2.1 1.76-.76 4.06-.76 2.19 0 3.83.71 1.64.7 2.96 2.01m7.25-1.24.29 2.21q.91-1.75 2.16-2.75 1.26-1 2.97-1 1.35 0 2.16.59l-.3 3.52q-.09.34-.27.48-.19.15-.49.15-.28 0-.84-.1-.57-.09-1.1-.09-.78 0-1.38.22-.61.23-1.1.66-.48.43-.85 1.04-.37.6-.7 1.38v12.01h-4.69v-19.49h2.76q.72 0 1 .25.29.26.38.92m20.33 13.28v-3.28q-2.03.09-3.42.35-1.38.26-2.22.66-.84.39-1.2.93-.36.53-.36 1.16 0 1.23.73 1.76.74.53 1.91.53 1.45 0 2.5-.52 1.06-.52 2.06-1.59m-9.91-10.24-.84-1.5q3.36-3.08 8.09-3.08 1.71 0 3.06.57 1.35.56 2.28 1.55.93 1 1.42 2.39.48 1.39.48 3.04v12.31h-2.12q-.67 0-1.03-.2t-.57-.81l-.42-1.4q-.74.66-1.44 1.17-.71.5-1.47.84t-1.62.52q-.87.18-1.91.18-1.24 0-2.28-.33t-1.8-1q-.77-.66-1.18-1.65-.42-.99-.42-2.3 0-.74.25-1.47.24-.73.8-1.4.56-.66 1.46-1.25.89-.59 2.19-1.03 1.3-.43 3.03-.71t3.95-.33v-1.14q0-1.96-.83-2.9-.84-.94-2.41-.94-1.14 0-1.9.27-.75.26-1.32.59-.57.34-1.03.6-.47.27-1.04.27-.49 0-.83-.26-.35-.25-.55-.6m24.96 15.28h-4.69V194.7l-1.69-.27q-.55-.11-.89-.39-.33-.27-.33-.78v-1.92h2.91v-1.45q0-1.67.5-3 .51-1.33 1.45-2.26t2.29-1.42q1.35-.5 3.04-.5 1.34 0 2.5.36l-.09 2.36q-.02.26-.15.43-.14.16-.35.24-.22.09-.51.12-.28.03-.61.03-.83 0-1.49.18-.65.18-1.11.62-.46.45-.69 1.18-.24.73-.24 1.82v1.29h5.07v3.34h-4.92zm14.06.3q-2.54 0-3.9-1.43t-1.36-3.96v-10.89h-2q-.38 0-.64-.25-.27-.24-.27-.74v-1.86l3.14-.51.98-5.32q.1-.38.37-.59.26-.21.68-.21h2.43v6.14h5.21v3.34h-5.21v10.56q0 .92.45 1.43.44.51 1.22.51.44 0 .74-.1.29-.11.51-.22t.39-.22q.17-.1.34-.1.21 0 .34.1.14.11.29.31l1.4 2.28q-1.02.86-2.35 1.3-1.33.43-2.76.43m43.55-27.77h3.86v27.47h-4.51v-17.75q0-1.06.12-2.29l-8.31 15.59q-.58 1.13-1.8 1.13h-.72q-1.22 0-1.81-1.13l-8.39-15.65q.05.63.09 1.23.04.61.04 1.12v17.75h-4.51v-27.47h3.86q.34 0 .59.02.25.01.45.09t.36.25.31.45l8.23 15.26q.32.61.6 1.25.27.65.54 1.33.26-.7.55-1.35.28-.66.61-1.27l8.11-15.22q.15-.28.32-.45t.37-.25.45-.09q.25-.02.59-.02m19.53 22.43v-3.28q-2.03.09-3.42.35t-2.22.66q-.84.39-1.2.93-.36.53-.36 1.16 0 1.23.73 1.76t1.91.53q1.45 0 2.5-.52t2.06-1.59m-9.92-10.24-.83-1.5q3.36-3.08 8.09-3.08 1.71 0 3.06.57 1.35.56 2.28 1.55.93 1 1.42 2.39.48 1.39.48 3.04v12.31h-2.13q-.66 0-1.02-.2t-.57-.81l-.42-1.4q-.74.66-1.45 1.17-.7.5-1.46.84t-1.62.52q-.87.18-1.91.18-1.24 0-2.28-.33-1.05-.33-1.81-1-.76-.66-1.18-1.65-.41-.99-.41-2.3 0-.74.24-1.47.25-.73.81-1.4.56-.66 1.45-1.25.9-.59 2.2-1.03 1.3-.43 3.03-.71t3.95-.33v-1.14q0-1.96-.83-2.9-.84-.94-2.42-.94-1.14 0-1.89.27-.75.26-1.32.59-.57.34-1.03.6-.47.27-1.04.27-.49 0-.84-.26-.34-.25-.55-.6m22.97-3.36.33 1.54q.59-.59 1.24-1.09.66-.51 1.39-.86t1.57-.55q.83-.2 1.82-.2 1.6 0 2.83.54 1.24.55 2.06 1.52.83.98 1.26 2.34.42 1.36.42 2.99v12.41h-4.69v-12.41q0-1.78-.82-2.76-.81-.98-2.48-.98-1.22 0-2.28.55-1.07.55-2.02 1.5v14.1h-4.69v-19.49h2.87q.91 0 1.19.85m27.67 13.6v-3.28q-2.03.09-3.42.35t-2.22.66q-.84.39-1.2.93-.36.53-.36 1.16 0 1.23.73 1.76t1.91.53q1.44 0 2.5-.52 1.05-.52 2.06-1.59m-9.92-10.24-.84-1.5q3.37-3.08 8.1-3.08 1.71 0 3.06.57 1.35.56 2.28 1.55.93 1 1.41 2.39.49 1.39.49 3.04v12.31h-2.13q-.67 0-1.03-.2t-.57-.81l-.41-1.4q-.75.66-1.45 1.17-.7.5-1.46.84t-1.63.52q-.86.18-1.91.18-1.23 0-2.28-.33-1.04-.33-1.8-1-.76-.66-1.18-1.65t-.42-2.3q0-.74.25-1.47t.81-1.4q.56-.66 1.45-1.25t2.2-1.03q1.3-.43 3.03-.71t3.95-.33v-1.14q0-1.96-.84-2.9-.83-.94-2.41-.94-1.14 0-1.89.27-.75.26-1.32.59-.57.34-1.04.6-.46.27-1.03.27-.5 0-.84-.26-.34-.25-.55-.6m26.03 5.06q.87 0 1.52-.24t1.07-.66q.43-.41.65-1t.22-1.29q0-1.45-.87-2.29-.86-.85-2.59-.85t-2.59.85q-.87.84-.87 2.29 0 .68.22 1.27t.65 1.02q.42.42 1.08.66t1.51.24m5.3 11.09q0-.57-.34-.93t-.93-.56-1.38-.29q-.79-.1-1.67-.14-.88-.05-1.82-.09-.95-.04-1.84-.15-.78.44-1.26 1.02-.49.59-.49 1.37 0 .51.26.96t.82.77 1.45.5q.89.19 2.19.19 1.31 0 2.26-.2t1.56-.56q.62-.35.91-.83.28-.49.28-1.06m-.93-19.7h5.61v1.75q0 .83-1.01 1.03l-1.75.32q.4 1.01.4 2.2 0 1.45-.58 2.61-.58 1.17-1.61 1.99-1.02.82-2.42 1.26-1.39.45-3.01.45-.57 0-1.1-.06-.53-.05-1.05-.15-.91.55-.91 1.24 0 .59.54.86.54.28 1.44.39.89.11 2.03.14t2.34.13q1.19.09 2.34.33 1.13.24 2.03.75.89.51 1.43 1.4.54.88.54 2.27 0 1.29-.63 2.5-.64 1.22-1.85 2.17-1.2.95-2.96 1.53t-4 .58q-2.2 0-3.84-.43-1.63-.43-2.71-1.14-1.09-.71-1.62-1.64t-.53-1.94q0-1.37.83-2.29.82-.92 2.27-1.47-.78-.4-1.24-1.07-.45-.66-.45-1.74 0-.44.16-.91.16-.46.47-.92.31-.45.79-.86.47-.41 1.12-.73-1.48-.8-2.33-2.13-.84-1.33-.84-3.12 0-1.44.58-2.61t1.61-2q1.04-.82 2.45-1.26 1.42-.44 3.09-.44 1.26 0 2.36.26t2.01.75m12.27 6.84h8.86q0-.91-.26-1.72-.25-.81-.77-1.41-.51-.61-1.3-.96t-1.83-.35q-2.04 0-3.2 1.15-1.17 1.16-1.5 3.29m11.97 2.83h-12.06q.11 1.5.53 2.6.42 1.09 1.1 1.8.69.71 1.63 1.06.94.36 2.08.36t1.97-.27q.82-.27 1.44-.59t1.08-.59q.47-.26.9-.26.59 0 .88.43l1.35 1.71q-.78.92-1.75 1.53-.97.62-2.02.99-1.06.37-2.15.52t-2.12.15q-2.03 0-3.78-.67t-3.04-1.99q-1.29-1.33-2.03-3.27-.74-1.95-.74-4.51 0-2 .64-3.76.65-1.75 1.85-3.06 1.21-1.3 2.95-2.06t3.92-.76q1.85 0 3.4.59 1.56.59 2.68 1.72t1.76 2.77q.64 1.65.64 3.76 0 1.06-.23 1.43t-.88.37m9.31 9.16h-4.69v-19.49h2.87q.91 0 1.2.85l.3 1.44q.51-.57 1.08-1.04.56-.47 1.19-.82.64-.34 1.37-.54t1.61-.2q1.84 0 3.03 1 1.18 1 1.77 2.65.46-.97 1.14-1.66.69-.7 1.5-1.13.82-.44 1.74-.65t1.85-.21q1.62 0 2.87.5 1.26.49 2.11 1.44.86.95 1.3 2.32.45 1.37.45 3.13v12.41H419v-12.41q0-1.86-.82-2.8t-2.39-.94q-.73 0-1.34.25-.62.24-1.09.71-.46.47-.73 1.17-.26.7-.26 1.61v12.41h-4.72v-12.41q0-1.95-.78-2.85-.79-.89-2.31-.89-1.03 0-1.91.5-.89.51-1.65 1.38zm30.84-11.99h8.86q0-.91-.26-1.72t-.77-1.41q-.51-.61-1.3-.96t-1.84-.35q-2.03 0-3.2 1.15-1.17 1.16-1.49 3.29m11.97 2.83h-12.06q.11 1.5.53 2.6.42 1.09 1.1 1.8t1.63 1.06q.94.36 2.08.36t1.96-.27q.83-.27 1.45-.59.61-.32 1.08-.59.46-.26.9-.26.59 0 .88.43l1.35 1.71q-.78.92-1.75 1.53-.97.62-2.03.99-1.05.37-2.14.52-1.1.15-2.12.15-2.04 0-3.78-.67-1.75-.67-3.04-1.99-1.3-1.33-2.04-3.27-.74-1.95-.74-4.51 0-2 .65-3.76.65-1.75 1.85-3.06 1.21-1.3 2.95-2.06 1.73-.76 3.92-.76 1.84 0 3.4.59t2.68 1.72 1.76 2.77q.63 1.65.63 3.76 0 1.06-.22 1.43-.23.37-.88.37m8.68-9.48.33 1.54q.59-.59 1.24-1.09.66-.51 1.39-.86t1.57-.55q.83-.2 1.82-.2 1.6 0 2.83.54 1.24.55 2.06 1.52.83.98 1.26 2.34.42 1.36.42 2.99v12.41h-4.69v-12.41q0-1.78-.82-2.76-.81-.98-2.48-.98-1.22 0-2.28.55-1.07.55-2.02 1.5v14.1h-4.69v-19.49h2.87q.91 0 1.19.85m23.87 18.94q-2.55 0-3.91-1.43-1.35-1.43-1.35-3.96v-10.89h-2q-.38 0-.65-.25-.26-.24-.26-.74v-1.86l3.13-.51.99-5.32q.1-.38.36-.59.27-.21.69-.21h2.43v6.14h5.2v3.34h-5.2v10.56q0 .92.45 1.43.44.51 1.22.51.44 0 .73-.1.3-.11.52-.22.21-.11.38-.22.18-.1.35-.1.21 0 .34.1.13.11.28.31l1.41 2.28q-1.03.86-2.36 1.3-1.33.43-2.75.43"/></svg>