<svg xmlns="http://www.w3.org/2000/svg" width="600" height="400" viewBox="0 0 600 400"><rect width="100%" height="100%" fill="#0000FF"/><path fill="#FFFFFF" d="M127.235 195.99h3.44q1.56 0 2.72-.39t1.91-1.07q.75-.69 1.11-1.63.37-.95.37-2.08 0-2.25-1.48-3.46-1.49-1.21-4.54-1.21h-3.53zm10.21 4.59 7.42 10.95h-4.98q-1.42 0-2.05-1.11l-6.23-9.49q-.35-.53-.77-.76-.42-.22-1.24-.22h-2.36v11.58h-5.51v-29.64h9.04q3.01 0 5.17.62 2.17.63 3.55 1.75 1.38 1.13 2.04 2.7.65 1.57.65 3.45 0 1.5-.44 2.83-.44 1.34-1.27 2.42-.83 1.09-2.05 1.91t-2.77 1.29q.53.31.98.73t.82.99m13.84-1.99h9.55q0-.98-.28-1.85-.27-.87-.83-1.53-.55-.65-1.4-1.03t-1.98-.38q-2.19 0-3.45 1.25t-1.61 3.54m12.91 3.06h-13.02q.13 1.62.58 2.8t1.19 1.94q.74.77 1.75 1.15t2.24.38 2.13-.29q.89-.28 1.55-.63.67-.35 1.17-.64.51-.28.98-.28.63 0 .94.47l1.46 1.84q-.85.99-1.89 1.65-1.05.67-2.18 1.07-1.14.4-2.32.56-1.18.17-2.29.17-2.19 0-4.08-.73-1.88-.73-3.28-2.15-1.39-1.43-2.19-3.53t-.8-4.87q0-2.15.7-4.05.7-1.89 2-3.3 1.3-1.4 3.17-2.22 1.88-.82 4.24-.82 1.99 0 3.67.63 1.68.64 2.89 1.86t1.89 2.99q.69 1.78.69 4.05 0 1.15-.25 1.55-.24.4-.94.4m21.38-8.55-1.33 1.85q-.22.28-.44.45-.22.16-.63.16-.38 0-.75-.24-.37-.23-.89-.53-.51-.3-1.21-.53-.71-.24-1.76-.24-1.33 0-2.33.48-1.01.49-1.68 1.39-.66.9-.99 2.18t-.33 2.9q0 1.68.36 3 .36 1.31 1.04 2.2.67.89 1.64 1.35.96.46 2.17.46t1.96-.29q.75-.3 1.26-.66t.89-.66q.38-.29.85-.29.62 0 .92.47l1.46 1.84q-.84.99-1.83 1.65-.98.67-2.04 1.07-1.05.4-2.17.56-1.12.17-2.22.17-1.95 0-3.67-.73t-3.02-2.12q-1.29-1.4-2.04-3.42-.74-2.01-.74-4.6 0-2.31.66-4.29.67-1.98 1.96-3.43 1.29-1.44 3.2-2.26 1.9-.82 4.38-.82 2.36 0 4.14.76 1.77.76 3.18 2.17m7.83-1.33.31 2.38q.99-1.89 2.34-2.97 1.35-1.07 3.2-1.07 1.45 0 2.33.63l-.32 3.8q-.11.36-.3.52-.2.15-.52.15-.31 0-.92-.1-.6-.1-1.18-.1-.84 0-1.49.24-.66.25-1.18.71t-.92 1.12q-.4.65-.75 1.49v12.96h-5.06V190.5h2.97q.78 0 1.08.27.31.28.41 1m14.83 6.82h9.55q0-.98-.28-1.85-.27-.87-.83-1.53-.55-.65-1.4-1.03t-1.98-.38q-2.19 0-3.45 1.25-1.27 1.25-1.61 3.54m12.91 3.06h-13.02q.13 1.62.58 2.8t1.19 1.94q.73.77 1.75 1.15 1.01.38 2.24.38t2.13-.29q.89-.28 1.55-.63.67-.35 1.17-.64.5-.28.98-.28.63 0 .94.47l1.45 1.84q-.84.99-1.88 1.65-1.05.67-2.18 1.07-1.14.4-2.32.56-1.18.17-2.29.17-2.19 0-4.08-.73-1.88-.73-3.28-2.15-1.39-1.43-2.19-3.53t-.8-4.87q0-2.15.7-4.05.69-1.89 2-3.3 1.3-1.4 3.17-2.22 1.88-.82 4.24-.82 1.99 0 3.67.63 1.68.64 2.89 1.86t1.89 2.99q.69 1.78.69 4.05 0 1.15-.25 1.55-.24.4-.94.4m16.09 4.45v-3.55q-2.19.1-3.69.38-1.49.28-2.4.71-.9.43-1.29 1-.39.58-.39 1.25 0 1.33.79 1.91.79.57 2.06.57 1.56 0 2.7-.56t2.22-1.71m-10.7-11.05-.9-1.62q3.63-3.32 8.73-3.32 1.85 0 3.3.6 1.46.61 2.46 1.68 1.01 1.08 1.53 2.58.52 1.49.52 3.28v13.28h-2.29q-.72 0-1.11-.22-.39-.21-.61-.87l-.46-1.51q-.79.71-1.55 1.26-.76.54-1.58.91t-1.75.56q-.94.2-2.06.2-1.34 0-2.46-.36-1.13-.36-1.95-1.08-.82-.71-1.27-1.78t-.45-2.48q0-.8.26-1.59.27-.79.87-1.51.61-.71 1.57-1.35.97-.64 2.37-1.11t3.27-.77q1.86-.29 4.26-.35v-1.23q0-2.12-.9-3.13-.9-1.02-2.6-1.02-1.23 0-2.04.29t-1.43.65q-.61.36-1.11.64-.51.29-1.12.29-.53 0-.9-.28-.37-.27-.6-.64m27.41 16.81q-2.75 0-4.21-1.55-1.47-1.55-1.47-4.27v-11.75h-2.15q-.41 0-.7-.27-.28-.26-.28-.8v-2.01l3.38-.55 1.06-5.74q.11-.41.39-.63.29-.23.74-.23h2.63v6.62h5.61v3.61h-5.61v11.4q0 .98.48 1.53.48.56 1.32.56.47 0 .79-.11.32-.12.55-.24.24-.12.42-.24.19-.11.37-.11.23 0 .37.11.14.12.31.34l1.52 2.46q-1.11.93-2.55 1.4-1.43.47-2.97.47m8.41-21.36h5.08v21.03h-5.08zm5.78-6.13q0 .65-.27 1.23-.27.57-.71 1t-1.03.69q-.6.26-1.27.26-.66 0-1.24-.26-.59-.26-1.02-.69t-.68-1q-.26-.58-.26-1.23 0-.68.26-1.27.25-.6.68-1.03t1.02-.69q.58-.25 1.24-.25.67 0 1.27.25.59.26 1.03.69t.71 1.03q.27.59.27 1.27m13.77 5.8q2.34 0 4.26.76 1.91.76 3.28 2.15 1.36 1.39 2.1 3.4t.74 4.49q0 2.5-.74 4.51t-2.1 3.43q-1.37 1.41-3.28 2.17-1.92.76-4.26.76-2.35 0-4.28-.76t-3.29-2.17q-1.36-1.42-2.11-3.43t-.75-4.51q0-2.48.75-4.49t2.11-3.4 3.29-2.15 4.28-.76m0 17.77q2.63 0 3.89-1.76t1.26-5.17q0-3.4-1.26-5.18-1.26-1.79-3.89-1.79-2.66 0-3.94 1.8-1.28 1.79-1.28 5.17 0 3.39 1.28 5.16t3.94 1.77m18.64-16.52.35 1.66q.63-.64 1.34-1.18t1.5-.92q.78-.38 1.69-.6.9-.21 1.96-.21 1.73 0 3.06.58 1.33.59 2.22 1.64.9 1.06 1.36 2.52.46 1.47.46 3.23v13.39h-5.07v-13.39q0-1.92-.88-2.98t-2.68-1.06q-1.31 0-2.46.6-1.15.59-2.18 1.62v15.21h-5.06V190.5h3.1q.98 0 1.29.92m29.85 14.68v-3.55q-2.2.1-3.69.38-1.5.28-2.4.71t-1.29 1q-.39.58-.39 1.25 0 1.33.79 1.91.78.57 2.06.57 1.55 0 2.69-.56t2.23-1.71m-10.71-11.05-.9-1.62q3.63-3.32 8.74-3.32 1.84 0 3.3.6 1.45.61 2.46 1.68 1 1.08 1.52 2.58.53 1.49.53 3.28v13.28h-2.3q-.72 0-1.11-.22-.39-.21-.61-.87l-.45-1.51q-.8.71-1.56 1.26-.76.54-1.58.91t-1.75.56q-.93.2-2.06.2-1.33 0-2.46-.36t-1.95-1.08q-.82-.71-1.27-1.78t-.45-2.48q0-.8.26-1.59.27-.79.88-1.51.6-.71 1.56-1.35.97-.64 2.37-1.11 1.41-.47 3.27-.77 1.87-.29 4.27-.35v-1.23q0-2.12-.91-3.13-.9-1.02-2.6-1.02-1.23 0-2.04.29t-1.42.65q-.62.36-1.12.64-.5.29-1.12.29-.53 0-.9-.28-.37-.27-.6-.64m20.46-13.98h5.07v30.46h-5.07zm39.59 5.2h-13.16v8.78h11.11v4.41h-11.11v12.07h-5.54v-29.64h18.7zm3.77-5.2h5.06v30.46h-5.06zm10.29 9.43h5.09v21.03h-5.09zm5.78-6.13q0 .65-.26 1.23-.27.57-.71 1t-1.04.69q-.59.26-1.27.26-.65 0-1.24-.26-.58-.26-1.01-.69t-.69-1q-.25-.58-.25-1.23 0-.68.25-1.27.26-.6.69-1.03t1.01-.69q.59-.25 1.24-.25.68 0 1.27.25.6.26 1.04.69t.71 1.03q.26.59.26 1.27m12.16 16.13q.94 0 1.64-.26.7-.25 1.16-.7t.69-1.09q.24-.63.24-1.39 0-1.56-.93-2.47-.93-.92-2.8-.92t-2.8.92q-.93.91-.93 2.47 0 .73.23 1.37.24.64.7 1.1t1.17.71q.71.26 1.63.26m5.72 11.97q0-.61-.37-1t-1-.61q-.64-.21-1.49-.31-.85-.11-1.8-.16-.96-.05-1.97-.09-1.02-.04-1.98-.16-.84.47-1.36 1.1-.53.64-.53 1.48 0 .55.28 1.03.28.49.88.83.61.35 1.57.55.96.19 2.36.19 1.41 0 2.44-.21 1.02-.22 1.69-.6.66-.38.97-.9t.31-1.14m-1.01-21.26h6.05v1.89q0 .9-1.08 1.11l-1.89.35q.43 1.08.43 2.37 0 1.56-.63 2.82-.62 1.26-1.73 2.15-1.1.88-2.61 1.36t-3.25.48q-.62 0-1.19-.06t-1.13-.17q-.98.6-.98 1.34 0 .63.58.93.59.3 1.55.42t2.19.15 2.53.14q1.29.1 2.52.36 1.23.25 2.19.81.96.55 1.55 1.5.58.96.58 2.45 0 1.4-.68 2.71-.69 1.31-1.99 2.34-1.3 1.02-3.2 1.65-1.9.62-4.32.62-2.37 0-4.14-.46-1.76-.46-2.93-1.23t-1.74-1.77q-.57-1.01-.57-2.1 0-1.47.89-2.47.89-.99 2.45-1.58-.84-.43-1.34-1.15-.49-.72-.49-1.89 0-.47.18-.97.17-.5.51-1 .34-.49.85-.93t1.21-.79q-1.6-.86-2.51-2.29-.91-1.44-.91-3.37 0-1.55.62-2.81.63-1.27 1.74-2.16 1.12-.89 2.65-1.36t3.33-.47q1.35 0 2.54.27 1.19.28 2.17.81m14.31-10.14v11.68q1.23-1.15 2.71-1.86 1.48-.72 3.46-.72 1.73 0 3.06.58 1.33.59 2.22 1.64.89 1.06 1.36 2.52.46 1.47.46 3.23v13.39h-5.07v-13.39q0-1.92-.88-2.98t-2.68-1.06q-1.32 0-2.46.6-1.15.59-2.18 1.62v15.21h-5.06v-30.46zm25.08 30.79q-2.75 0-4.22-1.55-1.46-1.55-1.46-4.27v-11.75h-2.16q-.41 0-.69-.27-.29-.26-.29-.8v-2.01l3.38-.55 1.07-5.74q.1-.41.39-.63.29-.23.74-.23h2.62v6.62h5.62v3.61h-5.62v11.4q0 .98.48 1.53.48.56 1.32.56.48 0 .79-.11.32-.12.56-.24.23-.12.42-.24.18-.11.37-.11.22 0 .37.11.14.12.3.34l1.52 2.46q-1.11.93-2.54 1.4-1.44.47-2.97.47m22.22-19.09-1.15 1.83q-.21.32-.43.46-.23.13-.58.13-.36 0-.78-.2-.42-.21-.98-.46-.55-.26-1.26-.47-.71-.2-1.67-.2-1.5 0-2.35.63-.85.64-.85 1.66 0 .68.44 1.14t1.17.81 1.65.63q.92.27 1.88.6.95.33 1.87.75.93.42 1.65 1.07.73.64 1.17 1.54.44.91.44 2.18 0 1.51-.54 2.8-.54 1.28-1.61 2.21t-2.63 1.46q-1.57.52-3.62.52-1.09 0-2.12-.2-1.04-.19-1.99-.54-.96-.35-1.77-.82t-1.42-1.02l1.17-1.93q.22-.35.53-.53.31-.19.78-.19t.89.27q.42.26.98.57.55.31 1.3.57.75.27 1.89.27.91 0 1.55-.21.65-.22 1.07-.57t.61-.81q.2-.46.2-.95 0-.74-.44-1.21t-1.17-.82-1.66-.63q-.94-.27-1.91-.6t-1.91-.77q-.93-.44-1.66-1.12-.72-.67-1.16-1.66-.45-.98-.45-2.37 0-1.3.52-2.46.51-1.17 1.5-2.04 1-.88 2.48-1.4 1.49-.52 3.44-.52 2.17 0 3.95.72 1.79.71 2.98 1.88"/></svg>