<svg xmlns="http://www.w3.org/2000/svg" width="600" height="400" viewBox="0 0 600 400"><rect width="100%" height="100%" fill="#0000FF"/><path fill="#FFFFFF" d="m145.635 180.565-1.74 3.3q-.31.55-.66.79-.35.25-.87.25-.55 0-1.19-.4-.63-.4-1.52-.9-.88-.49-2.06-.9-1.19-.4-2.8-.4-1.45 0-2.55.35-1.09.35-1.83.98-.74.62-1.1 1.49-.37.87-.37 1.91 0 1.33.74 2.21.74.89 1.97 1.51 1.22.63 2.78 1.12t3.2 1.05q1.63.56 3.19 1.3t2.79 1.87q1.22 1.14 1.96 2.77.74 1.64.74 3.98 0 2.55-.87 4.77-.87 2.23-2.55 3.88t-4.09 2.6q-2.42.95-5.54.95-1.8 0-3.54-.35-1.74-.36-3.34-1.01t-3-1.56q-1.41-.91-2.5-2.02l2.06-3.36q.26-.36.67-.61.42-.25.89-.25.65 0 1.4.54.75.53 1.79 1.18t2.43 1.18q1.4.54 3.35.54 2.99 0 4.62-1.42 1.64-1.42 1.64-4.07 0-1.48-.74-2.42-.74-.93-1.96-1.57t-2.78-1.08-3.18-.96q-1.61-.52-3.17-1.25t-2.78-1.9-1.96-2.92q-.74-1.76-.74-4.33 0-2.06.81-4.01.82-1.95 2.38-3.45 1.56-1.51 3.85-2.42t5.25-.91q3.33 0 6.14 1.04t4.78 2.91m19.84 27.17v-4.5q-2.78.13-4.68.48t-3.04.9-1.64 1.27q-.49.73-.49 1.59 0 1.69 1 2.42t2.61.73q1.98 0 3.42-.72 1.44-.71 2.82-2.17m-13.57-14.01-1.14-2.06q4.6-4.21 11.07-4.21 2.34 0 4.19.77 1.84.76 3.12 2.13 1.27 1.36 1.93 3.26.67 1.9.67 4.16v16.85h-2.91q-.91 0-1.41-.27-.49-.28-.78-1.11l-.57-1.92q-1.01.91-1.98 1.6-.96.69-2 1.15-1.04.47-2.22.72t-2.61.25q-1.69 0-3.12-.46-1.43-.45-2.47-1.36t-1.62-2.27q-.57-1.35-.57-3.14 0-1.02.34-2.02t1.1-1.91q.77-.91 1.99-1.71 1.23-.81 3.01-1.41t4.14-.97q2.37-.38 5.41-.46v-1.56q0-2.68-1.14-3.96-1.15-1.29-3.3-1.29-1.56 0-2.59.36-1.03.37-1.81.82-.78.46-1.42.82-.63.37-1.41.37-.68 0-1.15-.36-.46-.35-.75-.81m34.16 20.9h-6.42v-21.84l-2.31-.36q-.76-.16-1.21-.54-.46-.37-.46-1.08v-2.62h3.98v-1.98q0-2.29.69-4.11t1.98-3.09q1.28-1.27 3.13-1.95t4.16-.68q1.85 0 3.43.5l-.13 3.22q-.02.37-.21.59-.18.22-.48.33-.3.12-.69.16t-.83.04q-1.14 0-2.04.25-.9.24-1.52.86-.62.61-.95 1.61-.32 1-.32 2.48v1.77h6.94v4.57h-6.74zm24.44-6.89v-4.5q-2.78.13-4.68.48-1.89.35-3.04.9-1.14.55-1.64 1.27-.49.73-.49 1.59 0 1.69 1 2.42t2.61.73q1.98 0 3.42-.72 1.45-.71 2.82-2.17m-13.57-14.01-1.14-2.06q4.6-4.21 11.07-4.21 2.34 0 4.19.77 1.85.76 3.12 2.13 1.27 1.36 1.94 3.26.66 1.9.66 4.16v16.85h-2.91q-.91 0-1.41-.27-.49-.28-.78-1.11l-.57-1.92q-1.01.91-1.97 1.6-.97.69-2.01 1.15-1.04.47-2.22.72t-2.61.25q-1.69 0-3.12-.46-1.43-.45-2.47-1.36t-1.61-2.27q-.58-1.35-.58-3.14 0-1.02.34-2.02t1.11-1.91q.76-.91 1.99-1.71 1.22-.81 3-1.41t4.15-.97q2.36-.38 5.4-.46v-1.56q0-2.68-1.14-3.96-1.14-1.29-3.3-1.29-1.56 0-2.59.36-1.03.37-1.81.82-.78.46-1.41.82-.64.37-1.42.37-.68 0-1.14-.36-.47-.35-.76-.81m31.54-4.16.39 3.01q1.25-2.39 2.96-3.76 1.72-1.36 4.06-1.36 1.85 0 2.96.81l-.41 4.81q-.13.46-.38.66-.25.19-.66.19-.39 0-1.16-.13t-1.49-.13q-1.07 0-1.9.32-.83.31-1.5.89-.66.59-1.17 1.42-.5.83-.95 1.9v16.43h-6.42v-26.68h3.77q.99 0 1.38.35.39.36.52 1.27m13.94-1.62h6.44v26.68h-6.44zm7.33-7.77q0 .83-.34 1.56t-.9 1.27q-.56.55-1.31.87-.75.33-1.61.33-.83 0-1.58-.33-.74-.32-1.28-.87-.55-.54-.87-1.27-.33-.73-.33-1.56 0-.86.33-1.61.32-.76.87-1.3.54-.55 1.28-.87.75-.33 1.58-.33.86 0 1.61.33.75.32 1.31.87.56.54.9 1.3.34.75.34 1.61m26.31 15.76h5.23q1.92 0 3.35-.49 1.43-.48 2.38-1.37.95-.9 1.42-2.19.46-1.28.46-2.87 0-1.51-.46-2.73-.47-1.22-1.41-2.08-.93-.86-2.36-1.31-1.43-.46-3.38-.46h-5.23zm-6.99-18.91h12.22q3.77 0 6.52.89 2.76.88 4.55 2.47 1.8 1.58 2.67 3.79t.87 4.84q0 2.73-.91 5-.91 2.28-2.73 3.92t-4.57 2.55q-2.74.91-6.4.91h-5.23v13.23h-6.99zm45.26 30.71v-4.5q-2.78.13-4.68.48t-3.04.9-1.64 1.27q-.49.73-.49 1.59 0 1.69 1 2.42t2.61.73q1.98 0 3.42-.72 1.44-.71 2.82-2.17m-13.57-14.01-1.14-2.06q4.6-4.21 11.07-4.21 2.34 0 4.19.77 1.84.76 3.12 2.13 1.27 1.36 1.93 3.26.67 1.9.67 4.16v16.85h-2.91q-.91 0-1.41-.27-.49-.28-.78-1.11l-.57-1.92q-1.01.91-1.98 1.6-.96.69-2 1.15-1.04.47-2.22.72t-2.61.25q-1.69 0-3.12-.46-1.43-.45-2.47-1.36t-1.62-2.27q-.57-1.35-.57-3.14 0-1.02.34-2.02t1.1-1.91q.77-.91 1.99-1.71 1.23-.81 3.01-1.41t4.14-.97q2.37-.38 5.41-.46v-1.56q0-2.68-1.14-3.96-1.15-1.29-3.3-1.29-1.56 0-2.59.36-1.03.37-1.81.82-.78.46-1.42.82-.63.37-1.41.37-.68 0-1.15-.36-.46-.35-.75-.81m46.67-2.47-1.69 2.34q-.29.36-.56.57t-.79.21q-.5 0-.96-.3-.47-.3-1.12-.68t-1.55-.68q-.9-.29-2.22-.29-1.69 0-2.97.61-1.27.61-2.12 1.75-.84 1.15-1.26 2.77-.41 1.63-.41 3.68 0 2.13.45 3.8.46 1.66 1.32 2.79.85 1.13 2.08 1.72 1.22.58 2.75.58 1.54 0 2.49-.38.94-.37 1.59-.83.65-.45 1.13-.83.49-.38 1.08-.38.78 0 1.17.6l1.85 2.34q-1.07 1.25-2.31 2.09-1.25.85-2.59 1.36-1.34.5-2.76.71-1.41.21-2.82.21-2.47 0-4.65-.92-2.19-.93-3.82-2.69-1.64-1.77-2.59-4.33t-.95-5.84q0-2.94.84-5.45.85-2.51 2.49-4.34t4.05-2.87q2.42-1.04 5.57-1.04 2.99 0 5.24.96t4.04 2.76m4.26-15.27h6.43v22.13h1.19q.65 0 1.03-.17t.77-.69l6.63-8.19q.41-.54.92-.83t1.31-.29h5.88l-8.3 9.91q-.88 1.17-1.92 1.79.55.39.97.91.43.52.82 1.12l8.9 12.95h-5.8q-.76 0-1.3-.25-.55-.24-.91-.89l-6.81-10.12q-.37-.6-.76-.78t-1.17-.18h-1.45v12.22h-6.43zm41.89 31.75v-4.5q-2.78.13-4.68.48t-3.04.9q-1.15.55-1.64 1.27-.49.73-.49 1.59 0 1.69 1 2.42t2.61.73q1.98 0 3.42-.72 1.44-.71 2.82-2.17m-13.57-14.01-1.15-2.06q4.61-4.21 11.08-4.21 2.34 0 4.19.77 1.84.76 3.12 2.13 1.27 1.36 1.93 3.26.67 1.9.67 4.16v16.85h-2.92q-.91 0-1.4-.27-.49-.28-.78-1.11l-.57-1.92q-1.02.91-1.98 1.6t-2 1.15q-1.04.47-2.22.72-1.19.25-2.62.25-1.69 0-3.12-.46-1.43-.45-2.47-1.36t-1.61-2.27q-.57-1.35-.57-3.14 0-1.02.34-2.02t1.1-1.91q.77-.91 1.99-1.71 1.22-.81 3-1.41 1.79-.6 4.15-.97 2.37-.38 5.41-.46v-1.56q0-2.68-1.14-3.96-1.15-1.29-3.31-1.29-1.56 0-2.58.36-1.03.37-1.81.82-.78.46-1.42.82-.63.37-1.41.37-.68 0-1.15-.36-.47-.35-.75-.81m35.62 6.91q1.19 0 2.08-.32.88-.33 1.47-.9.58-.57.88-1.38.3-.8.3-1.77 0-1.97-1.18-3.13-1.19-1.16-3.55-1.16-2.37 0-3.55 1.16t-1.18 3.13q0 .94.29 1.75.3.8.89 1.39.58.58 1.48.91.9.32 2.07.32m7.25 15.19q0-.78-.47-1.28-.46-.49-1.27-.77-.81-.27-1.88-.4-1.08-.13-2.29-.19-1.21-.07-2.5-.12t-2.51-.21q-1.06.6-1.73 1.41-.66.8-.66 1.87 0 .7.35 1.31t1.12 1.05q.77.45 1.99.69 1.22.25 2.99.25 1.79 0 3.09-.27 1.3-.28 2.15-.76.84-.48 1.23-1.14t.39-1.44m-1.27-26.97h7.67v2.4q0 1.14-1.38 1.4l-2.39.44q.54 1.38.54 3.02 0 1.97-.79 3.57t-2.2 2.72q-1.4 1.12-3.31 1.73t-4.12.61q-.78 0-1.51-.08t-1.43-.21q-1.25.76-1.25 1.69 0 .81.74 1.19.74.37 1.97.53 1.22.16 2.78.19 1.56.04 3.2.17 1.63.13 3.19.46 1.56.32 2.79 1.03 1.22.7 1.96 1.91t.74 3.1q0 1.77-.87 3.44-.87 1.66-2.52 2.96t-4.06 2.09q-2.4.8-5.47.8-3.02 0-5.25-.59-2.24-.58-3.72-1.56-1.48-.97-2.21-2.25-.73-1.27-.73-2.65 0-1.87 1.13-3.13t3.11-2.02q-1.07-.54-1.69-1.45-.63-.91-.63-2.4 0-.59.22-1.23.23-.64.65-1.26.43-.63 1.08-1.19.65-.55 1.54-1-2.03-1.09-3.19-2.91-1.15-1.82-1.15-4.26 0-1.98.79-3.58t2.21-2.73 3.35-1.73q1.94-.59 4.23-.59 1.71 0 3.22.35t2.76 1.02m16.79 9.36h12.12q0-1.24-.35-2.35-.35-1.1-1.05-1.94-.71-.83-1.79-1.31-1.07-.48-2.5-.48-2.79 0-4.39 1.59-1.59 1.58-2.04 4.49m16.38 3.88h-16.51q.16 2.05.73 3.55.57 1.49 1.51 2.47.94.97 2.22 1.45 1.29.48 2.85.48t2.69-.36 1.98-.81q.84-.44 1.48-.8.64-.37 1.23-.37.81 0 1.2.6l1.85 2.34q-1.07 1.25-2.4 2.09-1.32.85-2.77 1.36-1.44.5-2.93.71-1.5.21-2.9.21-2.78 0-5.18-.92-2.39-.93-4.16-2.73-1.76-1.81-2.78-4.48-1.01-2.66-1.01-6.17 0-2.73.88-5.14.89-2.4 2.54-4.18t4.03-2.82 5.37-1.04q2.52 0 4.65.8 2.13.81 3.67 2.36 1.53 1.54 2.4 3.79t.87 5.14q0 1.45-.31 1.96t-1.2.51m24.05-11.26-1.45 2.31q-.26.42-.55.59-.28.17-.73.17-.46 0-1-.26-.53-.26-1.23-.59-.7-.32-1.6-.58t-2.12-.26q-1.9 0-2.98.8-1.08.81-1.08 2.11 0 .86.56 1.44.56.59 1.49 1.03.92.44 2.09.79t2.38.77 2.38.95 2.09 1.35 1.48 1.96q.56 1.15.56 2.76 0 1.92-.69 3.55-.69 1.62-2.04 2.81-1.35 1.18-3.34 1.84-1.99.67-4.59.67-1.38 0-2.69-.25t-2.52-.69-2.24-1.04-1.81-1.3l1.49-2.44q.28-.45.67-.68t.99-.23 1.13.33q.53.34 1.24.73.7.39 1.65.73t2.4.34q1.15 0 1.97-.28.81-.27 1.35-.71.53-.44.78-1.03.24-.58.24-1.21 0-.93-.56-1.53-.55-.6-1.48-1.04-.92-.44-2.1-.79-1.19-.35-2.42-.77-1.24-.42-2.42-.98-1.18-.55-2.11-1.41-.92-.86-1.48-2.11t-.56-3.01q0-1.64.65-3.12.65-1.49 1.92-2.59 1.26-1.11 3.14-1.77 1.89-.66 4.36-.66 2.75 0 5.01.91 2.27.91 3.77 2.39"/></svg>