<svg xmlns="http://www.w3.org/2000/svg" width="600" height="400" viewBox="0 0 600 400"><rect width="100%" height="100%" fill="#005ea2"/><path fill="#FFFFFF" d="M130.515 200.4h11.04l-4.23-11.55q-.31-.77-.65-1.82-.33-1.06-.67-2.28-.31 1.22-.65 2.29-.33 1.07-.64 1.86zm8.8-21.6 13.64 34.7h-5q-.84 0-1.36-.42-.53-.42-.8-1.04l-2.59-7.08h-14.37l-2.6 7.08q-.19.55-.74 1-.55.46-1.37.46h-5.04l13.66-34.7zm16.37-.96h5.93v35.66h-5.93zm11.93 0h5.93v35.66h-5.93zm12.05 11.04h5.95v24.62h-5.95zm6.77-7.18q0 .77-.32 1.44-.31.67-.82 1.18-.52.5-1.22.8-.69.3-1.48.3-.77 0-1.46-.3-.68-.3-1.18-.8-.51-.51-.81-1.18t-.3-1.44q0-.79.3-1.49.3-.69.81-1.2.5-.5 1.18-.8.69-.3 1.46-.3.79 0 1.48.3.7.3 1.22.8.51.51.82 1.2.32.7.32 1.49m18.24 25.44v-4.15q-2.57.12-4.32.44-1.76.33-2.81.83-1.06.5-1.51 1.18-.46.67-.46 1.46 0 1.56.92 2.23.93.67 2.42.67 1.82 0 3.15-.66t2.61-2m-12.53-12.94-1.06-1.89q4.25-3.89 10.23-3.89 2.16 0 3.86.71t2.88 1.97 1.79 3.01.61 3.84v15.55h-2.69q-.84 0-1.29-.25-.46-.25-.72-1.02l-.53-1.78q-.94.84-1.83 1.48-.88.63-1.84 1.07-.96.43-2.06.66-1.09.22-2.41.22-1.56 0-2.88-.42t-2.28-1.26-1.49-2.08q-.52-1.25-.52-2.91 0-.93.31-1.86.31-.92 1.02-1.76t1.83-1.59q1.13-.74 2.78-1.29 1.64-.55 3.82-.9 2.19-.35 5-.42v-1.44q0-2.47-1.06-3.66t-3.05-1.19q-1.44 0-2.39.34-.94.33-1.66.75t-1.31.76q-.59.33-1.31.33-.62 0-1.06-.32-.43-.32-.69-.76m29.01-4.24.41 1.94q.75-.74 1.57-1.38.83-.64 1.76-1.08.92-.44 1.98-.7 1.05-.25 2.3-.25 2.02 0 3.58.69 1.56.68 2.6 1.92 1.04 1.23 1.58 2.95.54 1.71.54 3.78v15.67h-5.92v-15.67q0-2.26-1.04-3.49-1.03-1.24-3.14-1.24-1.54 0-2.88.7-1.34.69-2.54 1.89v17.81h-5.93v-24.62h3.62q1.15 0 1.51 1.08m41.14 1.96-1.56 2.16q-.26.34-.52.53-.25.19-.73.19-.45 0-.89-.27-.43-.28-1.03-.63-.6-.34-1.43-.62-.82-.28-2.05-.28-1.56 0-2.73.57-1.18.56-1.96 1.62-.78 1.05-1.16 2.55-.39 1.5-.39 3.4 0 1.97.42 3.5.42 1.54 1.21 2.58.8 1.05 1.92 1.59 1.13.54 2.55.54 1.41 0 2.29-.35t1.48-.77 1.04-.77q.44-.34 1-.34.72 0 1.08.55l1.7 2.16q-.98 1.15-2.14 1.93-1.15.78-2.38 1.25-1.24.47-2.55.66t-2.6.19q-2.28 0-4.3-.85-2.01-.85-3.53-2.49-1.51-1.63-2.38-3.99-.88-2.37-.88-5.39 0-2.71.78-5.03.78-2.31 2.29-4.01 1.51-1.69 3.75-2.65 2.23-.96 5.13-.96 2.76 0 4.84.89 2.07.89 3.73 2.54m8.62 6.44h11.18q0-1.16-.32-2.18-.33-1.02-.98-1.78-.64-.77-1.64-1.22-1-.44-2.32-.44-2.56 0-4.04 1.46-1.48 1.47-1.88 4.16m15.12 3.57h-15.24q.14 1.9.67 3.28t1.39 2.28 2.05 1.34q1.19.45 2.63.45t2.48-.34q1.05-.34 1.83-.74.78-.41 1.37-.75.58-.33 1.14-.33.74 0 1.1.55l1.7 2.16q-.98 1.15-2.2 1.93-1.23.78-2.56 1.25t-2.71.66-2.68.19q-2.57 0-4.77-.85-2.21-.85-3.84-2.52-1.64-1.67-2.57-4.13-.94-2.46-.94-5.7 0-2.52.82-4.74.81-2.22 2.34-3.86 1.52-1.65 3.72-2.61 2.19-.96 4.95-.96 2.33 0 4.3.75 1.97.74 3.38 2.17 1.42 1.43 2.22 3.5.81 2.08.81 4.74 0 1.35-.29 1.81-.29.47-1.1.47m24.88-5.69h4.83q1.77 0 3.09-.44t2.2-1.27 1.31-2.02.43-2.65q0-1.39-.43-2.52t-1.3-1.92q-.86-.79-2.18-1.21t-3.12-.42h-4.83zm-6.45-17.44h11.28q3.48 0 6.02.81 2.55.82 4.2 2.28 1.66 1.47 2.46 3.51.81 2.04.81 4.46 0 2.52-.84 4.62t-2.52 3.61-4.22 2.35q-2.53.84-5.91.84h-4.83v12.22h-6.45zm34.01 11.56.36 2.79q1.15-2.21 2.73-3.47 1.59-1.26 3.75-1.26 1.7 0 2.73.74l-.38 4.44q-.12.44-.35.62t-.61.18q-.36 0-1.07-.12t-1.38-.12q-.98 0-1.75.28-.77.29-1.38.83t-1.08 1.31-.88 1.75v15.17h-5.93v-24.62h3.48q.92 0 1.28.32t.48 1.16m23.56-1.87q2.74 0 4.98.89 2.25.89 3.84 2.52 1.6 1.63 2.46 3.98.87 2.36.87 5.26 0 2.93-.87 5.28-.86 2.35-2.46 4.01-1.59 1.65-3.84 2.54-2.24.89-4.98.89-2.76 0-5.01-.89-2.26-.89-3.85-2.54-1.6-1.66-2.48-4.01-.87-2.35-.87-5.28 0-2.9.87-5.26.88-2.35 2.48-3.98 1.59-1.63 3.85-2.52 2.25-.89 5.01-.89m0 20.81q3.08 0 4.55-2.06 1.48-2.07 1.48-6.05 0-3.99-1.48-6.07-1.47-2.09-4.55-2.09-3.12 0-4.62 2.1t-1.5 6.06 1.5 6.03q1.5 2.08 4.62 2.08m25.68-8.71q1.11 0 1.92-.3.82-.3 1.36-.83t.82-1.27q.27-.75.27-1.63 0-1.83-1.09-2.9-1.09-1.06-3.28-1.06-2.18 0-3.27 1.06-1.09 1.07-1.09 2.9 0 .86.27 1.6.28.75.82 1.29t1.37.84q.82.3 1.9.3m6.7 14.01q0-.72-.43-1.17-.43-.46-1.18-.71-.74-.25-1.74-.37-.99-.12-2.11-.18t-2.3-.11q-1.19-.05-2.32-.19-.98.55-1.6 1.29-.61.75-.61 1.73 0 .65.33 1.21.32.57 1.03.98.71.4 1.83.63 1.13.23 2.76.23 1.66 0 2.86-.25t1.98-.7q.78-.44 1.14-1.05.36-.62.36-1.34m-1.18-24.88h7.08v2.2q0 1.06-1.27 1.3l-2.21.41q.51 1.27.51 2.78 0 1.83-.73 3.3-.74 1.48-2.03 2.51-1.3 1.03-3.06 1.6-1.77.56-3.81.56-.72 0-1.39-.07t-1.32-.19q-1.15.69-1.15 1.56 0 .74.68 1.09.69.35 1.82.49 1.12.14 2.56.18t2.96.16q1.51.12 2.95.42t2.57.94q1.12.65 1.81 1.77.68 1.11.68 2.87 0 1.63-.8 3.16-.81 1.54-2.33 2.74t-3.74 1.93-5.06.73q-2.78 0-4.84-.54-2.07-.54-3.44-1.44-1.36-.9-2.04-2.07-.67-1.18-.67-2.45 0-1.73 1.05-2.89 1.04-1.17 2.86-1.86-.98-.51-1.56-1.35-.57-.84-.57-2.2 0-.56.2-1.14.21-.59.6-1.17.4-.57 1-1.09t1.41-.92q-1.87-1.01-2.94-2.69-1.06-1.68-1.06-3.94 0-1.82.73-3.3.73-1.47 2.04-2.52 1.31-1.04 3.09-1.59 1.79-.56 3.9-.56 1.59 0 2.98.33 1.39.32 2.54.95m16.06.64.36 2.79q1.15-2.21 2.74-3.47 1.58-1.26 3.74-1.26 1.7 0 2.74.74l-.39 4.44q-.12.44-.35.62-.22.18-.61.18-.36 0-1.07-.12-.7-.12-1.38-.12-.98 0-1.75.28-.77.29-1.38.83t-1.08 1.31-.87 1.75v15.17h-5.93v-24.62h3.48q.91 0 1.27.32t.48 1.16m25.68 16.78v-4.15q-2.57.12-4.32.44-1.75.33-2.81.83-1.05.5-1.51 1.18-.46.67-.46 1.46 0 1.56.93 2.23.92.67 2.41.67 1.82 0 3.16-.66 1.33-.66 2.6-2m-12.53-12.94-1.05-1.89q4.24-3.89 10.22-3.89 2.16 0 3.86.71 1.71.71 2.88 1.97 1.18 1.26 1.79 3.01t.61 3.84v15.55h-2.68q-.84 0-1.3-.25t-.72-1.02l-.53-1.78q-.93.84-1.82 1.48-.89.63-1.85 1.07-.96.43-2.05.66-1.09.22-2.41.22-1.56 0-2.88-.42t-2.28-1.26-1.49-2.08q-.53-1.25-.53-2.91 0-.93.31-1.86.31-.92 1.02-1.76t1.84-1.59q1.13-.74 2.77-1.29t3.83-.9q2.18-.35 4.99-.42v-1.44q0-2.47-1.06-3.66-1.05-1.19-3.04-1.19-1.44 0-2.39.34-.95.33-1.67.75t-1.31.76q-.59.33-1.31.33-.62 0-1.05-.32t-.7-.76m29.81 19.3h-5.93v-24.62h3.63q1.15 0 1.51 1.08l.38 1.82q.65-.72 1.36-1.32t1.51-1.03 1.73-.69q.92-.25 2.03-.25 2.32 0 3.82 1.26t2.25 3.35q.57-1.22 1.44-2.1.86-.88 1.89-1.43 1.04-.55 2.2-.81 1.16-.27 2.34-.27 2.04 0 3.62.63 1.59.62 2.67 1.82t1.64 2.93q.57 1.73.57 3.96v15.67h-5.93v-15.67q0-2.35-1.03-3.54-1.04-1.19-3.03-1.19-.91 0-1.69.31t-1.37.9-.92 1.48q-.34.89-.34 2.04v15.67h-5.95v-15.67q0-2.47-1-3.6-.99-1.13-2.91-1.13-1.3 0-2.41.64-1.12.63-2.08 1.74z"/></svg>