<svg xmlns="http://www.w3.org/2000/svg" width="600" height="400" viewBox="0 0 600 400"><rect width="100%" height="100%" fill="#005ea2"/><path fill="#FFFFFF" d="M126.27 208.34h6.66q1.84 0 3.09-.44t2-1.17q.75-.74 1.08-1.72t.33-2.08q0-1.15-.37-2.07t-1.15-1.57q-.79-.65-2.02-.99-1.24-.34-2.98-.34h-6.64zm5.61-25.18h-5.61v10.24h5.24q3.38 0 5.11-1.23 1.73-1.22 1.73-3.89 0-2.77-1.57-3.95-1.57-1.17-4.9-1.17m-12.2-5.1h12.2q3.48 0 5.95.66 2.48.67 4.06 1.89 1.58 1.23 2.31 2.97.74 1.73.74 3.92 0 1.24-.37 2.38t-1.14 2.14q-.77.99-1.96 1.8-1.19.8-2.83 1.37 7.3 1.64 7.3 7.89 0 2.25-.85 4.16-.86 1.91-2.5 3.3-1.64 1.38-4.04 2.17-2.41.78-5.49.78h-13.38zM164.27 207v-4.24q-2.62.12-4.41.45t-2.87.85q-1.07.51-1.54 1.2-.47.68-.47 1.49 0 1.59.95 2.28.94.69 2.46.69 1.86 0 3.22-.68 1.36-.67 2.66-2.04m-12.79-13.21-1.08-1.93q4.34-3.97 10.44-3.97 2.21 0 3.94.72 1.74.72 2.94 2.01 1.21 1.29 1.83 3.07.62 1.79.62 3.92v15.88h-2.74q-.86 0-1.32-.26-.47-.25-.74-1.04l-.54-1.81q-.95.86-1.86 1.51-.9.64-1.88 1.09-.98.44-2.1.67-1.11.23-2.46.23-1.59 0-2.94-.43t-2.33-1.28q-.98-.86-1.52-2.13-.54-1.28-.54-2.97 0-.95.32-1.9.32-.94 1.04-1.8.73-.86 1.88-1.62t2.83-1.32q1.67-.56 3.9-.92 2.23-.35 5.1-.43v-1.47q0-2.52-1.08-3.73t-3.11-1.21q-1.47 0-2.44.34-.96.34-1.7.77-.73.43-1.33.77-.61.34-1.34.34-.64 0-1.08-.33t-.71-.77m33.57 6.52q1.12 0 1.96-.31.83-.3 1.38-.84t.83-1.3q.29-.76.29-1.67 0-1.86-1.12-2.95-1.11-1.09-3.34-1.09t-3.35 1.09q-1.11 1.09-1.11 2.95 0 .89.28 1.64.28.76.83 1.32.55.55 1.4.85.84.31 1.95.31m6.83 14.31q0-.74-.44-1.2-.44-.47-1.2-.73-.76-.25-1.78-.38-1.01-.12-2.15-.18t-2.35-.11q-1.22-.05-2.37-.2-1 .57-1.63 1.33-.62.76-.62 1.76 0 .66.33 1.24.33.57 1.05.99t1.88.65q1.15.23 2.81.23 1.69 0 2.92-.25 1.22-.26 2.02-.72.8-.45 1.16-1.07.37-.63.37-1.36m-1.2-25.41h7.23v2.25q0 1.08-1.3 1.33l-2.25.41q.51 1.3.51 2.85 0 1.86-.75 3.36-.74 1.51-2.07 2.56-1.32 1.06-3.12 1.63-1.8.58-3.88.58-.74 0-1.42-.07-.69-.08-1.35-.2-1.18.71-1.18 1.59 0 .76.7 1.12.7.35 1.85.5t2.62.18q1.47.04 3.01.16 1.55.13 3.02.43 1.47.31 2.62.97t1.85 1.8.7 2.93q0 1.66-.82 3.23t-2.38 2.8q-1.56 1.22-3.82 1.97-2.27.74-5.16.74-2.84 0-4.95-.55-2.1-.55-3.5-1.47t-2.08-2.12q-.69-1.2-.69-2.49 0-1.77 1.07-2.96 1.06-1.19 2.92-1.9-1-.51-1.59-1.37t-.59-2.25q0-.57.21-1.17t.61-1.18q.41-.59 1.02-1.12t1.45-.94q-1.91-1.03-3-2.75-1.1-1.71-1.1-4.01 0-1.87.75-3.37.75-1.51 2.08-2.58 1.34-1.06 3.17-1.62 1.82-.57 3.98-.57 1.61 0 3.03.33 1.43.33 2.6.97m20.24 11.1q1.13 0 1.96-.31.83-.3 1.38-.84t.84-1.3q.28-.76.28-1.67 0-1.86-1.12-2.95-1.11-1.09-3.34-1.09t-3.35 1.09q-1.11 1.09-1.11 2.95 0 .89.28 1.64.28.76.83 1.32.56.55 1.4.85.85.31 1.95.31m6.83 14.31q0-.74-.44-1.2-.44-.47-1.2-.73-.76-.25-1.77-.38-1.02-.12-2.16-.18t-2.35-.11-2.37-.2q-1 .57-1.63 1.33-.62.76-.62 1.76 0 .66.33 1.24.33.57 1.05.99.73.42 1.88.65t2.82.23q1.69 0 2.91-.25 1.23-.26 2.02-.72.8-.45 1.17-1.07.36-.63.36-1.36m-1.2-25.41h7.23v2.25q0 1.08-1.3 1.33l-2.25.41q.51 1.3.51 2.85 0 1.86-.74 3.36-.75 1.51-2.07 2.56-1.33 1.06-3.13 1.63-1.8.58-3.88.58-.74 0-1.42-.07-.69-.08-1.35-.2-1.18.71-1.18 1.59 0 .76.7 1.12.7.35 1.85.5t2.62.18q1.47.04 3.02.16 1.54.13 3.01.43 1.47.31 2.62.97t1.85 1.8.7 2.93q0 1.66-.82 3.23t-2.38 2.8q-1.55 1.22-3.82 1.97-2.27.74-5.16.74-2.84 0-4.95-.55-2.1-.55-3.5-1.47t-2.08-2.12q-.69-1.2-.69-2.49 0-1.77 1.07-2.96 1.06-1.19 2.93-1.9-1.01-.51-1.6-1.37-.58-.86-.58-2.25 0-.57.2-1.17.21-.6.62-1.18.4-.59 1.01-1.12.62-.53 1.45-.94-1.91-1.03-3-2.75-1.09-1.71-1.09-4.01 0-1.87.74-3.37.75-1.51 2.09-2.58 1.33-1.06 3.16-1.62 1.82-.57 3.98-.57 1.62 0 3.04.33t2.59.97M240.88 207v-4.24q-2.62.12-4.41.45t-2.86.85q-1.08.51-1.55 1.2-.46.68-.46 1.49 0 1.59.94 2.28t2.46.69q1.86 0 3.22-.68 1.36-.67 2.66-2.04m-12.79-13.21-1.08-1.93q4.34-3.97 10.44-3.97 2.21 0 3.95.72t2.94 2.01 1.82 3.07q.63 1.79.63 3.92v15.88h-2.75q-.86 0-1.32-.26-.47-.25-.74-1.04l-.53-1.81q-.96.86-1.87 1.51-.9.64-1.88 1.09-.98.44-2.1.67-1.11.23-2.46.23-1.59 0-2.94-.43t-2.33-1.28q-.98-.86-1.52-2.13-.54-1.28-.54-2.97 0-.95.32-1.9.32-.94 1.04-1.8.73-.86 1.88-1.62t2.83-1.32 3.91-.92q2.23-.35 5.09-.43v-1.47q0-2.52-1.08-3.73-1.07-1.21-3.11-1.21-1.47 0-2.44.34-.96.34-1.7.77-.73.43-1.33.77t-1.34.34q-.64 0-1.08-.33t-.71-.77m33.57 6.52q1.12 0 1.96-.31.83-.3 1.38-.84t.84-1.3q.28-.76.28-1.67 0-1.86-1.12-2.95-1.11-1.09-3.34-1.09t-3.35 1.09q-1.11 1.09-1.11 2.95 0 .89.28 1.64.28.76.83 1.32.55.55 1.4.85.85.31 1.95.31m6.83 14.31q0-.74-.44-1.2-.44-.47-1.2-.73-.76-.25-1.77-.38-1.02-.12-2.16-.18t-2.35-.11q-1.22-.05-2.37-.2-1 .57-1.63 1.33-.62.76-.62 1.76 0 .66.33 1.24.33.57 1.05.99.73.42 1.88.65t2.82.23q1.69 0 2.91-.25 1.23-.26 2.02-.72.8-.45 1.17-1.07.36-.63.36-1.36m-1.2-25.41h7.23v2.25q0 1.08-1.3 1.33l-2.25.41q.51 1.3.51 2.85 0 1.86-.74 3.36-.75 1.51-2.08 2.56-1.32 1.06-3.12 1.63-1.8.58-3.88.58-.74 0-1.42-.07-.69-.08-1.35-.2-1.18.71-1.18 1.59 0 .76.7 1.12.7.35 1.85.5t2.62.18q1.47.04 3.02.16 1.54.13 3.01.43 1.47.31 2.62.97t1.85 1.8.7 2.93q0 1.66-.82 3.23t-2.38 2.8q-1.55 1.22-3.82 1.97-2.27.74-5.16.74-2.84 0-4.95-.55-2.1-.55-3.5-1.47t-2.08-2.12q-.69-1.2-.69-2.49 0-1.77 1.07-2.96 1.06-1.19 2.93-1.9-1.01-.51-1.6-1.37t-.59-2.25q0-.57.21-1.17t.62-1.18q.4-.59 1.01-1.12t1.45-.94q-1.91-1.03-3-2.75-1.09-1.71-1.09-4.01 0-1.87.74-3.37.75-1.51 2.09-2.58 1.33-1.06 3.16-1.62 1.82-.57 3.98-.57 1.61 0 3.04.33 1.42.33 2.59.97m15.83 8.82h11.42q0-1.18-.33-2.22t-1-1.82q-.66-.79-1.67-1.24-1.02-.45-2.37-.45-2.62 0-4.13 1.49-1.5 1.5-1.92 4.24m15.43 3.65H283q.14 1.94.68 3.35.54 1.4 1.42 2.32.89.92 2.1 1.37 1.21.46 2.68.46t2.54-.35q1.06-.34 1.86-.75.8-.42 1.4-.76.6-.35 1.16-.35.76 0 1.13.57l1.74 2.2q-1.01 1.18-2.26 1.97-1.25.8-2.61 1.28t-2.77.67q-1.4.2-2.73.2-2.62 0-4.87-.87-2.26-.87-3.92-2.57-1.67-1.71-2.62-4.22-.96-2.51-.96-5.82 0-2.57.83-4.84.84-2.26 2.39-3.94 1.56-1.68 3.8-2.66t5.06-.98q2.38 0 4.38.76 2.01.76 3.46 2.22 1.44 1.46 2.27 3.57.82 2.12.82 4.84 0 1.38-.3 1.85-.29.48-1.13.48m39.33-20.28-1.64 3.11q-.3.51-.63.74-.33.24-.82.24-.51 0-1.11-.38t-1.44-.85q-.83-.46-1.95-.84-1.11-.38-2.63-.38-1.37 0-2.4.33t-1.73.92q-.7.58-1.04 1.4-.34.83-.34 1.81 0 1.24.7 2.08.69.83 1.85 1.42 1.15.59 2.62 1.05 1.47.47 3.01.99 1.54.53 3.01 1.23t2.63 1.76q1.15 1.07 1.85 2.61.69 1.55.69 3.75 0 2.4-.82 4.5-.82 2.09-2.4 3.65-1.58 1.55-3.86 2.45-2.27.89-5.21.89-1.7 0-3.34-.33t-3.14-.94q-1.51-.61-2.83-1.47-1.33-.86-2.36-1.91l1.94-3.16q.24-.35.64-.58.39-.23.83-.23.61 0 1.32.5t1.69 1.11q.98.62 2.29 1.12t3.15.5q2.82 0 4.36-1.33 1.55-1.34 1.55-3.84 0-1.39-.7-2.28-.7-.88-1.85-1.48t-2.62-1.02q-1.47-.41-2.99-.9t-2.99-1.18q-1.47-.68-2.62-1.79-1.15-1.1-1.85-2.75-.7-1.66-.7-4.08 0-1.94.77-3.77.77-1.84 2.24-3.26t3.63-2.28q2.15-.86 4.95-.86 3.13 0 5.78.98t4.51 2.75m13.79 32.48q-3.28 0-5.03-1.85-1.76-1.85-1.76-5.11v-14.03h-2.57q-.49 0-.83-.32t-.34-.96v-2.4l4.04-.66 1.27-6.86q.12-.49.47-.76.34-.27.88-.27h3.14v7.91h6.71v4.32h-6.71v13.62q0 1.17.57 1.83.58.67 1.58.67.57 0 .95-.14.37-.13.66-.28.28-.15.5-.28.22-.14.44-.14.27 0 .44.14.17.13.37.4l1.81 2.94q-1.32 1.11-3.04 1.67-1.71.56-3.55.56m20.97-25.92q2.8 0 5.09.91 2.29.9 3.92 2.57t2.51 4.07.88 5.36q0 2.99-.88 5.39t-2.51 4.09-3.92 2.6-5.09.91q-2.81 0-5.12-.91-2.3-.91-3.93-2.6t-2.52-4.09q-.9-2.4-.9-5.39 0-2.96.9-5.36.89-2.4 2.52-4.07t3.93-2.57q2.31-.91 5.12-.91m0 21.24q3.14 0 4.65-2.1 1.5-2.11 1.5-6.18t-1.5-6.2q-1.51-2.13-4.65-2.13-3.18 0-4.71 2.15-1.53 2.14-1.53 6.18t1.53 6.16 4.71 2.12m22.37-19.33.37 2.84q1.17-2.25 2.79-3.54 1.62-1.28 3.82-1.28 1.74 0 2.8.76l-.4 4.53q-.12.44-.35.62-.23.19-.63.19-.36 0-1.09-.12-.72-.13-1.4-.13-1.01 0-1.79.3-.79.29-1.41.84-.63.55-1.1 1.34-.48.78-.9 1.79v15.48h-6.05v-25.14h3.55q.93 0 1.3.33t.49 1.19M421.23 207v-4.24q-2.63.12-4.41.45-1.79.33-2.87.85-1.08.51-1.54 1.2-.47.68-.47 1.49 0 1.59.94 2.28.95.69 2.47.69 1.86 0 3.22-.68 1.36-.67 2.66-2.04m-12.79-13.21-1.08-1.93q4.34-3.97 10.44-3.97 2.2 0 3.94.72t2.94 2.01 1.83 3.07q.62 1.79.62 3.92v15.88h-2.74q-.86 0-1.33-.26-.46-.25-.73-1.04l-.54-1.81q-.96.86-1.86 1.51-.91.64-1.89 1.09-.98.44-2.09.67-1.12.23-2.47.23-1.59 0-2.94-.43-1.34-.43-2.32-1.28-.98-.86-1.52-2.13-.54-1.28-.54-2.97 0-.95.32-1.9.32-.94 1.04-1.8t1.87-1.62 2.83-1.32 3.91-.92q2.23-.35 5.1-.43v-1.47q0-2.52-1.08-3.73t-3.11-1.21q-1.47 0-2.44.34t-1.7.77q-.74.43-1.34.77t-1.33.34q-.64 0-1.08-.33t-.71-.77m33.56 6.52q1.13 0 1.96-.31.84-.3 1.39-.84t.83-1.3.28-1.67q0-1.86-1.11-2.95-1.12-1.09-3.35-1.09t-3.34 1.09q-1.12 1.09-1.12 2.95 0 .89.29 1.64.28.76.83 1.32.55.55 1.39.85.85.31 1.95.31m6.84 14.31q0-.74-.44-1.2-.44-.47-1.2-.73-.76-.25-1.78-.38-1.02-.12-2.16-.18t-2.35-.11-2.36-.2q-1.01.57-1.63 1.33-.63.76-.63 1.76 0 .66.33 1.24.34.57 1.06.99t1.87.65 2.82.23q1.69 0 2.92-.25 1.22-.26 2.02-.72.79-.45 1.16-1.07.37-.63.37-1.36m-1.2-25.41h7.22v2.25q0 1.08-1.29 1.33l-2.26.41q.52 1.3.52 2.85 0 1.86-.75 3.36-.75 1.51-2.07 2.56-1.32 1.06-3.12 1.63-1.81.58-3.89.58-.73 0-1.42-.07-.68-.08-1.35-.2-1.17.71-1.17 1.59 0 .76.7 1.12.69.35 1.85.5 1.15.15 2.62.18 1.47.04 3.01.16 1.54.13 3.01.43 1.47.31 2.63.97 1.15.66 1.85 1.8.69 1.14.69 2.93 0 1.66-.82 3.23t-2.37 2.8q-1.56 1.22-3.83 1.97-2.26.74-5.15.74-2.84 0-4.95-.55t-3.51-1.47q-1.39-.92-2.08-2.12-.68-1.2-.68-2.49 0-1.77 1.06-2.96 1.07-1.19 2.93-1.9-1-.51-1.59-1.37t-.59-2.25q0-.57.21-1.17t.61-1.18q.4-.59 1.02-1.12.61-.53 1.44-.94-1.91-1.03-3-2.75-1.09-1.71-1.09-4.01 0-1.87.75-3.37.75-1.51 2.08-2.58 1.34-1.06 3.16-1.62 1.83-.57 3.98-.57 1.62 0 3.04.33t2.6.97m15.82 8.82h11.42q0-1.18-.33-2.22t-.99-1.82q-.66-.79-1.68-1.24t-2.36-.45q-2.63 0-4.13 1.49-1.51 1.5-1.93 4.24m15.44 3.65h-15.56q.15 1.94.69 3.35.54 1.4 1.42 2.32t2.09 1.37q1.22.46 2.69.46t2.53-.35q1.07-.34 1.86-.75.8-.42 1.4-.76.6-.35 1.16-.35.76 0 1.13.57l1.74 2.2q-1 1.18-2.25 1.97-1.25.8-2.61 1.28t-2.77.67q-1.41.2-2.73.2-2.62 0-4.88-.87-2.25-.87-3.92-2.57-1.66-1.71-2.62-4.22t-.96-5.82q0-2.57.84-4.84.83-2.26 2.39-3.94 1.55-1.68 3.79-2.66 2.25-.98 5.06-.98 2.38 0 4.39.76t3.45 2.22q1.45 1.46 2.27 3.57.82 2.12.82 4.84 0 1.38-.29 1.85-.3.48-1.13.48"/></svg>