<svg xmlns="http://www.w3.org/2000/svg" width="600" height="400" viewBox="0 0 600 400"><rect width="100%" height="100%" fill="#0000FF"/><path fill="#FFFFFF" d="M148.365 200.35h17.04v20.77q-3.91 2.88-8.33 4.21t-9.46 1.33q-6.28 0-11.38-1.95-5.09-1.96-8.69-5.44-3.61-3.48-5.56-8.3-1.95-4.83-1.95-10.55 0-5.78 1.88-10.61t5.34-8.31 8.4-5.39q4.93-1.92 11.07-1.92 3.13 0 5.84.5 2.72.49 5.04 1.36 2.33.87 4.25 2.11 1.91 1.25 3.51 2.74l-2.73 4.33q-.64 1.03-1.67 1.26t-2.24-.52l-2.34-1.34q-1.17-.68-2.61-1.18-1.44-.49-3.23-.81t-4.14-.32q-3.79 0-6.86 1.28-3.08 1.27-5.24 3.65-2.17 2.38-3.34 5.72t-1.17 7.45q0 4.41 1.26 7.87t3.55 5.85q2.29 2.4 5.52 3.66t7.21 1.26q2.84 0 5.07-.6 2.24-.61 4.37-1.64v-9.3h-6.46q-.92 0-1.44-.51-.51-.52-.51-1.26zm41-11.25q4.05 0 7.37 1.31 3.32 1.32 5.68 3.73t3.63 5.89q1.28 3.48 1.28 7.78 0 4.33-1.28 7.81-1.27 3.48-3.63 5.93t-5.68 3.76-7.37 1.31q-4.08 0-7.42-1.31t-5.7-3.76-3.65-5.93q-1.3-3.48-1.3-7.81 0-4.3 1.3-7.78 1.29-3.48 3.65-5.89t5.7-3.73q3.34-1.31 7.42-1.31m0 30.78q4.54 0 6.73-3.06 2.18-3.05 2.18-8.94t-2.18-8.98q-2.19-3.09-6.73-3.09-4.62 0-6.83 3.1-2.22 3.11-2.22 8.97t2.22 8.93q2.21 3.07 6.83 3.07m24.78-46.54h8.77v52.75h-8.77zm28.86 52.75h-8.77v-29.82l-3.16-.5q-1.03-.21-1.65-.72-.62-.52-.62-1.48v-3.58h5.43v-2.7q0-3.13.94-5.61.94-2.49 2.7-4.23 1.76-1.73 4.28-2.66 2.52-.92 5.68-.92 2.52 0 4.68.67l-.17 4.41q-.04.49-.29.79-.25.31-.65.47-.41.16-.94.21-.54.05-1.14.05-1.56 0-2.79.34-1.22.34-2.07 1.17-.86.84-1.3 2.2-.44 1.37-.44 3.39v2.42h9.47v6.24h-9.19zm62.48-46.51-2.38 4.51q-.42.75-.9 1.09-.48.33-1.19.33-.75 0-1.62-.55t-2.07-1.22q-1.21-.68-2.83-1.23-1.61-.55-3.81-.55-1.99 0-3.48.48t-2.51 1.33q-1.01.86-1.5 2.05-.5 1.18-.5 2.6 0 1.81 1.01 3.02t2.68 2.06 3.8 1.53q2.13.67 4.37 1.44 2.23.76 4.36 1.77t3.8 2.56q1.67 1.54 2.68 3.78 1.01 2.23 1.01 5.43 0 3.48-1.19 6.51-1.19 3.04-3.48 5.29-2.28 2.26-5.59 3.55-3.3 1.3-7.56 1.3-2.45 0-4.83-.48-2.37-.48-4.56-1.37-2.18-.89-4.1-2.13-1.91-1.24-3.41-2.77l2.81-4.58q.35-.49.92-.83t1.21-.34q.89 0 1.92.73t2.45 1.61q1.42.89 3.31 1.62 1.9.73 4.57.73 4.08 0 6.32-1.94 2.23-1.93 2.23-5.55 0-2.03-1.01-3.3-1.01-1.28-2.68-2.15t-3.8-1.48q-2.13-.6-4.33-1.31t-4.33-1.7q-2.13-1-3.8-2.59-1.67-1.6-2.68-4-1.01-2.39-1.01-5.91 0-2.8 1.12-5.47 1.12-2.66 3.25-4.72t5.25-3.3 7.17-1.24q4.54 0 8.38 1.42 3.83 1.42 6.53 3.97m27.09 37.1v-6.14q-3.8.18-6.39.66t-4.16 1.22q-1.56.75-2.23 1.74-.68 1-.68 2.17 0 2.3 1.37 3.3 1.37.99 3.57.99 2.69 0 4.66-.97 1.98-.98 3.86-2.97m-18.53-19.13-1.57-2.81q6.29-5.75 15.13-5.75 3.19 0 5.71 1.05t4.26 2.91 2.65 4.46q.9 2.59.9 5.68v23h-3.97q-1.25 0-1.92-.37-.68-.38-1.07-1.51l-.78-2.63q-1.38 1.24-2.69 2.18-1.32.95-2.74 1.58-1.42.64-3.03.98-1.62.34-3.57.34-2.31 0-4.26-.62t-3.37-1.87q-1.42-1.24-2.2-3.09-.79-1.84-.79-4.29 0-1.39.47-2.75.46-1.37 1.5-2.61 1.05-1.24 2.72-2.34 1.67-1.11 4.1-1.92 2.43-.82 5.66-1.33 3.23-.52 7.39-.62v-2.13q0-3.66-1.57-5.42-1.56-1.76-4.5-1.76-2.13 0-3.54.5-1.4.5-2.46 1.12-1.07.62-1.94 1.12t-1.93.5q-.93 0-1.56-.48-.64-.48-1.03-1.12m46.64 28.54h-8.77v-29.82l-3.16-.5q-1.02-.21-1.65-.72-.62-.52-.62-1.48v-3.58h5.43v-2.7q0-3.13.94-5.61.95-2.49 2.7-4.23 1.76-1.73 4.28-2.66 2.52-.92 5.68-.92 2.52 0 4.69.67l-.18 4.41q-.04.49-.28.79-.25.31-.66.47t-.94.21-1.14.05q-1.56 0-2.79.34-1.22.34-2.07 1.17-.85.84-1.3 2.2-.44 1.37-.44 3.39v2.42h9.48v6.24h-9.2zm33.37-9.41v-6.14q-3.8.18-6.39.66t-4.15 1.22q-1.56.75-2.24 1.74-.67 1-.67 2.17 0 2.3 1.36 3.3 1.37.99 3.57.99 2.7 0 4.67-.97 1.97-.98 3.85-2.97m-18.53-19.13-1.56-2.81q6.28-5.75 15.12-5.75 3.2 0 5.72 1.05t4.26 2.91 2.64 4.46q.91 2.59.91 5.68v23h-3.98q-1.24 0-1.91-.37-.68-.38-1.07-1.51l-.78-2.63q-1.39 1.24-2.7 2.18-1.31.95-2.73 1.58-1.42.64-3.04.98-1.61.34-3.57.34-2.3 0-4.26-.62-1.95-.62-3.37-1.87-1.42-1.24-2.2-3.09-.78-1.84-.78-4.29 0-1.39.46-2.75.46-1.37 1.51-2.61t2.72-2.34q1.66-1.11 4.1-1.92 2.43-.82 5.66-1.33 3.23-.52 7.38-.62v-2.13q0-3.66-1.56-5.42t-4.51-1.76q-2.13 0-3.53.5t-2.47 1.12q-1.06.62-1.93 1.12t-1.94.5q-.92 0-1.56-.48t-1.03-1.12m43.06-5.68.54 4.12q1.7-3.27 4.04-5.13 2.35-1.87 5.54-1.87 2.52 0 4.05 1.1l-.57 6.57q-.18.64-.52.91-.33.26-.9.26-.53 0-1.58-.18-1.05-.17-2.04-.17-1.46 0-2.59.42-1.14.43-2.04 1.23-.91.8-1.6 1.93-.69 1.14-1.3 2.59v22.44h-8.77v-36.42h5.15q1.35 0 1.88.48.54.48.71 1.72m19.03-2.2h8.81v36.42h-8.81zm10.01-10.62q0 1.14-.46 2.13-.46 1-1.22 1.74-.77.75-1.8 1.19t-2.2.44q-1.13 0-2.15-.44-1.01-.44-1.75-1.19-.75-.74-1.19-1.74-.45-.99-.45-2.13 0-1.17.45-2.2.44-1.03 1.19-1.77.74-.75 1.75-1.19 1.02-.45 2.15-.45 1.17 0 2.2.45 1.03.44 1.8 1.19.76.74 1.22 1.77t.46 2.2m31.95 14.56-1.99 3.16q-.35.56-.74.8-.39.23-1 .23-.63 0-1.36-.36-.73-.35-1.69-.8-.96-.44-2.18-.8-1.23-.35-2.89-.35-2.6 0-4.07 1.1t-1.47 2.87q0 1.18.76 1.98.76.79 2.02 1.4 1.26.6 2.86 1.08t3.25 1.05 3.25 1.29q1.6.73 2.86 1.85t2.02 2.68.76 3.76q0 2.63-.94 4.85t-2.78 3.83q-1.85 1.62-4.57 2.52-2.71.91-6.26.91-1.88 0-3.68-.34-1.79-.34-3.44-.94t-3.05-1.42q-1.41-.82-2.47-1.78l2.02-3.33q.39-.61.93-.93.53-.31 1.35-.31.81 0 1.54.46t1.69.99q.95.53 2.25.99 1.3.47 3.28.47 1.57 0 2.68-.38 1.12-.37 1.85-.97.73-.61 1.06-1.4.34-.8.34-1.66 0-1.27-.76-2.09t-2.02-1.42-2.88-1.08-3.3-1.05q-1.69-.57-3.3-1.33-1.62-.76-2.88-1.94-1.26-1.17-2.02-2.87-.77-1.71-.77-4.12 0-2.24.89-4.26t2.61-3.53 4.3-2.42q2.57-.9 5.94-.9 3.77 0 6.85 1.24 3.09 1.24 5.15 3.27"/></svg>