<svg xmlns="http://www.w3.org/2000/svg" width="600" height="400" viewBox="0 0 600 400"><rect width="100%" height="100%" fill="#005ea2"/><path fill="#FFFFFF" d="M152.62 180.4h5.96l-16.06 39.77h-6.68l-16.06-39.77h5.94q.96 0 1.57.47.6.47.91 1.21l9.37 24.26q.47 1.18.9 2.6.42 1.41.81 2.95.33-1.54.71-2.95.39-1.42.86-2.6l9.32-24.26q.22-.63.87-1.15.64-.53 1.58-.53m17.51 0v39.77h-7.42V180.4zm16.28 20h5.53q2.04 0 3.55-.51t2.52-1.46q1-.95 1.49-2.31.5-1.36.5-3.04 0-1.59-.5-2.89-.49-1.29-1.48-2.19-.99-.91-2.5-1.39-1.52-.49-3.58-.49h-5.53zm-7.39-20h12.92q3.99 0 6.9.94 2.92.93 4.82 2.61 1.89 1.68 2.82 4.02.92 2.34.92 5.11 0 2.89-.97 5.3-.96 2.4-2.88 4.13-1.93 1.74-4.83 2.7t-6.78.96h-5.53v14h-7.39zm55.77 24.75h12.65l-4.84-13.22q-.36-.88-.75-2.09-.38-1.21-.77-2.62-.35 1.41-.74 2.63-.38 1.23-.74 2.13zm10.09-24.75 15.62 39.77h-5.72q-.96 0-1.57-.48-.6-.48-.91-1.2l-2.97-8.11h-16.47l-2.97 8.11q-.22.64-.85 1.16t-1.57.52h-5.77l15.64-39.77zm37.43 14.61-1.54 2.45q-.28.44-.58.61-.3.18-.77.18-.5 0-1.06-.27-.56-.28-1.31-.62-.74-.35-1.69-.62-.95-.28-2.24-.28-2.01 0-3.15.86-1.14.85-1.14 2.22 0 .91.59 1.53t1.57 1.09q.98.46 2.21.84 1.24.37 2.52.81t2.52 1q1.23.57 2.21 1.43.98.87 1.57 2.08t.59 2.91q0 2.04-.73 3.76t-2.16 2.97-3.53 1.95q-2.11.7-4.86.7-1.45 0-2.84-.26t-2.67-.73-2.36-1.1q-1.09-.63-1.92-1.37l1.57-2.59q.3-.47.72-.72.41-.24 1.04-.24t1.2.36q.56.35 1.3.76.75.42 1.75.78 1 .35 2.54.35 1.21 0 2.08-.29t1.43-.75q.56-.47.83-1.09.26-.62.26-1.28 0-.99-.59-1.62-.6-.63-1.57-1.1-.98-.47-2.23-.84t-2.56-.81q-1.3-.44-2.55-1.03-1.26-.59-2.23-1.5-.98-.91-1.57-2.23t-.59-3.19q0-1.73.69-3.3.68-1.56 2.02-2.73 1.33-1.17 3.33-1.87 1.99-.71 4.6-.71 2.92 0 5.31.97 2.39.96 3.99 2.53m24.17 0-1.54 2.45q-.28.44-.58.61-.3.18-.77.18-.49 0-1.06-.27-.56-.28-1.3-.62-.75-.35-1.69-.62-.95-.28-2.25-.28-2 0-3.14.86-1.15.85-1.15 2.22 0 .91.6 1.53.59.62 1.56 1.09.98.46 2.22.84 1.23.37 2.51.81t2.52 1q1.24.57 2.21 1.43.98.87 1.57 2.08t.59 2.91q0 2.04-.73 3.76t-2.16 2.97-3.53 1.95-4.85.7q-1.46 0-2.85-.26t-2.67-.73-2.36-1.1q-1.09-.63-1.91-1.37l1.56-2.59q.31-.47.72-.72.41-.24 1.04-.24.64 0 1.2.36.56.35 1.31.76.74.42 1.74.78 1.01.35 2.55.35 1.21 0 2.07-.29.87-.29 1.43-.75.57-.47.83-1.09t.26-1.28q0-.99-.59-1.62t-1.57-1.1-2.23-.84-2.55-.81q-1.31-.44-2.56-1.03t-2.23-1.5-1.57-2.23-.59-3.19q0-1.73.69-3.3.69-1.56 2.02-2.73t3.33-1.87q1.99-.71 4.6-.71 2.92 0 5.31.97 2.39.96 3.99 2.53m5.64-3.05h6.82v28.21h-6.82zm7.75-8.23q0 .88-.36 1.65-.35.77-.94 1.35-.6.58-1.39.92-.8.35-1.71.35-.88 0-1.66-.35-.79-.34-1.36-.92-.58-.58-.92-1.35-.35-.77-.35-1.65 0-.9.35-1.7.34-.8.92-1.38.57-.57 1.36-.92.78-.34 1.66-.34.91 0 1.71.34.79.35 1.39.92.59.58.94 1.38.36.8.36 1.7m24.75 11.28-1.54 2.45q-.27.44-.58.61-.3.18-.77.18-.49 0-1.05-.27-.57-.28-1.31-.62-.74-.35-1.69-.62-.95-.28-2.24-.28-2.01 0-3.15.86-1.14.85-1.14 2.22 0 .91.59 1.53t1.57 1.09q.97.46 2.21.84 1.24.37 2.52.81 1.27.44 2.51 1 1.24.57 2.22 1.43.97.87 1.56 2.08t.59 2.91q0 2.04-.72 3.76-.73 1.72-2.16 2.97t-3.54 1.95q-2.1.7-4.85.7-1.46 0-2.85-.26t-2.66-.73q-1.28-.47-2.37-1.1t-1.91-1.37l1.57-2.59q.3-.47.71-.72.41-.24 1.05-.24.63 0 1.19.36.57.35 1.31.76.74.42 1.75.78 1 .35 2.54.35 1.21 0 2.08-.29.86-.29 1.43-.75.56-.47.82-1.09t.26-1.28q0-.99-.59-1.62t-1.57-1.1q-.97-.47-2.22-.84-1.26-.37-2.56-.81-1.31-.44-2.56-1.03t-2.23-1.5q-.97-.91-1.56-2.23-.6-1.32-.6-3.19 0-1.73.69-3.3.69-1.56 2.02-2.73 1.34-1.17 3.33-1.87 1.99-.71 4.61-.71 2.91 0 5.3.97 2.4.96 3.99 2.53m14.82 25.6q-3.68 0-5.65-2.08-1.96-2.07-1.96-5.73v-15.76h-2.89q-.55 0-.94-.35-.38-.36-.38-1.08v-2.69l4.54-.75 1.43-7.7q.13-.54.52-.85.38-.3.99-.3h3.52v8.88h7.53v4.84h-7.53v15.29q0 1.32.65 2.06.64.75 1.77.75.63 0 1.06-.15.42-.15.74-.32t.56-.32q.25-.15.5-.15.3 0 .49.15.2.15.42.46l2.03 3.3q-1.48 1.24-3.41 1.87-1.92.63-3.99.63m25.96-7.73v-4.75q-2.94.13-4.95.5-2 .37-3.21.95t-1.74 1.35q-.52.77-.52 1.68 0 1.78 1.06 2.56 1.06.76 2.76.76 2.09 0 3.62-.75 1.53-.76 2.98-2.3m-14.35-14.82-1.21-2.17q4.87-4.46 11.71-4.46 2.48 0 4.43.81 1.95.82 3.3 2.26t2.05 3.45.7 4.4v17.82h-3.08q-.96 0-1.48-.29-.53-.29-.83-1.17l-.6-2.03q-1.08.96-2.09 1.69-1.02.73-2.12 1.22-1.1.5-2.35.76t-2.77.26q-1.78 0-3.3-.48-1.51-.48-2.61-1.45-1.1-.96-1.7-2.39-.61-1.43-.61-3.33 0-1.07.36-2.13.36-1.05 1.17-2.02.81-.96 2.1-1.81 1.29-.86 3.18-1.49 1.88-.63 4.38-1.03 2.51-.4 5.72-.48v-1.65q0-2.83-1.21-4.19-1.21-1.37-3.49-1.37-1.65 0-2.73.39-1.09.38-1.92.87-.82.48-1.49.86-.68.39-1.5.39-.72 0-1.21-.37-.5-.37-.8-.87m33.25-4.87.46 2.23q.86-.85 1.81-1.58.94-.73 2-1.24t2.27-.8 2.64-.29q2.31 0 4.1.79 1.79.78 2.98 2.2 1.2 1.42 1.82 3.38.62 1.97.62 4.33v17.96h-6.8v-17.96q0-2.58-1.18-4t-3.6-1.42q-1.76 0-3.3.8t-2.92 2.17v20.41h-6.79v-28.21h4.15q1.32 0 1.74 1.23m47.13 2.26-1.79 2.47q-.3.39-.59.61t-.84.22q-.52 0-1.01-.32-.5-.31-1.19-.71-.68-.4-1.63-.72-.95-.31-2.35-.31-1.79 0-3.14.64-1.35.65-2.24 1.86t-1.33 2.93q-.44 1.71-.44 3.89 0 2.25.48 4.01t1.39 2.96q.9 1.19 2.2 1.81 1.29.62 2.91.62t2.63-.4q1-.39 1.69-.88.69-.48 1.2-.88.5-.4 1.14-.4.82 0 1.23.64l1.96 2.47q-1.13 1.32-2.45 2.22-1.32.89-2.74 1.43-1.41.53-2.91.75t-2.99.22q-2.61 0-4.92-.97-2.31-.98-4.04-2.85t-2.74-4.58q-1-2.71-1-6.17 0-3.11.89-5.76.9-2.66 2.63-4.6t4.29-3.03q2.56-1.11 5.88-1.11 3.17 0 5.55 1.02 2.37 1.02 4.27 2.92m9.87 7.37h12.82q0-1.32-.37-2.49t-1.12-2.05q-.74-.88-1.88-1.39t-2.65-.51q-2.95 0-4.64 1.68t-2.16 4.76m17.33 4.09h-17.46q.16 2.18.77 3.76.6 1.58 1.59 2.61t2.35 1.54 3.01.51 2.85-.38q1.2-.39 2.09-.86.89-.46 1.57-.85.67-.39 1.3-.39.86 0 1.27.64l1.95 2.47q-1.13 1.32-2.53 2.22-1.4.89-2.93 1.43-1.52.53-3.1.75-1.59.22-3.07.22-2.94 0-5.47-.97-2.53-.98-4.4-2.89t-2.95-4.73q-1.07-2.82-1.07-6.53 0-2.89.94-5.43.93-2.55 2.68-4.43 1.74-1.89 4.26-2.98 2.52-1.11 5.68-1.11 2.67 0 4.92.86 2.26.85 3.88 2.49 1.62 1.63 2.54 4.01t.92 5.43q0 1.54-.33 2.08-.33.53-1.26.53"/></svg>