<svg xmlns="http://www.w3.org/2000/svg" width="600" height="400" viewBox="0 0 600 400"><rect width="100%" height="100%" fill="#0000FF"/><path fill="#FFFFFF" d="m167.37 163.575-3.32 6.28q-.59 1.04-1.26 1.51t-1.66.47q-1.04 0-2.25-.77-1.21-.76-2.9-1.7-1.68-.94-3.93-1.71t-5.32-.77q-2.78 0-4.85.67-2.08.67-3.49 1.86-1.41 1.18-2.11 2.84-.69 1.66-.69 3.64 0 2.52 1.41 4.21 1.41 1.68 3.74 2.87 2.32 1.19 5.29 2.13t6.09 2q3.12 1.07 6.09 2.48t5.3 3.56q2.32 2.15 3.73 5.27 1.42 3.12 1.42 7.58 0 4.85-1.66 9.08t-4.85 7.38q-3.2 3.14-7.8 4.95-4.6 1.8-10.54 1.8-3.42 0-6.74-.67-3.31-.66-6.36-1.9-3.04-1.24-5.71-2.97-2.68-1.73-4.76-3.86l3.91-6.39q.5-.69 1.29-1.16t1.68-.47q1.24 0 2.68 1.01 1.43 1.02 3.41 2.25 1.98 1.24 4.63 2.26 2.65 1.01 6.36 1.01 5.69 0 8.81-2.7 3.12-2.69 3.12-7.74 0-2.82-1.41-4.61-1.41-1.78-3.74-2.99-2.32-1.21-5.29-2.06-2.97-.84-6.04-1.83t-6.04-2.37q-2.97-1.39-5.3-3.62-2.32-2.22-3.73-5.56-1.42-3.35-1.42-8.25 0-3.91 1.56-7.62t4.53-6.58 7.33-4.61q4.36-1.73 10-1.73 6.33 0 11.68 1.98t9.11 5.55m20.59 33.61h23.07q0-2.38-.67-4.48-.67-2.11-2.01-3.69-1.33-1.59-3.39-2.5-2.05-.92-4.77-.92-5.3 0-8.34 3.02-3.05 3.02-3.89 8.57m31.19 7.37h-31.44q.3 3.91 1.39 6.76 1.09 2.84 2.87 4.7t4.23 2.77q2.45.92 5.42.92t5.13-.7q2.15-.69 3.76-1.53t2.82-1.53q1.21-.7 2.35-.7 1.53 0 2.28 1.14l3.51 4.46q-2.03 2.37-4.55 3.98-2.53 1.61-5.27 2.58-2.75.96-5.6 1.36-2.84.39-5.52.39-5.29 0-9.85-1.75-4.55-1.76-7.92-5.2-3.36-3.44-5.29-8.52-1.93-5.07-1.93-11.75 0-5.2 1.68-9.78t4.83-7.97q3.14-3.39 7.67-5.37t10.22-1.98q4.8 0 8.86 1.54 4.06 1.53 6.98 4.48 2.92 2.94 4.58 7.22t1.66 9.78q0 2.77-.6 3.74-.59.96-2.27.96m51.62-20.64-3.21 4.45q-.55.7-1.07 1.09-.52.4-1.51.4-.94 0-1.83-.57t-2.13-1.29q-1.24-.71-2.94-1.28-1.71-.57-4.24-.57-3.21 0-5.64 1.16-2.42 1.16-4.03 3.34t-2.4 5.27q-.8 3.1-.8 7.01 0 4.06.87 7.22.87 3.17 2.5 5.33 1.63 2.15 3.96 3.26 2.33 1.12 5.25 1.12t4.73-.72q1.8-.72 3.04-1.59 1.24-.86 2.15-1.58.92-.72 2.06-.72 1.48 0 2.22 1.14l3.52 4.46q-2.03 2.37-4.41 3.98-2.37 1.61-4.92 2.58-2.55.96-5.25 1.36-2.7.39-5.37.39-4.7 0-8.86-1.75-4.16-1.76-7.28-5.13-3.12-3.36-4.92-8.24-1.81-4.88-1.81-11.11 0-5.6 1.61-10.37 1.61-4.78 4.73-8.27t7.72-5.47 10.59-1.98q5.69 0 9.98 1.83 4.28 1.83 7.69 5.25m39.65-6.29h12.23v50.79h-7.47q-2.43 0-3.07-2.23l-.85-4.06q-3.11 3.17-6.88 5.13-3.76 1.95-8.86 1.95-4.15 0-7.35-1.41-3.19-1.41-5.37-3.98-2.18-2.58-3.29-6.12t-1.11-7.79v-32.28h12.22v32.28q0 4.65 2.16 7.2 2.15 2.55 6.46 2.55 3.16 0 5.94-1.41 2.77-1.41 5.24-3.89zm35.1 3.07.74 5.74q2.38-4.55 5.64-7.15 3.27-2.6 7.73-2.6 3.51 0 5.64 1.54l-.79 9.15q-.25.9-.72 1.27t-1.26.37q-.75 0-2.21-.25t-2.84-.25q-2.03 0-3.62.6-1.58.59-2.84 1.7-1.26 1.12-2.23 2.7-.96 1.59-1.81 3.62v31.28h-12.22v-50.79h7.18q1.88 0 2.62.67t.99 2.4m26.53-3.07h12.28v50.79h-12.28zm13.96-14.8q0 1.59-.64 2.97-.65 1.39-1.71 2.43-1.07 1.04-2.5 1.66-1.44.61-3.07.61-1.58 0-2.99-.61-1.42-.62-2.46-1.66-1.03-1.04-1.65-2.43-.62-1.38-.62-2.97 0-1.63.62-3.07.62-1.43 1.65-2.47 1.04-1.04 2.46-1.66 1.41-.62 2.99-.62 1.63 0 3.07.62 1.43.62 2.5 1.66 1.06 1.04 1.71 2.47.64 1.44.64 3.07m27.72 66.38q-6.63 0-10.17-3.74-3.54-3.73-3.54-10.32v-28.36h-5.2q-.99 0-1.68-.64-.7-.65-.7-1.93v-4.85l8.17-1.34 2.58-13.86q.24-.99.94-1.54.69-.54 1.78-.54h6.33v15.99h13.57v8.71h-13.57v27.52q0 2.38 1.17 3.71 1.16 1.34 3.19 1.34 1.14 0 1.91-.27.76-.27 1.33-.57t1.02-.57q.44-.27.89-.27.54 0 .89.27t.74.82l3.67 5.94q-2.68 2.22-6.14 3.36-3.47 1.14-7.18 1.14m56.23-51.58h9.8l-27.67 64.75q-.54 1.29-1.41 1.95-.86.67-2.65.67h-9.1l9.5-20.39-20.54-46.98h10.74q1.43 0 2.25.7.82.69 1.21 1.58l10.79 26.33q.55 1.34.92 2.68.37 1.33.72 2.72.44-1.39.89-2.75.44-1.36.99-2.7l10.2-26.28q.39-.99 1.31-1.63.91-.65 2.05-.65"/></svg>