<svg xmlns="http://www.w3.org/2000/svg" width="1920" height="1080" viewBox="0 0 1920 1080"><rect width="100%" height="100%" fill="#00008B"/><path fill="#FFFFFF" d="M405.305 541.105h13.87q5.11 0 8.9-1.28 3.8-1.27 6.32-3.65 2.52-2.39 3.76-5.8 1.24-3.42 1.24-7.63 0-4-1.24-7.24t-3.73-5.52q-2.48-2.28-6.28-3.48-3.79-1.21-8.97-1.21h-13.87zm-18.56-50.16h32.43q10.01 0 17.32 2.34 7.32 2.35 12.08 6.56t7.07 10.07q2.31 5.87 2.31 12.83 0 7.25-2.41 13.29-2.42 6.03-7.25 10.38t-12.11 6.76q-7.28 2.42-17.01 2.42h-13.87v35.12h-18.56zm97.78 33.25 1.03 8.01q3.31-6.35 7.87-9.97 4.55-3.63 10.76-3.63 4.9 0 7.87 2.14l-1.11 12.77q-.34 1.24-1 1.76-.65.52-1.76.52-1.03 0-3.07-.35-2.03-.34-3.97-.34-2.82 0-5.03.82-2.21.83-3.97 2.38-1.76 1.56-3.1 3.76-1.35 2.21-2.52 5.04v43.61h-17.05v-70.79h10.01q2.62 0 3.66.93 1.03.93 1.38 3.34m36.98-4.27h17.11v70.79h-17.11zm19.46-20.64q0 2.21-.9 4.14-.9 1.94-2.38 3.39-1.48 1.44-3.48 2.31-2.01.86-4.28.86-2.21 0-4.18-.86-1.96-.87-3.41-2.31-1.45-1.45-2.31-3.39-.87-1.93-.87-4.14 0-2.27.87-4.27.86-2 2.31-3.45t3.41-2.31q1.97-.87 4.18-.87 2.27 0 4.28.87 2 .86 3.48 2.31t2.38 3.45.9 4.27m65.41 20.64h13.45l-28.08 70.79h-15.45l-28.09-70.79h14.08q1.93 0 3.21.89 1.27.9 1.69 2.28l13.66 37.81q1.1 3.31 1.93 6.49.83 3.17 1.45 6.35.69-3.18 1.52-6.35.83-3.18 2-6.49l13.94-37.81q.48-1.38 1.72-2.28 1.24-.89 2.97-.89m59.89 52.5v-11.93q-7.38.34-12.42 1.27-5.04.94-8.07 2.38-3.04 1.45-4.35 3.39-1.31 1.93-1.31 4.2 0 4.49 2.66 6.42 2.65 1.93 6.93 1.93 5.25 0 9.08-1.89 3.82-1.9 7.48-5.77m-36.02-37.19-3.03-5.45q12.21-11.18 29.39-11.18 6.21 0 11.11 2.04t8.28 5.66 5.14 8.66q1.76 5.03 1.76 11.04v44.71h-7.73q-2.41 0-3.72-.72-1.31-.73-2.07-2.94l-1.52-5.1q-2.69 2.41-5.25 4.24-2.55 1.83-5.31 3.07t-5.9 1.9q-3.14.65-6.93.65-4.49 0-8.28-1.2-3.8-1.21-6.56-3.63-2.76-2.41-4.28-6-1.51-3.59-1.51-8.35 0-2.69.89-5.35.9-2.65 2.94-5.07 2.03-2.41 5.27-4.55 3.25-2.14 7.97-3.73 4.73-1.58 11.01-2.58 6.28-1.01 14.35-1.21v-4.14q0-7.11-3.03-10.52-3.04-3.42-8.77-3.42-4.14 0-6.86.97-2.73.96-4.8 2.17t-3.76 2.17q-1.69.97-3.76.97-1.79 0-3.04-.93-1.24-.93-2-2.18m92.26 56.58q-9.25 0-14.18-5.21-4.94-5.21-4.94-14.38v-39.54h-7.24q-1.38 0-2.35-.9-.96-.89-.96-2.69v-6.76l11.38-1.86 3.59-19.32q.34-1.38 1.31-2.14t2.49-.76h8.83v22.29h18.9v12.14h-18.9v38.36q0 3.32 1.62 5.18t4.45 1.86q1.59 0 2.66-.38t1.86-.79 1.41-.79 1.25-.38q.75 0 1.24.38.48.38 1.03 1.13l5.11 8.28q-3.73 3.11-8.56 4.7-4.83 1.58-10 1.58m41.19-44.64h32.15q0-3.31-.93-6.24-.93-2.94-2.79-5.14-1.86-2.21-4.73-3.49-2.86-1.28-6.66-1.28-7.38 0-11.62 4.21-4.25 4.21-5.42 11.94m43.47 10.28h-43.81q.41 5.45 1.93 9.42t4 6.56q2.48 2.58 5.9 3.86 3.41 1.28 7.55 1.28t7.15-.97q3-.97 5.24-2.14t3.93-2.14q1.69-.96 3.28-.96 2.14 0 3.17 1.58l4.9 6.21q-2.83 3.31-6.34 5.56-3.52 2.24-7.35 3.59-3.83 1.34-7.8 1.89-3.97.56-7.69.56-7.39 0-13.73-2.45-6.35-2.45-11.04-7.25-4.7-4.8-7.39-11.87t-2.69-16.39q0-7.24 2.35-13.62 2.34-6.39 6.72-11.11 4.39-4.73 10.7-7.49t14.25-2.76q6.69 0 12.35 2.14t9.73 6.25q4.07 4.1 6.38 10.07t2.31 13.63q0 3.86-.83 5.21-.82 1.34-3.17 1.34m121.51 9.73q1.52 0 2.69 1.17l7.31 7.94q-6.07 7.52-14.93 11.52-8.87 4-21.29 4-11.11 0-19.98-3.79-8.86-3.8-15.14-10.56t-9.63-16.14q-3.34-9.39-3.34-20.5 0-11.24 3.58-20.59 3.59-9.35 10.11-16.12 6.52-6.76 15.56-10.52t20.01-3.76q10.9 0 19.36 3.59 8.45 3.59 14.38 9.38l-6.21 8.63q-.55.83-1.41 1.45t-2.38.62q-1.04 0-2.14-.59-1.1-.58-2.42-1.45-1.31-.86-3.03-1.89-1.73-1.04-4-1.9-2.28-.86-5.28-1.45t-6.94-.59q-6.69 0-12.24 2.38-5.56 2.38-9.56 6.9t-6.21 11.04-2.21 14.87q0 8.42 2.38 14.98 2.38 6.55 6.45 11.04 4.07 4.48 9.59 6.86t11.87 2.38q3.8 0 6.87-.41 3.07-.42 5.66-1.31 2.58-.9 4.89-2.31 2.32-1.42 4.59-3.49.69-.62 1.45-1t1.59-.38m37.12-79v39.33q4.14-3.87 9.11-6.28 4.97-2.42 11.66-2.42 5.8 0 10.28 1.97 4.49 1.96 7.49 5.52 3 3.55 4.55 8.49 1.55 4.93 1.55 10.86v45.06h-17.04v-45.06q0-6.48-2.97-10.04-2.96-3.55-9.03-3.55-4.42 0-8.28 2-3.87 2-7.32 5.45v51.2h-17.04v-102.53zm98.19 84.24v-11.93q-7.38.34-12.42 1.27-5.04.94-8.07 2.38-3.04 1.45-4.35 3.39-1.31 1.93-1.31 4.2 0 4.49 2.65 6.42 2.66 1.93 6.94 1.93 5.24 0 9.07-1.89 3.83-1.9 7.49-5.77m-36.02-37.19-3.04-5.45q12.22-11.18 29.4-11.18 6.21 0 11.11 2.04t8.28 5.66 5.14 8.66q1.76 5.03 1.76 11.04v44.71h-7.73q-2.42 0-3.73-.72-1.31-.73-2.07-2.94l-1.51-5.1q-2.7 2.41-5.25 4.24t-5.31 3.07-5.9 1.9q-3.14.65-6.94.65-4.48 0-8.28-1.2-3.79-1.21-6.55-3.63-2.76-2.41-4.28-6t-1.52-8.35q0-2.69.9-5.35.9-2.65 2.93-5.07 2.04-2.41 5.28-4.55t7.97-3.73q4.73-1.58 11.01-2.58 6.28-1.01 14.35-1.21v-4.14q0-7.11-3.04-10.52-3.03-3.42-8.76-3.42-4.14 0-6.87.97-2.72.96-4.79 2.17t-3.76 2.17q-1.69.97-3.76.97-1.8 0-3.04-.93t-2-2.18m83.7-11.04 1.03 8.01q3.31-6.35 7.87-9.97 4.55-3.63 10.76-3.63 4.9 0 7.87 2.14l-1.11 12.77q-.34 1.24-1 1.76-.65.52-1.76.52-1.03 0-3.07-.35-2.03-.34-3.96-.34-2.83 0-5.04.82-2.21.83-3.97 2.38-1.76 1.56-3.1 3.76-1.35 2.21-2.52 5.04v43.61h-17.04v-70.79h10q2.62 0 3.66.93 1.03.93 1.38 3.34m60.03 67.62q-9.25 0-14.18-5.21-4.94-5.21-4.94-14.38v-39.54h-7.24q-1.38 0-2.35-.9-.96-.89-.96-2.69v-6.76l11.38-1.86 3.59-19.32q.35-1.38 1.31-2.14.97-.76 2.49-.76h8.83v22.29h18.9v12.14h-18.9v38.36q0 3.32 1.62 5.18t4.45 1.86q1.59 0 2.66-.38t1.86-.79 1.41-.79 1.25-.38q.75 0 1.24.38.48.38 1.03 1.13l5.11 8.28q-3.73 3.11-8.56 4.7-4.83 1.58-10 1.58m41.19-44.64h32.15q0-3.31-.93-6.24-.93-2.94-2.79-5.14-1.86-2.21-4.73-3.49-2.86-1.28-6.66-1.28-7.38 0-11.62 4.21-4.25 4.21-5.42 11.94m43.47 10.28h-43.81q.41 5.45 1.93 9.42t4 6.56q2.48 2.58 5.9 3.86 3.41 1.28 7.55 1.28t7.15-.97q3-.97 5.24-2.14t3.93-2.14q1.69-.96 3.28-.96 2.14 0 3.17 1.58l4.9 6.21q-2.83 3.31-6.34 5.56-3.52 2.24-7.35 3.59-3.83 1.34-7.8 1.89-3.97.56-7.69.56-7.39 0-13.73-2.45-6.35-2.45-11.04-7.25-4.7-4.8-7.39-11.87t-2.69-16.39q0-7.24 2.35-13.62 2.34-6.39 6.72-11.11 4.39-4.73 10.7-7.49t14.25-2.76q6.69 0 12.35 2.14t9.73 6.25q4.07 4.1 6.38 10.07t2.31 13.63q0 3.86-.83 5.21-.82 1.34-3.17 1.34m31.81-33.26 1.03 8.01q3.32-6.35 7.87-9.97 4.55-3.63 10.76-3.63 4.9 0 7.87 2.14l-1.1 12.77q-.35 1.24-1 1.76-.66.52-1.76.52-1.04 0-3.07-.35-2.04-.34-3.97-.34-2.83 0-5.04.82-2.21.83-3.97 2.38-1.76 1.56-3.1 3.76-1.35 2.21-2.52 5.04v43.61h-17.04v-70.79h10q2.62 0 3.66.93 1.03.93 1.38 3.34m110.68-33.25v64.3q0 8.42-2.07 15.18-2.07 6.77-6.18 11.53t-10.25 7.31-14.28 2.55q-3.73 0-7.31-.44-3.59-.45-7.52-1.42.2-2.76.48-5.52.27-2.76.48-5.52.21-1.52 1.21-2.45t2.86-.93q1.18 0 3.07.48 1.9.49 4.8.49 3.93 0 6.97-1.14 3.03-1.14 5.07-3.63 2.03-2.48 3.07-6.45 1.03-3.96 1.03-9.62v-64.72zm32.01 56.23h32.16q0-3.31-.94-6.24-.93-2.94-2.79-5.14-1.86-2.21-4.73-3.49-2.86-1.28-6.66-1.28-7.38 0-11.62 4.21-4.25 4.21-5.42 11.94m43.47 10.28h-43.81q.41 5.45 1.93 9.42t4 6.56q2.48 2.58 5.9 3.86t7.56 1.28 7.14-.97 5.24-2.14 3.93-2.14q1.69-.96 3.28-.96 2.14 0 3.18 1.58l4.89 6.21q-2.82 3.31-6.34 5.56-3.52 2.24-7.35 3.59-3.83 1.34-7.8 1.89-3.97.56-7.69.56-7.39 0-13.73-2.45-6.35-2.45-11.04-7.25-4.7-4.8-7.39-11.87t-2.69-16.39q0-7.24 2.35-13.62 2.34-6.39 6.73-11.11 4.38-4.73 10.69-7.49t14.25-2.76q6.69 0 12.35 2.14t9.73 6.25q4.07 4.1 6.38 10.07t2.31 13.63q0 3.86-.82 5.21-.83 1.34-3.18 1.34m40.37 34.36q-9.25 0-14.18-5.21-4.94-5.21-4.94-14.38v-39.54h-7.24q-1.38 0-2.35-.9-.96-.89-.96-2.69v-6.76l11.38-1.86 3.59-19.32q.34-1.38 1.31-2.14t2.48-.76h8.84v22.29h18.9v12.14h-18.9v38.36q0 3.32 1.62 5.18t4.45 1.86q1.59 0 2.65-.38 1.07-.38 1.87-.79.79-.41 1.41-.79t1.24-.38q.76 0 1.25.38.48.38 1.03 1.13l5.11 8.28q-3.73 3.11-8.56 4.7-4.83 1.58-10 1.58"/></svg>