<svg xmlns="http://www.w3.org/2000/svg" width="600" height="400" viewBox="0 0 600 400"><rect width="100%" height="100%" fill="#0000FF"/><path fill="#FFFFFF" d="M144.5 204.61q.48 0 .85.37l2.34 2.53q-1.94 2.4-4.77 3.68-2.82 1.27-6.78 1.27-3.55 0-6.37-1.21-2.83-1.21-4.83-3.36-2-2.16-3.07-5.15t-1.07-6.54q0-3.58 1.15-6.56 1.14-2.98 3.22-5.14t4.96-3.35q2.88-1.2 6.38-1.2 3.48 0 6.17 1.14 2.7 1.14 4.59 2.99l-1.98 2.75q-.18.27-.45.46-.28.2-.76.2-.33 0-.68-.18-.36-.19-.77-.47-.42-.27-.97-.6t-1.28-.61q-.72-.27-1.68-.46t-2.21-.19q-2.14 0-3.91.76t-3.04 2.2q-1.28 1.44-1.98 3.52-.71 2.08-.71 4.74 0 2.69.76 4.78t2.06 3.52 3.06 2.19 3.78.76q1.21 0 2.19-.14.98-.13 1.8-.41.83-.29 1.57-.74.73-.45 1.46-1.11.22-.2.46-.32t.51-.12m18.32 1.67v-3.81q-2.35.11-3.96.41-1.6.3-2.57.76t-1.39 1.08q-.42.61-.42 1.34 0 1.43.85 2.05.85.61 2.21.61 1.67 0 2.9-.6 1.22-.61 2.38-1.84m-11.48-11.86-.97-1.74q3.89-3.56 9.37-3.56 1.98 0 3.54.65 1.57.65 2.64 1.8 1.08 1.16 1.64 2.76.56 1.61.56 3.52v14.26h-2.46q-.77 0-1.19-.23t-.66-.94l-.48-1.62q-.86.77-1.67 1.35-.82.58-1.7.98-.88.39-1.88.6t-2.21.21q-1.43 0-2.64-.38-1.21-.39-2.09-1.16t-1.36-1.91q-.49-1.15-.49-2.66 0-.86.29-1.71.28-.85.93-1.62t1.69-1.45q1.03-.68 2.54-1.19 1.5-.5 3.51-.82 2-.32 4.57-.39v-1.32q0-2.26-.97-3.35-.96-1.09-2.79-1.09-1.32 0-2.19.31t-1.53.69q-.66.39-1.2.69-.54.31-1.2.31-.57 0-.96-.29-.4-.3-.64-.7m26.68-3.52.33 2.55q1.06-2.02 2.51-3.17 1.45-1.16 3.43-1.16 1.57 0 2.51.68l-.35 4.07q-.11.4-.32.56-.21.17-.56.17-.33 0-.98-.11t-1.26-.11q-.91 0-1.61.26-.7.27-1.26.76-.57.5-.99 1.2-.43.7-.81 1.61v13.9h-5.43v-22.57h3.19q.83 0 1.16.3.33.29.44 1.06m19.87 9.37q1.01 0 1.76-.27.75-.28 1.24-.76.5-.48.75-1.17.25-.68.25-1.49 0-1.67-1-2.65t-3-.98-3 .98-1 2.65q0 .79.25 1.47t.75 1.18q.49.49 1.25.77.76.27 1.75.27m6.14 12.85q0-.66-.4-1.08-.39-.41-1.08-.64-.68-.24-1.59-.35t-1.94-.16q-1.02-.06-2.11-.1t-2.12-.18q-.9.51-1.46 1.19-.57.68-.57 1.59 0 .59.3 1.11.3.51.95.89.65.37 1.68.58t2.53.21q1.52 0 2.62-.23t1.81-.64q.72-.41 1.05-.97t.33-1.22m-1.08-22.81h6.49v2.02q0 .97-1.17 1.19l-2.02.37q.46 1.17.46 2.56 0 1.67-.67 3.02t-1.86 2.3-2.8 1.46q-1.62.52-3.49.52-.66 0-1.28-.07-.61-.06-1.21-.17-1.05.64-1.05 1.43 0 .68.63 1 .62.32 1.66.45 1.03.13 2.35.17 1.32.03 2.71.14 1.38.11 2.7.38 1.32.28 2.36.87 1.03.6 1.66 1.62.62 1.02.62 2.63 0 1.49-.73 2.9-.74 1.41-2.14 2.51-1.39 1.1-3.43 1.77-2.03.67-4.63.67-2.55 0-4.44-.49-1.9-.5-3.15-1.32-1.25-.83-1.87-1.91-.62-1.07-.62-2.24 0-1.58.96-2.65t2.63-1.71q-.9-.46-1.43-1.23t-.53-2.02q0-.51.19-1.05t.55-1.06q.36-.53.91-1 .55-.48 1.3-.85-1.72-.93-2.69-2.47-.98-1.54-.98-3.6 0-1.68.67-3.03t1.87-2.31 2.84-1.46q1.63-.51 3.57-.51 1.45 0 2.73.3 1.27.3 2.33.87m19.91-1.12q2.51 0 4.57.81 2.05.81 3.52 2.31 1.46 1.5 2.25 3.65.79 2.16.79 4.82 0 2.68-.79 4.84t-2.25 3.67q-1.47 1.52-3.52 2.34-2.06.81-4.57.81-2.53 0-4.6-.81-2.07-.82-3.53-2.34-1.46-1.51-2.26-3.67-.81-2.16-.81-4.84 0-2.66.81-4.82.8-2.15 2.26-3.65t3.53-2.31 4.6-.81m0 19.07q2.82 0 4.17-1.89t1.35-5.55q0-3.65-1.35-5.56-1.35-1.92-4.17-1.92-2.86 0-4.23 1.93-1.38 1.92-1.38 5.55t1.38 5.54q1.37 1.9 4.23 1.9m56.87-27.96h4.47v31.81h-5.22v-20.55q0-1.23.13-2.66l-9.61 18.06q-.68 1.3-2.09 1.3h-.84q-1.4 0-2.09-1.3l-9.72-18.13q.07.73.11 1.43.04.71.04 1.3v20.55h-5.21V180.3h4.47q.39 0 .68.02.28.02.52.11.23.09.41.29.19.19.37.52l9.52 17.67q.38.7.7 1.45.31.75.62 1.54.31-.81.64-1.57t.7-1.46l9.4-17.63q.17-.33.37-.52.2-.2.43-.29t.52-.11q.28-.02.68-.02m20.68 8.89q2.51 0 4.57.81 2.05.81 3.52 2.31 1.46 1.5 2.25 3.65.79 2.16.79 4.82 0 2.68-.79 4.84t-2.25 3.67q-1.47 1.52-3.52 2.34-2.06.81-4.57.81-2.53 0-4.6-.81-2.07-.82-3.53-2.34-1.46-1.51-2.26-3.67-.81-2.16-.81-4.84 0-2.66.81-4.82.8-2.15 2.26-3.65t3.53-2.31 4.6-.81m0 19.07q2.82 0 4.17-1.89t1.35-5.55q0-3.65-1.35-5.56-1.35-1.92-4.17-1.92-2.86 0-4.23 1.93-1.38 1.92-1.38 5.55t1.38 5.54q1.37 1.9 4.23 1.9m31.35-18.72h4.29l-8.95 22.57h-4.93l-8.96-22.57h4.49q.62 0 1.03.28.4.29.53.73l4.36 12.06q.35 1.05.62 2.06.26 1.02.46 2.03.22-1.01.48-2.03.27-1.01.64-2.06l4.44-12.06q.16-.44.55-.73.4-.28.95-.28m11.46 8.69h10.25q0-1.06-.29-1.99-.3-.94-.89-1.64-.6-.71-1.51-1.11-.91-.41-2.12-.41-2.36 0-3.71 1.34t-1.73 3.81m13.86 3.28h-13.97q.13 1.73.62 3 .48 1.26 1.27 2.09.8.82 1.89 1.23 1.08.41 2.4.41t2.28-.31 1.67-.68q.72-.38 1.26-.68.54-.31 1.04-.31.68 0 1.01.5l1.57 1.98q-.91 1.06-2.03 1.78-1.12.71-2.34 1.14t-2.49.6q-1.26.18-2.45.18-2.35 0-4.38-.78-2.02-.78-3.52-2.31-1.49-1.53-2.35-3.78-.86-2.26-.86-5.23 0-2.31.75-4.34.75-2.04 2.14-3.55 1.4-1.5 3.41-2.38 2.02-.88 4.55-.88 2.13 0 3.93.68 1.81.68 3.11 1.99 1.29 1.31 2.03 3.21t.74 4.35q0 1.23-.27 1.66-.26.43-1.01.43m10.78 10.6h-5.43v-22.57h3.32q1.06 0 1.39.99l.35 1.67q.59-.66 1.24-1.21t1.39-.95q.73-.39 1.58-.62t1.86-.23q2.13 0 3.51 1.15 1.37 1.16 2.06 3.07.52-1.12 1.32-1.93.79-.8 1.73-1.3.95-.51 2.02-.75 1.06-.24 2.14-.24 1.87 0 3.32.57 1.46.57 2.45 1.67t1.5 2.68q.52 1.59.52 3.63v14.37h-5.43v-14.37q0-2.15-.95-3.24t-2.77-1.09q-.84 0-1.55.29-.72.28-1.26.82t-.84 1.35q-.31.82-.31 1.87v14.37h-5.46v-14.37q0-2.26-.91-3.3-.91-1.03-2.67-1.03-1.19 0-2.21.58-1.03.59-1.91 1.6zm35.71-13.88h10.25q0-1.06-.3-1.99-.29-.94-.89-1.64-.59-.71-1.5-1.11-.92-.41-2.13-.41-2.35 0-3.7 1.34-1.36 1.34-1.73 3.81m13.86 3.28h-13.97q.13 1.73.61 3 .49 1.26 1.28 2.09.79.82 1.88 1.23t2.41.41 2.28-.31q.95-.31 1.67-.68.71-.38 1.25-.68.54-.31 1.05-.31.68 0 1.01.5l1.56 1.98q-.9 1.06-2.02 1.78-1.12.71-2.34 1.14-1.23.43-2.49.6-1.27.18-2.45.18-2.36 0-4.38-.78-2.03-.78-3.52-2.31-1.5-1.53-2.36-3.78-.85-2.26-.85-5.23 0-2.31.74-4.34.75-2.04 2.15-3.55 1.4-1.5 3.41-2.38t4.54-.88q2.14 0 3.94.68t3.1 1.99 2.04 3.21q.73 1.9.73 4.35 0 1.23-.26 1.66t-1.01.43m10.05-10.98.38 1.78q.68-.68 1.44-1.26.76-.59 1.6-.99.85-.41 1.82-.64t2.11-.23q1.85 0 3.28.62 1.43.63 2.38 1.76.96 1.14 1.46 2.71.49 1.57.49 3.46v14.37h-5.43v-14.37q0-2.06-.95-3.2-.94-1.13-2.88-1.13-1.41 0-2.64.64t-2.33 1.74v16.32h-5.44v-22.57h3.33q1.05 0 1.38.99m27.63 21.93q-2.94 0-4.52-1.66-1.57-1.66-1.57-4.59v-12.6h-2.31q-.44 0-.75-.29-.31-.28-.31-.86v-2.15l3.63-.6 1.15-6.16q.11-.44.42-.68.3-.24.79-.24h2.81v7.11h6.03v3.87h-6.03v12.23q0 1.06.52 1.65t1.42.59q.51 0 .85-.12t.59-.25.45-.25.4-.12q.24 0 .39.12.16.12.33.36l1.63 2.64q-1.19.99-2.73 1.5-1.54.5-3.19.5m23.85-20.48-1.23 1.96q-.22.35-.46.49-.24.15-.62.15-.39 0-.85-.22-.45-.22-1.04-.5-.59-.27-1.35-.49t-1.8-.22q-1.6 0-2.52.68-.91.68-.91 1.78 0 .73.47 1.22.48.5 1.26.87t1.77.67 2.01.65q1.03.35 2.02.8t1.77 1.15q.78.69 1.25 1.66t.47 2.33q0 1.63-.58 3-.58 1.38-1.73 2.38-1.14 1-2.82 1.56-1.69.56-3.89.56-1.16 0-2.27-.21t-2.14-.58q-1.02-.37-1.89-.88t-1.53-1.1l1.26-2.07q.24-.37.57-.57t.83-.2q.51 0 .96.29.45.28 1.05.61.59.33 1.39.62.81.29 2.04.29.97 0 1.66-.23.69-.24 1.14-.61t.66-.87q.21-.49.21-1.02 0-.79-.47-1.3t-1.26-.88q-.78-.37-1.78-.67t-2.04-.65q-1.05-.35-2.05-.82-1-.48-1.78-1.2-.78-.73-1.25-1.79-.48-1.05-.48-2.55 0-1.38.55-2.64.55-1.25 1.62-2.19 1.07-.93 2.66-1.49 1.6-.56 3.69-.56 2.33 0 4.24.77 1.92.77 3.19 2.02"/></svg>