<svg xmlns="http://www.w3.org/2000/svg" width="600" height="400" viewBox="0 0 600 400"><rect width="100%" height="100%" fill="#005ea2"/><path fill="#FFFFFF" d="M131.905 200.755h11.73l-4.49-12.27q-.33-.81-.69-1.94-.36-1.12-.71-2.42-.33 1.3-.69 2.44-.36 1.13-.69 1.97zm9.36-22.95 14.48 36.87h-5.3q-.9 0-1.46-.45-.56-.44-.84-1.11l-2.75-7.52h-15.28l-2.75 7.52q-.21.59-.79 1.08-.59.48-1.46.48h-5.35l14.51-36.87zm17.51 10.71h6.33v26.16h-6.33zm7.2-7.63q0 .82-.34 1.53-.33.72-.88 1.25-.54.54-1.28.86-.74.31-1.58.31-.82 0-1.55-.31-.72-.32-1.26-.86-.53-.53-.85-1.25-.32-.71-.32-1.53 0-.84.32-1.58t.85-1.27q.54-.54 1.26-.86.73-.32 1.55-.32.84 0 1.58.32t1.28.86q.55.53.88 1.27.34.74.34 1.58m11.11 9.21.39 2.96q1.22-2.35 2.9-3.69 1.69-1.34 3.98-1.34 1.81 0 2.91.79l-.41 4.72q-.13.46-.37.65t-.65.19q-.38 0-1.13-.13-.76-.12-1.47-.12-1.05 0-1.86.3-.82.31-1.47.88-.65.58-1.15 1.39-.49.82-.93 1.86v16.12h-6.3v-26.16h3.7q.97 0 1.35.34.39.35.51 1.24m19.77 6.07v11.73q1.07 1.3 2.33 1.83 1.26.54 2.74.54 1.43 0 2.58-.54 1.14-.53 1.95-1.63.8-1.1 1.23-2.77.44-1.67.44-3.94 0-2.29-.37-3.88-.37-1.6-1.06-2.59-.69-1-1.67-1.46t-2.23-.46q-1.97 0-3.34.83-1.38.83-2.6 2.34m-.85-6.51.51 2.43q1.61-1.81 3.65-2.94 2.04-1.12 4.8-1.12 2.14 0 3.91.89 1.77.9 3.06 2.59 1.29 1.7 1.99 4.19.7 2.48.7 5.69 0 2.94-.79 5.44-.79 2.49-2.26 4.33-1.46 1.84-3.54 2.87t-4.66 1.03q-2.19 0-3.74-.67-1.56-.68-2.78-1.88v10.71h-6.3v-34.7h3.85q1.22 0 1.6 1.14m35.09-1.55q2.91 0 5.29.94 2.39.95 4.08 2.68 1.7 1.73 2.62 4.23t.92 5.59q0 3.11-.92 5.61t-2.62 4.26q-1.69 1.76-4.08 2.7-2.38.94-5.29.94-2.93 0-5.33-.94-2.39-.94-4.09-2.7t-2.63-4.26-.93-5.61q0-3.09.93-5.59t2.63-4.23 4.09-2.68q2.4-.94 5.33-.94m0 22.11q3.27 0 4.84-2.2 1.56-2.19 1.56-6.42t-1.56-6.45q-1.57-2.22-4.84-2.22-3.31 0-4.91 2.23-1.59 2.23-1.59 6.44t1.59 6.41q1.6 2.21 4.91 2.21m23.28-20.12.39 2.96q1.22-2.35 2.9-3.69 1.69-1.34 3.98-1.34 1.81 0 2.91.79l-.41 4.72q-.13.46-.37.65t-.65.19q-.38 0-1.13-.13-.76-.12-1.47-.12-1.05 0-1.86.3-.82.31-1.47.88-.65.58-1.15 1.39-.49.82-.93 1.86v16.12h-6.29v-26.16h3.69q.97 0 1.35.34.39.35.51 1.24m22.19 24.99q-3.42 0-5.24-1.93-1.82-1.92-1.82-5.31v-14.62h-2.68q-.51 0-.87-.33t-.36-.99v-2.5l4.21-.69 1.33-7.14q.13-.51.48-.79.36-.28.92-.28h3.26v8.24h6.99v4.48h-6.99v14.18q0 1.23.6 1.91.6.69 1.65.69.58 0 .98-.14t.69-.29.52-.29.46-.14q.28 0 .46.14t.38.42l1.89 3.06q-1.38 1.14-3.16 1.73-1.79.59-3.7.59m44.98-33.82-1.71 3.24q-.3.54-.65.78-.34.24-.85.24-.54 0-1.16-.39-.63-.4-1.49-.88-.87-.49-2.03-.88-1.16-.4-2.74-.4-1.43 0-2.5.35-1.07.34-1.8.95-.73.62-1.08 1.47-.36.85-.36 1.87 0 1.3.73 2.17.72.87 1.92 1.48t2.73 1.1q1.53.48 3.14 1.03 1.6.55 3.13 1.28 1.53.72 2.73 1.83t1.93 2.72q.72 1.6.72 3.9 0 2.5-.85 4.68t-2.5 3.8q-1.64 1.62-4.02 2.55-2.37.93-5.43.93-1.76 0-3.46-.35-1.71-.34-3.28-.98t-2.95-1.53q-1.37-.89-2.44-1.99l2.01-3.29q.25-.35.66-.6.41-.24.87-.24.64 0 1.38.52.74.53 1.76 1.16 1.02.64 2.38 1.17 1.36.52 3.28.52 2.93 0 4.54-1.39 1.6-1.39 1.6-3.99 0-1.46-.72-2.37-.73-.92-1.93-1.55-1.2-.62-2.73-1.06-1.53-.43-3.11-.94t-3.11-1.22q-1.53-.72-2.73-1.86-1.2-1.15-1.92-2.87-.73-1.72-.73-4.25 0-2.01.8-3.93.81-1.91 2.34-3.39t3.77-2.37 5.15-.89q3.27 0 6.02 1.02t4.69 2.85m11.94-4.48v14.53q1.53-1.43 3.36-2.32 1.84-.89 4.31-.89 2.14 0 3.8.73 1.66.72 2.77 2.04 1.11 1.31 1.68 3.13.57 1.83.57 4.02v16.65h-6.29v-16.65q0-2.4-1.1-3.71-1.1-1.32-3.34-1.32-1.63 0-3.06.74t-2.7 2.02v18.92h-6.3v-37.89zm38.7 11.73h6.3v26.16h-3.85q-1.25 0-1.58-1.15l-.43-2.09q-1.61 1.63-3.55 2.64-1.93 1.01-4.56 1.01-2.14 0-3.79-.73-1.64-.73-2.76-2.05-1.13-1.33-1.7-3.15t-.57-4.02v-16.62h6.29v16.62q0 2.4 1.11 3.71 1.11 1.32 3.33 1.32 1.63 0 3.06-.73t2.7-2zm21.25 26.57q-3.42 0-5.24-1.93-1.83-1.92-1.83-5.31v-14.62h-2.68q-.51 0-.86-.33-.36-.33-.36-.99v-2.5l4.21-.69 1.32-7.14q.13-.51.49-.79t.92-.28h3.26v8.24h6.99v4.48h-6.99v14.18q0 1.23.6 1.91.6.69 1.64.69.59 0 .99-.14.39-.14.69-.29.29-.15.52-.29t.46-.14q.28 0 .46.14.17.14.38.42l1.89 3.06q-1.38 1.14-3.17 1.73-1.78.59-3.69.59m18.97 0q-3.42 0-5.24-1.93-1.83-1.92-1.83-5.31v-14.62h-2.67q-.51 0-.87-.33t-.36-.99v-2.5l4.21-.69 1.33-7.14q.12-.51.48-.79t.92-.28h3.26v8.24h6.99v4.48h-6.99v14.18q0 1.23.6 1.91.6.69 1.65.69.58 0 .98-.14.39-.14.69-.29.29-.15.52-.29t.46-.14q.28 0 .46.14t.38.42l1.89 3.06q-1.38 1.14-3.16 1.73-1.79.59-3.7.59m10.33-38.3h6.29v37.89h-6.29zm17.56 21.8h11.89q0-1.22-.35-2.31-.34-1.08-1.03-1.9-.69-.81-1.75-1.29-1.05-.47-2.46-.47-2.73 0-4.29 1.56-1.57 1.55-2.01 4.41m16.07 3.8h-16.19q.15 2.01.71 3.48t1.48 2.42q.92.96 2.18 1.43t2.79.47 2.64-.36q1.11-.35 1.94-.79.83-.43 1.45-.79.63-.35 1.21-.35.8 0 1.18.58l1.81 2.3q-1.05 1.22-2.35 2.05t-2.71 1.33q-1.42.49-2.88.7-1.47.2-2.85.2-2.73 0-5.07-.9-2.35-.91-4.08-2.68-1.74-1.77-2.73-4.39-1-2.61-1-6.05 0-2.68.87-5.04t2.49-4.1q1.62-1.75 3.95-2.77t5.27-1.02q2.47 0 4.56.79t3.6 2.31q1.5 1.51 2.35 3.72.86 2.21.86 5.04 0 1.42-.31 1.92-.3.5-1.17.5m23.59-11.04-1.43 2.27q-.26.4-.54.57t-.71.17q-.46 0-.98-.26-.52-.25-1.21-.57t-1.57-.58q-.88-.25-2.08-.25-1.86 0-2.92.79t-1.06 2.06q0 .85.55 1.42t1.45 1.01q.91.43 2.06.78 1.14.34 2.33.75t2.33.93q1.15.52 2.06 1.32.9.81 1.45 1.93t.55 2.7q0 1.89-.68 3.48-.67 1.6-2 2.76t-3.28 1.81-4.5.65q-1.35 0-2.64-.24-1.28-.25-2.47-.68t-2.19-1.02q-1.01-.59-1.78-1.28l1.46-2.39q.28-.44.66-.67.38-.22.97-.22t1.11.33 1.21.71 1.62.72q.93.33 2.36.33 1.12 0 1.92-.27.81-.27 1.33-.7.52-.44.77-1.01.24-.57.24-1.19 0-.91-.55-1.5t-1.45-1.02q-.91-.43-2.07-.78-1.16-.34-2.37-.75t-2.37-.96q-1.16-.54-2.07-1.39-.9-.84-1.45-2.06-.55-1.23-.55-2.96 0-1.61.64-3.06.63-1.45 1.87-2.54 1.24-1.08 3.09-1.73t4.27-.65q2.7 0 4.92.89t3.7 2.35"/></svg>