<svg xmlns="http://www.w3.org/2000/svg" width="600" height="400" viewBox="0 0 600 400"><rect width="100%" height="100%" fill="#0000FF"/><path fill="#FFFFFF" d="m148.565 177.945-1.98 3.75q-.35.62-.75.9t-.99.28q-.62 0-1.34-.46-.73-.45-1.73-1.01t-2.34-1.02q-1.35-.46-3.18-.46-1.65 0-2.89.4t-2.08 1.11q-.84.7-1.25 1.69t-.41 2.17q0 1.5.84 2.51.84 1 2.23 1.71 1.38.71 3.15 1.27t3.63 1.19q1.86.64 3.63 1.48t3.16 2.12q1.38 1.28 2.22 3.14t.84 4.52q0 2.89-.98 5.41-.99 2.52-2.9 4.4-1.9 1.87-4.64 2.95-2.75 1.07-6.29 1.07-2.03 0-4.01-.4-1.97-.39-3.79-1.13-1.81-.74-3.41-1.77-1.59-1.03-2.83-2.3l2.33-3.81q.3-.41.77-.69t1-.28q.74 0 1.6.6.85.61 2.03 1.34 1.18.74 2.76 1.35 1.58.6 3.79.6 3.39 0 5.25-1.61 1.86-1.6 1.86-4.61 0-1.68-.84-2.75-.84-1.06-2.23-1.78-1.38-.72-3.15-1.23-1.77-.5-3.6-1.09t-3.6-1.41q-1.77-.83-3.16-2.16-1.39-1.32-2.23-3.31-.84-2-.84-4.92 0-2.33.93-4.54t2.7-3.92 4.37-2.75q2.59-1.03 5.96-1.03 3.77 0 6.96 1.18 3.18 1.18 5.43 3.3m6.6-5.19h7.29v43.84h-7.29zm27.97 13.1q3.36 0 6.12 1.09t4.72 3.1 3.03 4.9q1.06 2.89 1.06 6.46 0 3.6-1.06 6.49-1.07 2.89-3.03 4.92-1.96 2.04-4.72 3.13t-6.12 1.09q-3.39 0-6.17-1.09-2.77-1.09-4.73-3.13-1.96-2.03-3.04-4.92t-1.08-6.49q0-3.57 1.08-6.46t3.04-4.9 4.73-3.1q2.78-1.09 6.17-1.09m0 25.58q3.78 0 5.59-2.54t1.81-7.43q0-4.9-1.81-7.47-1.81-2.56-5.59-2.56-3.83 0-5.68 2.58-1.84 2.58-1.84 7.45 0 4.86 1.84 7.42 1.85 2.55 5.68 2.55m58.17-25.11h5.55l-9.62 30.27h-5.84q-1 0-1.38-1.3l-5.43-17.49q-.27-.89-.49-1.76t-.37-1.75q-.17.88-.4 1.78-.22.9-.48 1.79l-5.52 17.43q-.35 1.3-1.56 1.3h-5.61l-9.59-30.27h5.82q.79 0 1.35.39.56.38.74.97l4.34 16.17q.32 1.32.57 2.59t.43 2.54q.32-1.27.69-2.54t.79-2.59l5.01-16.23q.18-.59.69-.97.52-.39 1.26-.39h3.21q.77 0 1.32.39.54.38.72.97l4.87 16.23q.38 1.32.72 2.61.34 1.28.66 2.55.39-2.51 1.09-5.16l4.46-16.17q.2-.59.74-.97.53-.39 1.26-.39m33.1 23.72h17.05v6.55h-24.98v-42.66h7.93zm34.96-24.19q3.36 0 6.12 1.09t4.72 3.1 3.03 4.9q1.06 2.89 1.06 6.46 0 3.6-1.06 6.49-1.07 2.89-3.03 4.92-1.96 2.04-4.72 3.13t-6.12 1.09q-3.39 0-6.16-1.09-2.78-1.09-4.74-3.13-1.96-2.03-3.04-4.92-1.07-2.89-1.07-6.49 0-3.57 1.07-6.46 1.08-2.89 3.04-4.9t4.74-3.1q2.77-1.09 6.16-1.09m0 25.58q3.78 0 5.59-2.54 1.82-2.54 1.82-7.43 0-4.9-1.82-7.47-1.81-2.56-5.59-2.56-3.83 0-5.68 2.58-1.84 2.58-1.84 7.45 0 4.86 1.84 7.42 1.85 2.55 5.68 2.55m39.29-25.11h7.29v30.27h-4.45q-1.45 0-1.83-1.33l-.5-2.42q-1.86 1.89-4.1 3.06-2.25 1.16-5.28 1.16-2.48 0-4.39-.84-1.9-.84-3.2-2.37-1.29-1.54-1.96-3.65-.66-2.11-.66-4.64v-19.24h7.28v19.24q0 2.77 1.29 4.29 1.28 1.52 3.85 1.52 1.89 0 3.54-.84t3.12-2.32zm20.8 1.33.5 2.39q.92-.91 1.94-1.7 1.01-.78 2.15-1.32 1.14-.55 2.43-.86 1.3-.31 2.84-.31 2.47 0 4.39.84t3.2 2.36 1.95 3.63q.66 2.11.66 4.65v19.26h-7.28v-19.26q0-2.78-1.27-4.3t-3.87-1.52q-1.89 0-3.54.86t-3.12 2.33v21.89h-7.29v-30.27h4.45q1.42 0 1.86 1.33m38.03 13.07q1.35 0 2.36-.37 1-.37 1.66-1.02.67-.65 1.01-1.56.34-.92.34-2.01 0-2.24-1.35-3.55-1.34-1.31-4.02-1.31-2.69 0-4.03 1.31t-1.34 3.55q0 1.06.34 1.98.34.91 1 1.58.66.66 1.68 1.03t2.35.37m8.23 17.23q0-.89-.53-1.45t-1.45-.87q-.91-.31-2.14-.46-1.22-.14-2.59-.22-1.37-.07-2.83-.13-1.47-.06-2.85-.24-1.21.68-1.96 1.6-.76.91-.76 2.12 0 .8.4 1.49t1.27 1.2q.87.5 2.26.78 1.38.28 3.39.28 2.04 0 3.51-.31 1.48-.31 2.43-.86.96-.54 1.41-1.3.44-.75.44-1.63m-1.45-30.59h8.71v2.71q0 1.3-1.57 1.59l-2.71.5q.62 1.57.62 3.43 0 2.24-.9 4.05-.9 1.82-2.5 3.08-1.59 1.27-3.76 1.97-2.16.69-4.67.69-.89 0-1.71-.09-.83-.09-1.63-.23-1.41.85-1.41 1.91 0 .92.84 1.35.84.42 2.23.6 1.38.18 3.15.22 1.77.05 3.63.19 1.86.15 3.63.52t3.16 1.16q1.38.8 2.22 2.17t.84 3.53q0 2-.98 3.89-.99 1.89-2.87 3.37-1.87 1.47-4.6 2.37t-6.21.9q-3.42 0-5.96-.66-2.53-.67-4.21-1.77-1.69-1.11-2.51-2.56-.83-1.44-.83-3 0-2.13 1.29-3.56 1.28-1.43 3.52-2.29-1.21-.62-1.92-1.65t-.71-2.71q0-.68.26-1.4.25-.73.73-1.43.49-.71 1.23-1.35.73-.63 1.74-1.13-2.3-1.24-3.62-3.31-1.31-2.06-1.31-4.83 0-2.25.9-4.06t2.51-3.1q1.61-1.28 3.8-1.96 2.2-.68 4.8-.68 1.94 0 3.66.4 1.71.4 3.12 1.17m19.06 10.62h13.75q0-1.42-.4-2.67-.4-1.26-1.2-2.2-.79-.95-2.02-1.49-1.22-.55-2.84-.55-3.16 0-4.97 1.8-1.82 1.8-2.32 5.11m18.58 4.39h-18.73q.18 2.33.83 4.03.65 1.69 1.71 2.8t2.52 1.65q1.46.55 3.23.55t3.06-.42q1.28-.41 2.24-.91t1.68-.91q.72-.42 1.4-.42.91 0 1.36.68l2.09 2.66q-1.21 1.41-2.71 2.37-1.51.96-3.14 1.54-1.64.57-3.34.81-1.69.23-3.29.23-3.15 0-5.87-1.04-2.71-1.05-4.72-3.1-2-2.05-3.15-5.08-1.15-3.02-1.15-7 0-3.1 1-5.83t2.87-4.75q1.88-2.02 4.58-3.2t6.09-1.18q2.86 0 5.28.92 2.42.91 4.16 2.67 1.74 1.75 2.73 4.3t.99 5.83q0 1.65-.36 2.23-.35.57-1.36.57m27.29-12.77-1.65 2.62q-.29.47-.62.67-.32.19-.83.19-.53 0-1.13-.3-.61-.29-1.4-.66-.8-.37-1.82-.66-1.01-.3-2.4-.3-2.15 0-3.38.92-1.22.91-1.22 2.38 0 .98.63 1.64.64.67 1.68 1.17 1.05.5 2.38.9t2.7.87 2.7 1.07q1.32.61 2.37 1.54t1.68 2.23q.64 1.29.64 3.12 0 2.19-.78 4.03-.79 1.84-2.32 3.19-1.53 1.34-3.79 2.09t-5.21.75q-1.56 0-3.05-.28t-2.86-.78-2.54-1.18-2.05-1.48l1.68-2.77q.33-.5.77-.77.44-.26 1.12-.26t1.28.38q.61.39 1.4.83.8.44 1.88.82 1.07.39 2.73.39 1.29 0 2.22-.31t1.54-.81q.6-.5.88-1.17.28-.66.28-1.37 0-1.06-.63-1.74-.64-.68-1.68-1.18-1.05-.5-2.39-.9-1.35-.4-2.75-.87t-2.74-1.11q-1.34-.63-2.39-1.6-1.05-.98-1.68-2.39-.64-1.42-.64-3.43 0-1.85.74-3.54.74-1.68 2.17-2.93t3.57-2.01q2.14-.75 4.94-.75 3.13 0 5.69 1.03 2.57 1.04 4.28 2.72"/></svg>