<svg xmlns="http://www.w3.org/2000/svg" width="600" height="400" viewBox="0 0 600 400"><rect width="100%" height="100%" fill="#005ea2"/><path fill="#FFFFFF" d="M128.155 200.395h5.03q1.85 0 3.22-.46 1.38-.46 2.29-1.32.91-.87 1.37-2.1.44-1.24.44-2.77 0-1.45-.44-2.62-.46-1.18-1.35-2-.9-.83-2.28-1.26-1.37-.44-3.25-.44h-5.03zm-6.72-18.17h11.75q3.63 0 6.28.85 2.64.85 4.37 2.37 1.73 1.53 2.56 3.65.84 2.13.84 4.65 0 2.63-.88 4.82-.87 2.18-2.62 3.76-1.75 1.57-4.39 2.45-2.63.87-6.16.87h-5.03v12.73h-6.72zm35.42 12.05.38 2.9q1.2-2.3 2.85-3.61 1.65-1.32 3.9-1.32 1.77 0 2.85.78l-.4 4.62q-.13.45-.36.64-.24.19-.64.19-.38 0-1.11-.13-.74-.12-1.44-.12-1.03 0-1.83.3t-1.43.86q-.64.56-1.13 1.36-.49.81-.91 1.83v15.8h-6.18v-25.65h3.63q.95 0 1.32.34.38.33.5 1.21m13.4-1.55h6.2v25.65h-6.2zm7.05-7.48q0 .8-.32 1.5-.33.7-.86 1.23-.54.52-1.27.84-.72.31-1.55.31-.8 0-1.51-.31-.71-.32-1.23-.84-.53-.53-.84-1.23-.32-.7-.32-1.5 0-.82.32-1.55.31-.72.84-1.25.52-.52 1.23-.83.71-.32 1.51-.32.83 0 1.55.32.73.31 1.27.83.53.53.86 1.25.32.73.32 1.55m23.7 7.48h4.88l-10.18 25.65h-5.59l-10.18-25.65h5.1q.7 0 1.16.32.46.33.61.83l4.95 13.7q.4 1.2.7 2.35t.53 2.3q.25-1.15.55-2.3t.72-2.35l5.06-13.7q.17-.5.62-.83.45-.32 1.07-.32m21.71 19.02v-4.32q-2.68.12-4.5.46-1.83.34-2.93.86-1.1.53-1.58 1.23-.47.7-.47 1.52 0 1.63.96 2.33t2.52.7q1.9 0 3.28-.69 1.39-.69 2.72-2.09m-13.06-13.47-1.09-1.98q4.42-4.05 10.65-4.05 2.25 0 4.02.74 1.78.74 3 2.05 1.23 1.31 1.86 3.14.64 1.82.64 4v16.2h-2.8q-.87 0-1.35-.26-.47-.27-.75-1.07l-.55-1.85q-.97.88-1.9 1.54-.92.66-1.92 1.11t-2.14.69-2.51.24q-1.63 0-3-.44-1.38-.44-2.38-1.31-1-.88-1.55-2.18t-.55-3.02q0-.98.32-1.94.33-.96 1.07-1.84.73-.87 1.91-1.65 1.18-.77 2.89-1.35 1.71-.57 3.99-.93 2.27-.37 5.2-.44v-1.5q0-2.58-1.1-3.81-1.1-1.24-3.18-1.24-1.5 0-2.49.35t-1.74.79l-1.36.78q-.61.35-1.36.35-.65 0-1.1-.33-.45-.34-.73-.79m33.43 20.5q-3.35 0-5.14-1.89t-1.79-5.21v-14.33h-2.62q-.5 0-.85-.32-.35-.33-.35-.98v-2.45l4.13-.67 1.3-7q.12-.5.47-.78.35-.27.9-.27h3.2v8.07h6.85v4.4h-6.85v13.9q0 1.2.59 1.88.59.67 1.61.67.58 0 .96-.13.39-.14.68-.29t.51-.29.45-.14q.27 0 .45.14t.38.41l1.85 3q-1.35 1.13-3.1 1.7-1.75.58-3.63.58m14.93-16.18h11.65q0-1.2-.34-2.26t-1.01-1.86q-.68-.8-1.72-1.26-1.03-.47-2.41-.47-2.67 0-4.21 1.53t-1.96 4.32m15.75 3.73h-15.88q.15 1.97.7 3.41t1.45 2.38q.9.93 2.14 1.4 1.24.46 2.74.46 1.49 0 2.58-.35t1.9-.78q.82-.42 1.43-.77t1.19-.35q.77 0 1.15.57l1.77 2.25q-1.02 1.2-2.3 2.02-1.27.81-2.66 1.3-1.39.48-2.83.69-1.43.2-2.78.2-2.68 0-4.98-.89t-4-2.63-2.67-4.3q-.98-2.56-.98-5.94 0-2.62.85-4.93.85-2.32 2.44-4.03t3.87-2.71q2.29-1 5.17-1 2.42 0 4.47.77 2.05.78 3.53 2.27 1.47 1.48 2.31 3.65.84 2.16.84 4.93 0 1.4-.3 1.89t-1.15.49m44.02 3.52q.55 0 .98.43l2.65 2.87q-2.2 2.73-5.42 4.18-3.21 1.45-7.71 1.45-4.02 0-7.24-1.38-3.21-1.37-5.48-3.82-2.28-2.45-3.49-5.85t-1.21-7.42q0-4.08 1.3-7.47t3.66-5.84 5.64-3.81q3.27-1.36 7.25-1.36 3.95 0 7.01 1.3t5.21 3.4l-2.25 3.12q-.2.3-.51.53-.31.22-.86.22-.38 0-.78-.21t-.87-.52q-.48-.32-1.1-.69-.63-.38-1.45-.69-.83-.31-1.92-.52-1.08-.22-2.51-.22-2.42 0-4.44.87-2.01.86-3.46 2.5-1.45 1.63-2.25 4-.8 2.36-.8 5.39 0 3.04.86 5.42.87 2.37 2.34 4 1.48 1.62 3.48 2.49 2 .86 4.3.86 1.37 0 2.48-.15 1.12-.15 2.05-.48.94-.32 1.78-.83.84-.52 1.66-1.27.25-.22.53-.36.27-.14.57-.14m13.45-28.62v14.25q1.5-1.4 3.3-2.28 1.8-.87 4.23-.87 2.1 0 3.72.71 1.63.71 2.71 2 1.09 1.29 1.65 3.08.57 1.78.57 3.94v16.32h-6.18v-16.32q0-2.36-1.07-3.64-1.08-1.29-3.28-1.29-1.6 0-3 .72-1.4.73-2.65 1.98v18.55h-6.17v-37.15zm35.58 30.52v-4.32q-2.68.12-4.5.46-1.83.34-2.93.86-1.1.53-1.57 1.23-.48.7-.48 1.52 0 1.63.96 2.33.97.7 2.52.7 1.9 0 3.28-.69 1.39-.69 2.72-2.09m-13.05-13.47-1.1-1.98q4.42-4.05 10.65-4.05 2.25 0 4.02.74 1.78.74 3 2.05 1.23 1.31 1.86 3.14.64 1.82.64 4v16.2h-2.8q-.87 0-1.35-.26-.47-.27-.75-1.07l-.55-1.85q-.97.88-1.9 1.54-.92.66-1.92 1.11t-2.14.69-2.51.24q-1.63 0-3-.44-1.38-.44-2.38-1.31-1-.88-1.55-2.18t-.55-3.02q0-.98.33-1.94.32-.96 1.06-1.84.74-.87 1.91-1.65 1.18-.77 2.89-1.35 1.71-.57 3.99-.93 2.27-.37 5.2-.44v-1.5q0-2.58-1.1-3.81-1.1-1.24-3.18-1.24-1.5 0-2.49.35-.98.35-1.73.79-.75.43-1.37.78-.61.35-1.36.35-.65 0-1.1-.33-.45-.34-.72-.79m30.32-4 .38 2.9q1.2-2.3 2.85-3.61 1.65-1.32 3.9-1.32 1.77 0 2.85.78l-.4 4.62q-.13.45-.37.64-.23.19-.63.19-.38 0-1.12-.13-.73-.12-1.43-.12-1.03 0-1.83.3t-1.44.86q-.63.56-1.12 1.36-.49.81-.91 1.83v15.8h-6.18v-25.65h3.63q.95 0 1.32.34.38.33.5 1.21m21.75 24.5q-3.35 0-5.14-1.89-1.78-1.89-1.78-5.21v-14.33h-2.63q-.5 0-.85-.32-.35-.33-.35-.98v-2.45l4.13-.67 1.3-7q.12-.5.47-.78.35-.27.9-.27h3.2v8.07h6.85v4.4h-6.85v13.9q0 1.2.59 1.88.59.67 1.61.67.58 0 .96-.13.39-.14.68-.29t.51-.29q.23-.14.45-.14.28 0 .45.14.18.14.38.41l1.85 3q-1.35 1.13-3.1 1.7-1.75.58-3.63.58m14.93-16.18h11.65q0-1.2-.34-2.26t-1.01-1.86q-.68-.8-1.72-1.26-1.03-.47-2.41-.47-2.67 0-4.21 1.53t-1.96 4.32m15.75 3.73h-15.88q.15 1.97.7 3.41t1.45 2.38q.9.93 2.14 1.4 1.24.46 2.74.46t2.58-.35q1.09-.35 1.9-.78.82-.42 1.43-.77t1.19-.35q.77 0 1.15.57l1.77 2.25q-1.02 1.2-2.3 2.02-1.27.81-2.66 1.3-1.39.48-2.83.69-1.43.2-2.78.2-2.68 0-4.98-.89t-4-2.63-2.67-4.3q-.98-2.56-.98-5.94 0-2.62.85-4.93.85-2.32 2.44-4.03t3.87-2.71q2.29-1 5.17-1 2.42 0 4.47.77 2.05.78 3.53 2.27 1.47 1.48 2.31 3.65.84 2.16.84 4.93 0 1.4-.3 1.89t-1.15.49m11.52-12.05.38 2.9q1.19-2.3 2.84-3.61 1.66-1.32 3.91-1.32 1.77 0 2.84.78l-.4 4.62q-.12.45-.36.64t-.64.19q-.37 0-1.11-.13-.74-.12-1.43-.12-1.03 0-1.83.3t-1.44.86q-.63.56-1.12 1.36-.49.81-.92 1.83v15.8h-6.17v-25.65h3.63q.95 0 1.32.34.38.33.5 1.21m30.25 1.22-1.4 2.23q-.25.4-.52.56-.28.16-.7.16-.45 0-.97-.25-.51-.25-1.19-.56-.67-.31-1.53-.56t-2.04-.25q-1.82 0-2.86.77-1.04.78-1.04 2.03 0 .82.54 1.39.54.56 1.42.98.89.43 2.01.77 1.13.33 2.29.73 1.17.4 2.29.92 1.13.51 2.01 1.3.89.78 1.43 1.88t.54 2.65q0 1.85-.67 3.42-.66 1.56-1.96 2.7-1.3 1.13-3.21 1.77t-4.41.64q-1.33 0-2.59-.24t-2.43-.66q-1.16-.43-2.15-1-.98-.58-1.73-1.25l1.42-2.35q.28-.43.65-.65.38-.23.95-.23t1.09.33q.51.32 1.19.7.67.37 1.58.7.92.32 2.32.32 1.1 0 1.88-.26.79-.26 1.3-.69.52-.42.75-.98.24-.57.24-1.17 0-.9-.54-1.47-.53-.58-1.42-1-.89-.43-2.03-.76-1.13-.34-2.32-.74t-2.33-.94-2.02-1.36q-.89-.83-1.43-2.03-.53-1.2-.53-2.9 0-1.57.62-3 .63-1.42 1.84-2.48 1.21-1.07 3.02-1.7 1.82-.64 4.19-.64 2.65 0 4.83.87 2.17.88 3.62 2.3"/></svg>