<svg xmlns="http://www.w3.org/2000/svg" width="1920" height="1080" viewBox="0 0 1920 1080"><rect width="100%" height="100%" fill="#005ea2"/><path fill="#FFFFFF" d="M486.775 453.355h25.92v138.82h-25.92v-60.67h-65.19v60.67h-25.92v-138.82h25.92v59.72h65.19zm71.8 78.24h44.74q0-4.6-1.3-8.68-1.29-4.08-3.88-7.16-2.6-3.07-6.58-4.84-3.98-1.78-9.26-1.78-10.28 0-16.18 5.86-5.9 5.85-7.54 16.6m60.48 14.31h-60.96q.58 7.58 2.69 13.1t5.57 9.12 8.21 5.38q4.75 1.77 10.51 1.77t9.94-1.34q4.17-1.34 7.29-2.98 3.12-1.63 5.47-2.97 2.36-1.35 4.56-1.35 2.98 0 4.42 2.21l6.82 8.64q-3.94 4.61-8.84 7.73-4.89 3.12-10.22 4.99t-10.85 2.64-10.7.77q-10.27 0-19.11-3.41-8.83-3.41-15.36-10.08-6.52-6.67-10.27-16.51-3.74-9.84-3.74-22.8 0-10.08 3.26-18.96 3.27-8.88 9.36-15.46 6.1-6.57 14.88-10.41 8.79-3.84 19.83-3.84 9.31 0 17.18 2.97 7.87 2.98 13.54 8.69 5.66 5.71 8.88 14.02 3.21 8.3 3.21 18.96 0 5.37-1.15 7.25-1.15 1.87-4.42 1.87m44.26-46.27 1.44 11.13q4.61-8.83 10.94-13.87 6.34-5.04 14.98-5.04 6.82 0 10.94 2.98l-1.53 17.76q-.48 1.72-1.39 2.44-.92.72-2.45.72-1.44 0-4.27-.48-2.84-.48-5.52-.48-3.94 0-7.01 1.16-3.07 1.15-5.52 3.31t-4.32 5.23-3.51 7.01v60.67h-23.71v-98.5h13.92q3.65 0 5.09 1.3t1.92 4.66m94.27-7.49q10.95 0 19.92 3.55 8.98 3.55 15.36 10.08 6.39 6.53 9.84 15.94 3.46 9.4 3.46 21.02 0 11.71-3.46 21.12-3.45 9.41-9.84 16.03-6.38 6.63-15.36 10.18-8.97 3.55-19.92 3.55-11.04 0-20.06-3.55-9.03-3.55-15.41-10.18-6.38-6.62-9.89-16.03-3.5-9.41-3.5-21.12 0-11.62 3.5-21.02 3.51-9.41 9.89-15.94t15.41-10.08q9.02-3.55 20.06-3.55m0 83.23q12.29 0 18.19-8.26 5.91-8.25 5.91-24.19 0-15.93-5.91-24.29-5.9-8.35-18.19-8.35-12.48 0-18.48 8.4t-6 24.24 6 24.15q6 8.3 18.48 8.3m143.04-122.02v138.82h-25.92v-138.82zm50.98 138.82h-23.71v-98.5h14.49q4.61 0 6.05 4.32l1.54 7.3q2.59-2.88 5.42-5.28t6.05-4.13q3.21-1.73 6.91-2.73 3.7-1.01 8.11-1.01 9.31 0 15.31 5.04t8.98 13.39q2.3-4.9 5.76-8.4t7.58-5.71q4.13-2.21 8.79-3.27 4.65-1.05 9.36-1.05 8.16 0 14.49 2.49 6.34 2.5 10.66 7.3t6.58 11.71q2.25 6.91 2.25 15.84v62.69h-23.71v-62.69q0-9.41-4.13-14.16t-12.09-4.75q-3.65 0-6.77 1.25t-5.47 3.6q-2.36 2.35-3.7 5.9t-1.34 8.16v62.69h-23.81v-62.69q0-9.89-3.99-14.4-3.98-4.51-11.66-4.51-5.18 0-9.65 2.54-4.46 2.55-8.3 6.96zm189.12-25.44v-16.61q-10.27.48-17.28 1.78-7.01 1.29-11.23 3.31-4.23 2.02-6.05 4.7-1.83 2.69-1.83 5.86 0 6.24 3.7 8.93t9.65 2.69q7.29 0 12.62-2.64t10.42-8.02m-50.11-51.74-4.23-7.59q16.99-15.55 40.9-15.55 8.64 0 15.45 2.83 6.82 2.83 11.52 7.87 4.71 5.04 7.16 12.05 2.44 7.01 2.44 15.36v62.21h-10.75q-3.36 0-5.18-1.01-1.83-1.01-2.88-4.08l-2.11-7.1q-3.75 3.36-7.3 5.9-3.55 2.55-7.39 4.27-3.84 1.73-8.21 2.64-4.37.92-9.65.92-6.24 0-11.52-1.68t-9.12-5.04-5.95-8.36q-2.11-4.99-2.11-11.61 0-3.75 1.25-7.44 1.24-3.7 4.08-7.06 2.83-3.36 7.34-6.33 4.51-2.98 11.09-5.19 6.57-2.21 15.31-3.6t19.97-1.68v-5.76q0-9.89-4.23-14.64-4.22-4.75-12.19-4.75-5.76 0-9.55 1.34-3.79 1.35-6.67 3.03t-5.23 3.02q-2.36 1.35-5.24 1.35-2.49 0-4.22-1.3t-2.78-3.02m131.52 25.53q4.41 0 7.68-1.2 3.26-1.2 5.42-3.31t3.26-5.09q1.11-2.97 1.11-6.53 0-7.29-4.37-11.56-4.37-4.28-13.1-4.28-8.74 0-13.11 4.28-4.37 4.27-4.37 11.56 0 3.46 1.11 6.44 1.1 2.97 3.26 5.13t5.47 3.36q3.32 1.2 7.64 1.2m26.78 56.07q0-2.88-1.73-4.71-1.73-1.82-4.7-2.83-2.98-1.01-6.96-1.49-3.99-.48-8.45-.72t-9.22-.43q-4.75-.19-9.26-.77-3.94 2.21-6.38 5.19-2.45 2.97-2.45 6.91 0 2.59 1.29 4.85 1.3 2.25 4.13 3.88 2.83 1.64 7.35 2.55 4.51.91 11.04.91 6.62 0 11.42-1.01t7.92-2.78q3.12-1.78 4.56-4.23 1.44-2.44 1.44-5.32m-4.7-99.56h28.32v8.84q0 4.22-5.09 5.18l-8.83 1.63q2.01 5.09 2.01 11.14 0 7.29-2.93 13.2-2.92 5.9-8.11 10.03-5.18 4.13-12.24 6.38-7.05 2.26-15.21 2.26-2.88 0-5.57-.29t-5.28-.77q-4.61 2.79-4.61 6.24 0 2.98 2.74 4.37 2.73 1.39 7.24 1.97 4.52.58 10.28.72t11.8.62q6.05.48 11.81 1.68t10.27 3.8q4.52 2.59 7.25 7.05 2.74 4.47 2.74 11.47 0 6.53-3.22 12.68-3.21 6.14-9.31 10.94t-14.98 7.73-20.2 2.93q-11.14 0-19.4-2.16-8.25-2.16-13.72-5.76-5.48-3.6-8.16-8.31-2.69-4.7-2.69-9.79 0-6.91 4.17-11.57 4.18-4.65 11.48-7.44-3.94-2.01-6.24-5.37-2.31-3.36-2.31-8.84 0-2.2.82-4.56.81-2.35 2.4-4.65 1.58-2.31 3.98-4.37t5.67-3.7q-7.49-4.03-11.76-10.75-4.28-6.72-4.28-15.74 0-7.3 2.93-13.2 2.93-5.91 8.16-10.08 5.23-4.18 12.39-6.39 7.15-2.2 15.6-2.2 6.33 0 11.9 1.29 5.57 1.3 10.18 3.79m62.01 34.56h44.74q0-4.6-1.3-8.68-1.29-4.08-3.89-7.16-2.59-3.07-6.57-4.84-3.99-1.78-9.27-1.78-10.27 0-16.17 5.86-5.91 5.85-7.54 16.6m60.48 14.31h-60.96q.58 7.58 2.69 13.1t5.57 9.12q3.45 3.6 8.21 5.38 4.75 1.77 10.51 1.77t9.93-1.34q4.18-1.34 7.3-2.98 3.12-1.63 5.47-2.97 2.35-1.35 4.56-1.35 2.98 0 4.42 2.21l6.81 8.64q-3.93 4.61-8.83 7.73-4.89 3.12-10.22 4.99t-10.85 2.64-10.7.77q-10.28 0-19.11-3.41t-15.36-10.08-10.27-16.51-3.74-22.8q0-10.08 3.26-18.96t9.36-15.46q6.1-6.57 14.88-10.41t19.82-3.84q9.32 0 17.19 2.97 7.87 2.98 13.53 8.69 5.67 5.71 8.88 14.02 3.22 8.3 3.22 18.96 0 5.37-1.15 7.25-1.15 1.87-4.42 1.87m132.67 28.51h24.96v17.76h-76.8v-17.76h28.13v-80.93q0-4.8.29-9.89l-19.97 16.71q-1.73 1.34-3.41 1.68-1.68.33-3.16.05-1.49-.29-2.64-1.01-1.16-.72-1.73-1.59l-7.49-10.27 42.34-36h19.48z"/></svg>