<svg xmlns="http://www.w3.org/2000/svg" width="600" height="400" viewBox="0 0 600 400"><rect width="100%" height="100%" fill="#005ea2"/><path fill="#FFFFFF" d="M127.905 200.45h5.62q2.08 0 3.62-.52t2.56-1.48q1.02-.97 1.52-2.36.51-1.38.51-3.09 0-1.62-.51-2.94-.5-1.32-1.51-2.24t-2.55-1.41-3.64-.49h-5.62zm-7.54-20.36h13.16q4.06 0 7.03.95 2.97.96 4.9 2.66 1.93 1.71 2.87 4.09t.94 5.21q0 2.94-.98 5.39t-2.94 4.21q-1.96 1.77-4.91 2.75-2.96.98-6.91.98h-5.62v14.25h-7.54zm39.68 13.5.42 3.25q1.34-2.58 3.19-4.05t4.37-1.47q1.99 0 3.19.87l-.45 5.18q-.14.5-.4.71-.27.21-.72.21-.42 0-1.24-.14-.83-.14-1.61-.14-1.15 0-2.05.34-.89.33-1.61.96-.71.63-1.26 1.53-.54.9-1.02 2.04v17.7h-6.91v-28.73h4.06q1.06 0 1.48.38t.56 1.36m20.24 9.32h13.05q0-1.34-.38-2.53-.37-1.19-1.13-2.09-.76-.89-1.92-1.41t-2.7-.52q-3 0-4.72 1.71t-2.2 4.84m17.64 4.17h-17.78q.17 2.22.79 3.83.61 1.61 1.62 2.66t2.4 1.56q1.38.52 3.06.52t2.9-.39 2.13-.87q.91-.47 1.59-.87.69-.39 1.33-.39.87 0 1.29.65l1.99 2.52q-1.15 1.34-2.58 2.25-1.42.91-2.98 1.46-1.55.54-3.16.77-1.61.22-3.12.22-3 0-5.58-.99-2.57-1-4.48-2.94-1.9-1.95-2.99-4.82t-1.09-6.65q0-2.94.95-5.53t2.73-4.51 4.34-3.04 5.78-1.12q2.72 0 5.01.87 2.3.87 3.95 2.54 1.65 1.66 2.59 4.08.94 2.43.94 5.53 0 1.57-.34 2.12-.33.54-1.29.54m25.9-12.12-1.56 2.49q-.28.45-.59.63t-.79.18q-.5 0-1.07-.28-.58-.28-1.33-.63-.76-.35-1.73-.63-.96-.28-2.28-.28-2.04 0-3.2.87-1.17.87-1.17 2.27 0 .92.61 1.55.6.63 1.59 1.11 1 .48 2.26.85 1.26.38 2.56.83t2.56 1.02q1.26.58 2.25 1.46 1 .88 1.6 2.11t.6 2.97q0 2.07-.74 3.82t-2.2 3.03q-1.45 1.27-3.6 1.98-2.14.72-4.94.72-1.48 0-2.9-.27-1.41-.26-2.71-.74t-2.41-1.12-1.95-1.4l1.6-2.63q.31-.48.73-.73t1.06-.25q.65 0 1.22.36.57.37 1.33.79t1.78.78 2.59.36q1.23 0 2.11-.29t1.46-.77q.57-.48.84-1.11.26-.63.26-1.3 0-1.01-.6-1.65t-1.59-1.12q-1-.48-2.27-.85-1.28-.38-2.61-.83t-2.6-1.05-2.27-1.53q-.99-.92-1.59-2.26-.61-1.35-.61-3.25 0-1.77.7-3.36.7-1.6 2.06-2.79t3.39-1.9q2.03-.72 4.69-.72 2.97 0 5.4.98 2.44.98 4.06 2.58m24.62 0-1.57 2.49q-.28.45-.59.63t-.78.18q-.51 0-1.08-.28-.58-.28-1.33-.63-.76-.35-1.72-.63-.97-.28-2.29-.28-2.04 0-3.2.87t-1.16 2.27q0 .92.6 1.55t1.59 1.11q1 .48 2.26.85 1.26.38 2.56.83t2.56 1.02q1.26.58 2.26 1.46.99.88 1.59 2.11t.6 2.97q0 2.07-.74 3.82t-2.2 3.03q-1.45 1.27-3.59 1.98-2.15.72-4.95.72-1.48 0-2.89-.27-1.42-.26-2.72-.74t-2.41-1.12q-1.1-.64-1.94-1.4l1.59-2.63q.31-.48.73-.73t1.06-.25q.65 0 1.22.36.58.37 1.33.79.76.42 1.78.78t2.59.36q1.23 0 2.11-.29.89-.29 1.46-.77t.84-1.11.27-1.3q0-1.01-.61-1.65-.6-.64-1.59-1.12-1-.48-2.27-.85-1.27-.38-2.6-.83t-2.61-1.05q-1.27-.6-2.27-1.53-.99-.92-1.59-2.26-.6-1.35-.6-3.25 0-1.77.7-3.36.7-1.6 2.05-2.79 1.36-1.19 3.39-1.9 2.03-.72 4.69-.72 2.97 0 5.41.98 2.43.98 4.06 2.58m27.74 4.4h4.71q2.13 0 3.71-.54 1.58-.53 2.6-1.47 1.02-.93 1.53-2.22.5-1.29.5-2.83 0-3.08-2.03-4.73t-6.2-1.65h-4.82zm13.95 6.27 10.13 14.95h-6.8q-1.93 0-2.8-1.51l-8.51-12.97q-.48-.72-1.05-1.03-.58-.31-1.7-.31h-3.22v15.82h-7.53v-40.49h12.35q4.12 0 7.07.86 2.95.85 4.84 2.39t2.79 3.68.9 4.72q0 2.04-.61 3.86-.6 1.82-1.73 3.31-1.14 1.48-2.8 2.6-1.67 1.12-3.8 1.77.73.42 1.35.99.61.57 1.12 1.36m18.9-2.72h13.05q0-1.34-.38-2.53t-1.14-2.09q-.75-.89-1.91-1.41-1.17-.52-2.71-.52-2.99 0-4.71 1.71-1.73 1.71-2.2 4.84m17.64 4.17h-17.78q.17 2.22.78 3.83.62 1.61 1.63 2.66 1 1.05 2.39 1.56 1.39.52 3.07.52t2.89-.39q1.22-.39 2.13-.87.91-.47 1.6-.87.68-.39 1.33-.39.87 0 1.29.65l1.98 2.52q-1.14 1.34-2.57 2.25t-2.98 1.46q-1.56.54-3.17.77-1.61.22-3.12.22-3 0-5.57-.99-2.58-1-4.48-2.94-1.91-1.95-3-4.82t-1.09-6.65q0-2.94.95-5.53t2.73-4.51 4.34-3.04 5.78-1.12q2.72 0 5.02.87 2.29.87 3.94 2.54 1.66 1.66 2.59 4.08.94 2.43.94 5.53 0 1.57-.33 2.12-.34.54-1.29.54m6.89-28.11h6.91v41.61h-6.91zm19.29 23.94h13.05q0-1.34-.38-2.53t-1.14-2.09q-.75-.89-1.91-1.41-1.17-.52-2.71-.52-2.99 0-4.71 1.71-1.73 1.71-2.2 4.84m17.64 4.17h-17.78q.17 2.22.78 3.83.62 1.61 1.63 2.66 1 1.05 2.39 1.56 1.39.52 3.07.52t2.89-.39q1.22-.39 2.13-.87.91-.47 1.6-.87.68-.39 1.33-.39.87 0 1.29.65l1.98 2.52q-1.14 1.34-2.57 2.25t-2.98 1.46q-1.56.54-3.17.77-1.61.22-3.12.22-3 0-5.57-.99-2.58-1-4.48-2.94-1.91-1.95-3-4.82t-1.09-6.65q0-2.94.95-5.53t2.73-4.51 4.34-3.04 5.78-1.12q2.72 0 5.02.87 2.29.87 3.94 2.54 1.66 1.66 2.59 4.08.94 2.43.94 5.53 0 1.57-.33 2.12-.34.54-1.29.54m21.98 6.08v-4.84q-3 .14-5.04.51-2.05.38-3.28.97t-1.76 1.37q-.53.79-.53 1.71 0 1.82 1.07 2.6 1.08.79 2.82.79 2.13 0 3.68-.77t3.04-2.34m-14.62-15.09-1.23-2.21q4.96-4.54 11.93-4.54 2.52 0 4.51.83 1.98.82 3.36 2.29 1.37 1.47 2.08 3.52.72 2.04.72 4.48v18.14h-3.14q-.98 0-1.51-.29-.53-.3-.84-1.19l-.62-2.08q-1.09.98-2.13 1.73-1.03.74-2.15 1.24-1.12.51-2.4.77-1.27.27-2.81.27-1.82 0-3.36-.49t-2.66-1.47-1.74-2.44q-.61-1.45-.61-3.39 0-1.09.36-2.17.37-1.07 1.19-2.05.83-.98 2.14-1.85 1.32-.87 3.24-1.51 1.92-.65 4.46-1.05 2.55-.41 5.83-.49v-1.68q0-2.89-1.23-4.27-1.24-1.39-3.56-1.39-1.68 0-2.79.39-1.1.39-1.94.88t-1.53.89q-.68.39-1.52.39-.73 0-1.24-.38-.5-.38-.81-.88m46.96-3.11-1.57 2.49q-.28.45-.59.63t-.78.18q-.51 0-1.08-.28t-1.33-.63-1.72-.63q-.97-.28-2.28-.28-2.05 0-3.21.87t-1.16 2.27q0 .92.6 1.55t1.6 1.11q.99.48 2.25.85 1.26.38 2.56.83t2.56 1.02q1.26.58 2.26 1.46.99.88 1.59 2.11.61 1.23.61 2.97 0 2.07-.75 3.82-.74 1.75-2.19 3.03-1.46 1.27-3.6 1.98-2.14.72-4.94.72-1.49 0-2.9-.27-1.42-.26-2.72-.74t-2.41-1.12q-1.1-.64-1.94-1.4l1.59-2.63q.31-.48.73-.73t1.07-.25q.64 0 1.21.36.58.37 1.33.79.76.42 1.78.78t2.59.36q1.23 0 2.12-.29.88-.29 1.45-.77.58-.48.84-1.11.27-.63.27-1.3 0-1.01-.6-1.65-.61-.64-1.6-1.12t-2.27-.85q-1.27-.38-2.6-.83t-2.61-1.05q-1.27-.6-2.26-1.53-1-.92-1.6-2.26-.6-1.35-.6-3.25 0-1.77.7-3.36.7-1.6 2.06-2.79 1.35-1.19 3.38-1.9 2.03-.72 4.69-.72 2.97 0 5.41.98 2.43.98 4.06 2.58m10.97 7.95h13.05q0-1.34-.38-2.53-.37-1.19-1.13-2.09-.76-.89-1.92-1.41t-2.7-.52q-3 0-4.72 1.71t-2.2 4.84m17.64 4.17h-17.78q.17 2.22.79 3.83.61 1.61 1.62 2.66t2.4 1.56q1.38.52 3.06.52t2.9-.39 2.13-.87q.91-.47 1.59-.87.69-.39 1.33-.39.87 0 1.29.65l1.99 2.52q-1.15 1.34-2.58 2.25-1.42.91-2.98 1.46-1.55.54-3.16.77-1.61.22-3.12.22-3 0-5.58-.99-2.57-1-4.48-2.94-1.9-1.95-2.99-4.82t-1.09-6.65q0-2.94.95-5.53t2.73-4.51 4.34-3.04 5.78-1.12q2.72 0 5.01.87 2.3.87 3.95 2.54 1.65 1.66 2.59 4.08.94 2.43.94 5.53 0 1.57-.34 2.12-.33.54-1.29.54m25.9-12.12-1.56 2.49q-.28.45-.59.63t-.79.18q-.5 0-1.07-.28-.58-.28-1.33-.63-.76-.35-1.73-.63-.96-.28-2.28-.28-2.04 0-3.2.87-1.17.87-1.17 2.27 0 .92.61 1.55.6.63 1.59 1.11 1 .48 2.26.85 1.26.38 2.56.83t2.56 1.02q1.26.58 2.25 1.46 1 .88 1.6 2.11t.6 2.97q0 2.07-.74 3.82t-2.2 3.03q-1.45 1.27-3.6 1.98-2.14.72-4.94.72-1.48 0-2.9-.27-1.41-.26-2.71-.74t-2.41-1.12-1.95-1.4l1.6-2.63q.31-.48.73-.73t1.06-.25q.65 0 1.22.36.57.37 1.33.79t1.78.78 2.59.36q1.23 0 2.11-.29t1.46-.77q.57-.48.84-1.11.26-.63.26-1.3 0-1.01-.6-1.65t-1.59-1.12q-1-.48-2.27-.85-1.28-.38-2.61-.83t-2.6-1.05-2.27-1.53q-.99-.92-1.59-2.26-.61-1.35-.61-3.25 0-1.77.7-3.36.7-1.6 2.06-2.79t3.39-1.9q2.03-.72 4.69-.72 2.97 0 5.4.98 2.44.98 4.06 2.58"/></svg>