<svg xmlns="http://www.w3.org/2000/svg" width="600" height="400" viewBox="0 0 600 400"><rect width="100%" height="100%" fill="#0000FF"/><path fill="#FFFFFF" d="M150.7 179.575h-19.58v13.06h16.53v6.56h-16.53v17.96h-8.23v-44.1h27.81zm5.61-7.74h7.54v45.32h-7.54zm37.46 14.03h6.04l-17.05 39.89q-.34.79-.87 1.21-.54.41-1.63.41h-5.62l5.86-12.57-12.66-28.94h6.62q.89 0 1.39.42.5.43.75.98l6.65 16.23q.33.82.56 1.64.23.83.44 1.68.28-.85.55-1.69.28-.84.61-1.66l6.28-16.2q.25-.61.81-1.01.57-.39 1.27-.39m10.03 0h7.57v31.29h-7.57zm8.6-9.12q0 .97-.39 1.83-.4.85-1.06 1.49-.65.64-1.54 1.02-.88.38-1.89.38-.97 0-1.84-.38t-1.51-1.02-1.02-1.49q-.38-.86-.38-1.83 0-1.01.38-1.89.38-.89 1.02-1.53t1.51-1.02 1.84-.38q1.01 0 1.89.38.89.38 1.54 1.02.66.64 1.06 1.53.39.88.39 1.89m13.18 10.49.52 2.47q.94-.95 2-1.75 1.05-.81 2.22-1.38 1.18-.56 2.52-.88t2.93-.32q2.56 0 4.54.87t3.31 2.44 2.01 3.75q.69 2.18.69 4.8v19.92h-7.53v-19.92q0-2.86-1.32-4.43-1.31-1.58-3.99-1.58-1.95 0-3.66.89-1.71.88-3.23 2.41v22.63h-7.54v-31.29h4.61q1.46 0 1.92 1.37m39.31 13.51q1.41 0 2.44-.38 1.04-.38 1.73-1.05.68-.67 1.03-1.62.35-.94.35-2.07 0-2.32-1.38-3.68-1.39-1.36-4.17-1.36-2.77 0-4.16 1.36t-1.39 3.68q0 1.1.35 2.04.35.95 1.04 1.63.69.69 1.74 1.07t2.42.38m8.51 17.81q0-.91-.55-1.49-.54-.58-1.49-.9t-2.21-.47q-1.27-.16-2.69-.23-1.41-.08-2.92-.14t-2.95-.24q-1.25.7-2.02 1.64-.78.95-.78 2.2 0 .82.41 1.54t1.31 1.23q.9.52 2.33.81 1.44.29 3.51.29 2.11 0 3.63-.32 1.53-.32 2.52-.88.99-.57 1.45-1.34.45-.78.45-1.7m-1.49-31.63h9v2.81q0 1.34-1.62 1.65l-2.81.52q.64 1.61.64 3.53 0 2.32-.93 4.2-.93 1.87-2.57 3.19-1.65 1.31-3.89 2.02-2.24.72-4.84.72-.91 0-1.77-.09-.85-.09-1.67-.25-1.47.89-1.47 1.99 0 .94.87 1.38.87.45 2.31.63 1.43.18 3.26.23 1.83.04 3.75.2 1.92.15 3.75.53t3.27 1.21q1.43.82 2.3 2.24t.87 3.64q0 2.08-1.02 4.03-1.03 1.95-2.96 3.48-1.94 1.52-4.76 2.45t-6.42.93q-3.54 0-6.16-.69-2.63-.68-4.36-1.83-1.74-1.14-2.6-2.63-.85-1.5-.85-3.11 0-2.2 1.33-3.68 1.32-1.48 3.64-2.36-1.25-.64-1.98-1.71t-.73-2.81q0-.7.26-1.45.26-.74.76-1.48.5-.73 1.26-1.38.77-.66 1.8-1.18-2.38-1.28-3.73-3.41-1.36-2.14-1.36-5.01 0-2.31.93-4.19t2.59-3.2q1.67-1.33 3.94-2.03t4.95-.7q2.02 0 3.79.41 1.76.41 3.23 1.2m55.3-9.72-2.05 3.87q-.36.64-.78.93-.41.29-1.02.29-.64 0-1.39-.47-.74-.48-1.78-1.06t-2.42-1.05q-1.39-.47-3.28-.47-1.71 0-2.99.41t-2.15 1.14q-.87.74-1.3 1.76t-.43 2.24q0 1.56.87 2.59.87 1.04 2.31 1.77 1.43.73 3.26 1.31t3.75 1.24q1.92.65 3.75 1.52t3.27 2.2q1.43 1.33 2.3 3.25t.87 4.66q0 2.99-1.02 5.6-1.03 2.61-2.99 4.54-1.97 1.94-4.81 3.05-2.83 1.12-6.49 1.12-2.11 0-4.15-.41-2.04-.42-3.92-1.18t-3.52-1.83q-1.65-1.07-2.93-2.38l2.41-3.93q.3-.43.79-.72t1.04-.29q.76 0 1.65.63.88.62 2.1 1.39 1.22.76 2.85 1.38 1.63.63 3.92.63 3.51 0 5.43-1.66 1.92-1.67 1.92-4.78 0-1.74-.87-2.83-.87-1.1-2.3-1.85t-3.26-1.27q-1.83-.51-3.72-1.12-1.9-.61-3.73-1.47-1.83-.85-3.26-2.22-1.43-1.38-2.3-3.44-.87-2.05-.87-5.07 0-2.41.96-4.7t2.79-4.06 4.51-2.83q2.69-1.07 6.17-1.07 3.9 0 7.19 1.22 3.3 1.22 5.62 3.42m23.27 31.87v-5.28q-3.27.15-5.49.57-2.23.41-3.57 1.05t-1.92 1.49q-.58.86-.58 1.86 0 1.98 1.17 2.84 1.18.85 3.07.85 2.31 0 4.01-.84 1.69-.83 3.31-2.54m-15.92-16.44-1.35-2.41q5.4-4.94 13-4.94 2.74 0 4.91.9 2.16.9 3.66 2.5 1.49 1.6 2.27 3.83.78 2.22.78 4.88v19.76h-3.42q-1.07 0-1.65-.32t-.91-1.3l-.67-2.25q-1.19 1.06-2.32 1.87t-2.35 1.36-2.61.84q-1.38.29-3.06.29-1.98 0-3.66-.54-1.68-.53-2.9-1.6-1.22-1.06-1.89-2.65t-.67-3.69q0-1.19.4-2.36.39-1.18 1.29-2.25.9-1.06 2.34-2.01 1.43-.94 3.52-1.65 2.09-.7 4.86-1.14 2.78-.44 6.35-.53v-1.83q0-3.15-1.35-4.66-1.34-1.51-3.87-1.51-1.83 0-3.03.43-1.21.43-2.12.96-.92.54-1.67.96-.74.43-1.66.43-.79 0-1.34-.41t-.88-.96m40.07 24.52h-7.53v-25.62l-2.72-.43q-.88-.18-1.41-.62-.54-.44-.54-1.27v-3.08h4.67v-2.32q0-2.68.81-4.82.81-2.13 2.32-3.62 1.51-1.5 3.67-2.29 2.17-.8 4.88-.8 2.17 0 4.03.58l-.16 3.79q-.03.42-.24.68t-.56.4-.81.18q-.46.05-.98.05-1.34 0-2.39.29t-1.79 1q-.73.72-1.11 1.89-.38 1.18-.38 2.92v2.07h8.14v5.37h-7.9zm28.67-8.08v-5.28q-3.26.15-5.49.57-2.22.41-3.57 1.05-1.34.64-1.92 1.49-.58.86-.58 1.86 0 1.98 1.18 2.84 1.17.85 3.06.85 2.32 0 4.01-.84 1.7-.83 3.31-2.54m-15.92-16.44-1.34-2.41q5.4-4.94 12.99-4.94 2.75 0 4.91.9 2.17.9 3.66 2.5 1.5 1.6 2.28 3.83.77 2.22.77 4.88v19.76h-3.41q-1.07 0-1.65-.32t-.91-1.3l-.68-2.25q-1.19 1.06-2.31 1.87-1.13.81-2.35 1.36t-2.61.84-3.07.29q-1.98 0-3.66-.54-1.67-.53-2.89-1.6-1.22-1.06-1.89-2.65t-.67-3.69q0-1.19.39-2.36.4-1.18 1.3-2.25.9-1.06 2.33-2.01 1.43-.94 3.52-1.65 2.09-.7 4.87-1.14 2.77-.44 6.34-.53v-1.83q0-3.15-1.34-4.66t-3.87-1.51q-1.83 0-3.04.43-1.2.43-2.12.96-.91.54-1.66.96-.75.43-1.66.43-.79 0-1.34-.41t-.89-.96m37-4.88.46 3.54q1.46-2.81 3.47-4.41 2.02-1.6 4.76-1.6 2.17 0 3.48.94l-.49 5.65q-.15.54-.44.77t-.78.23q-.46 0-1.36-.15t-1.75-.15q-1.25 0-2.23.36-.97.37-1.75 1.06-.78.68-1.37 1.66-.6.97-1.12 2.22v19.28h-7.53v-31.29h4.42q1.16 0 1.62.41t.61 1.48m16.35-1.89h7.56v31.29h-7.56zm8.6-9.12q0 .97-.4 1.83-.4.85-1.05 1.49-.66.64-1.54 1.02-.89.38-1.89.38-.98 0-1.85-.38t-1.51-1.02-1.02-1.49q-.38-.86-.38-1.83 0-1.01.38-1.89.38-.89 1.02-1.53t1.51-1.02 1.85-.38q1 0 1.89.38.88.38 1.54 1.02.65.64 1.05 1.53.4.88.4 1.89m27.45 12.5-1.71 2.72q-.31.49-.64.68-.34.2-.86.2-.54 0-1.17-.3-.62-.31-1.45-.69-.82-.38-1.87-.69-1.06-.3-2.49-.3-2.23 0-3.49.94-1.27.95-1.27 2.47 0 1.01.66 1.7.65.68 1.74 1.2 1.08.52 2.45.93t2.79.9 2.79 1.12q1.38.62 2.46 1.58t1.74 2.3q.65 1.35.65 3.24 0 2.25-.81 4.16-.8 1.91-2.39 3.29-1.59 1.39-3.92 2.17t-5.38.78q-1.62 0-3.16-.29t-2.96-.81-2.62-1.22q-1.21-.7-2.12-1.52l1.74-2.87q.33-.52.79-.79.46-.28 1.16-.28t1.33.4q.62.39 1.45.85.82.46 1.93.86 1.12.39 2.82.39 1.35 0 2.31-.32t1.58-.84q.63-.52.92-1.2.29-.69.29-1.42 0-1.1-.66-1.8-.65-.7-1.74-1.22-1.08-.52-2.47-.93t-2.83-.9q-1.45-.49-2.84-1.14-1.39-.66-2.47-1.67-1.08-1-1.74-2.47-.66-1.46-.66-3.53 0-1.93.77-3.66.76-1.74 2.24-3.04t3.69-2.07q2.21-.78 5.11-.78 3.23 0 5.88 1.07 2.66 1.06 4.43 2.8"/></svg>