<svg xmlns="http://www.w3.org/2000/svg" width="1920" height="1080" viewBox="0 0 1920 1080"><rect width="100%" height="100%" fill="#005ea2"/><path fill="#FFFFFF" d="M408.655 541h12.56q4.63 0 8.07-1.15 3.43-1.16 5.72-3.32 2.28-2.15 3.4-5.25 1.13-3.09 1.13-6.9 0-3.63-1.13-6.57-1.12-2.93-3.37-5-2.25-2.06-5.69-3.15-3.44-1.1-8.13-1.1h-12.56zm-16.81-45.44h29.37q9.07 0 15.69 2.13 6.63 2.12 10.94 5.94 4.31 3.81 6.41 9.12 2.09 5.31 2.09 11.63 0 6.56-2.19 12.03t-6.56 9.4q-4.38 3.94-10.97 6.13t-15.41 2.19h-12.56v31.81h-16.81zm88.56 30.13.94 7.25q3-5.75 7.12-9.03 4.13-3.28 9.75-3.28 4.44 0 7.13 1.93l-1 11.57q-.31 1.12-.91 1.59-.59.47-1.59.47-.94 0-2.78-.31-1.85-.32-3.6-.32-2.56 0-4.56.75t-3.59 2.16q-1.6 1.41-2.81 3.41-1.22 2-2.29 4.56v39.5h-15.43v-64.13h9.06q2.37 0 3.31.85.94.84 1.25 3.03m33.5-3.88h15.5v64.13h-15.5zm17.63-18.68q0 2-.82 3.75-.81 1.75-2.15 3.06-1.35 1.31-3.16 2.09t-3.87.78q-2 0-3.78-.78-1.79-.78-3.1-2.09t-2.09-3.06-.78-3.75q0-2.07.78-3.88t2.09-3.12q1.31-1.32 3.1-2.1 1.78-.78 3.78-.78 2.06 0 3.87.78t3.16 2.1q1.34 1.31 2.15 3.12.82 1.81.82 3.88m59.25 18.68h12.18l-25.43 64.13h-14l-25.44-64.13h12.75q1.75 0 2.91.82 1.15.81 1.53 2.06l12.37 34.25q1 3 1.75 5.87.75 2.88 1.31 5.75.63-2.87 1.38-5.75.75-2.87 1.81-5.87l12.63-34.25q.43-1.25 1.56-2.06 1.12-.82 2.69-.82m54.25 47.57v-10.82q-6.69.32-11.25 1.16-4.57.84-7.32 2.16-2.75 1.31-3.93 3.06-1.19 1.75-1.19 3.81 0 4.06 2.41 5.81 2.4 1.75 6.28 1.75 4.75 0 8.22-1.71 3.46-1.72 6.78-5.22m-32.63-33.69-2.75-4.94q11.06-10.12 26.63-10.12 5.62 0 10.06 1.84t7.5 5.13q3.06 3.28 4.66 7.84 1.59 4.56 1.59 10v40.5h-7q-2.19 0-3.38-.66-1.18-.65-1.87-2.65l-1.38-4.63q-2.43 2.19-4.75 3.85-2.31 1.65-4.81 2.78-2.5 1.12-5.34 1.72-2.85.59-6.28.59-4.07 0-7.5-1.09-3.44-1.1-5.94-3.29-2.5-2.18-3.88-5.43-1.37-3.25-1.37-7.57 0-2.43.81-4.84t2.66-4.59q1.84-2.19 4.78-4.13t7.22-3.37q4.28-1.44 9.97-2.35 5.68-.9 13-1.09v-3.75q0-6.44-2.75-9.53-2.75-3.1-7.94-3.1-3.75 0-6.22.88-2.47.87-4.34 1.97-1.88 1.09-3.41 1.97-1.53.87-3.41.87-1.62 0-2.75-.84-1.12-.85-1.81-1.97m83.56 51.25q-8.37 0-12.84-4.72t-4.47-13.03v-35.81h-6.56q-1.25 0-2.13-.82-.87-.81-.87-2.43V524l10.31-1.69 3.25-17.5q.31-1.25 1.19-1.93.87-.69 2.25-.69h8v20.19h17.12v11h-17.12v34.75q0 3 1.47 4.68 1.47 1.69 4.03 1.69 1.44 0 2.41-.34.96-.35 1.68-.72.72-.38 1.28-.72.57-.34 1.13-.34.69 0 1.12.34.44.34.94 1.03l4.63 7.5q-3.38 2.81-7.75 4.25-4.38 1.44-9.07 1.44m37.32-40.44h29.12q0-3-.84-5.65-.85-2.66-2.53-4.66-1.69-2-4.28-3.16-2.6-1.15-6.04-1.15-6.68 0-10.53 3.81-3.84 3.81-4.9 10.81m39.37 9.31h-39.69q.38 4.94 1.75 8.54 1.38 3.59 3.63 5.93 2.25 2.35 5.34 3.5 3.1 1.16 6.85 1.16t6.47-.88q2.71-.87 4.75-1.93 2.03-1.07 3.56-1.94 1.53-.88 2.97-.88 1.93 0 2.87 1.44l4.44 5.63q-2.56 3-5.75 5.03t-6.66 3.25-7.06 1.72-6.97.5q-6.69 0-12.44-2.22t-10-6.56q-4.25-4.35-6.68-10.75-2.44-6.41-2.44-14.85 0-6.56 2.12-12.34 2.13-5.78 6.1-10.06 3.97-4.29 9.69-6.79 5.71-2.5 12.9-2.5 6.06 0 11.19 1.94 5.12 1.94 8.81 5.66t5.78 9.12q2.1 5.41 2.1 12.35 0 3.5-.75 4.72-.75 1.21-2.88 1.21m110.06 8.82q1.38 0 2.44 1.06l6.63 7.19q-5.5 6.81-13.53 10.43-8.04 3.63-19.29 3.63-10.06 0-18.09-3.44t-13.72-9.56q-5.69-6.13-8.72-14.63t-3.03-18.56q0-10.19 3.25-18.65 3.25-8.47 9.16-14.6 5.9-6.12 14.09-9.53t18.13-3.41q9.87 0 17.53 3.25 7.65 3.25 13.03 8.5l-5.63 7.82q-.5.75-1.28 1.31t-2.15.56q-.94 0-1.94-.53t-2.19-1.31-2.75-1.72-3.62-1.72q-2.07-.78-4.78-1.31-2.72-.53-6.29-.53-6.06 0-11.09 2.15-5.03 2.16-8.66 6.25-3.62 4.1-5.62 10-2 5.91-2 13.47 0 7.63 2.16 13.56 2.15 5.94 5.84 10 3.69 4.07 8.69 6.22 5 2.16 10.75 2.16 3.43 0 6.22-.38 2.78-.37 5.12-1.18 2.34-.82 4.44-2.1 2.09-1.28 4.15-3.15.63-.57 1.32-.91.68-.34 1.43-.34m33.63-71.57v35.63q3.75-3.5 8.25-5.69t10.56-2.19q5.25 0 9.31 1.79 4.07 1.78 6.79 5 2.71 3.21 4.12 7.68t1.41 9.85v40.81h-15.44v-40.81q0-5.88-2.69-9.1t-8.19-3.22q-4 0-7.5 1.82-3.5 1.81-6.62 4.93v46.38h-15.44v-92.88zm88.94 76.32v-10.82q-6.69.32-11.25 1.16t-7.31 2.16q-2.75 1.31-3.94 3.06t-1.19 3.81q0 4.06 2.41 5.81 2.4 1.75 6.28 1.75 4.75 0 8.22-1.71 3.47-1.72 6.78-5.22m-32.63-33.69-2.75-4.94q11.07-10.12 26.63-10.12 5.62 0 10.06 1.84t7.5 5.13q3.06 3.28 4.66 7.84 1.59 4.56 1.59 10v40.5h-7q-2.19 0-3.37-.66-1.19-.65-1.88-2.65l-1.37-4.63q-2.44 2.19-4.75 3.85-2.32 1.65-4.82 2.78-2.5 1.12-5.34 1.72-2.84.59-6.28.59-4.06 0-7.5-1.09-3.44-1.1-5.94-3.29-2.5-2.18-3.87-5.43-1.38-3.25-1.38-7.57 0-2.43.81-4.84.82-2.41 2.66-4.59 1.84-2.19 4.78-4.13t7.22-3.37q4.28-1.44 9.97-2.35 5.69-.9 13-1.09v-3.75q0-6.44-2.75-9.53-2.75-3.1-7.94-3.1-3.75 0-6.22.88-2.47.87-4.34 1.97-1.88 1.09-3.41 1.97-1.53.87-3.4.87-1.63 0-2.75-.84-1.13-.85-1.82-1.97m75.82-10 .93 7.25q3-5.75 7.13-9.03 4.12-3.28 9.75-3.28 4.44 0 7.12 1.93l-1 11.57q-.31 1.12-.9 1.59-.6.47-1.6.47-.93 0-2.78-.31-1.84-.32-3.59-.32-2.56 0-4.56.75t-3.6 2.16q-1.59 1.41-2.81 3.41t-2.28 4.56v39.5h-15.44v-64.13h9.06q2.38 0 3.32.85.93.84 1.25 3.03m54.37 61.25q-8.37 0-12.84-4.72t-4.47-13.03v-35.81h-6.56q-1.25 0-2.13-.82-.87-.81-.87-2.43V524l10.31-1.69 3.25-17.5q.31-1.25 1.19-1.93.87-.69 2.25-.69h8v20.19h17.12v11h-17.12v34.75q0 3 1.46 4.68 1.47 1.69 4.04 1.69 1.43 0 2.4-.34.97-.35 1.69-.72.72-.38 1.28-.72t1.13-.34q.68 0 1.12.34t.94 1.03l4.62 7.5q-3.37 2.81-7.75 4.25-4.37 1.44-9.06 1.44m37.31-40.44h29.13q0-3-.85-5.65-.84-2.66-2.53-4.66-1.68-2-4.28-3.16-2.59-1.15-6.03-1.15-6.69 0-10.53 3.81t-4.91 10.81m39.38 9.31h-39.69q.38 4.94 1.75 8.54 1.38 3.59 3.63 5.93 2.25 2.35 5.34 3.5 3.09 1.16 6.84 1.16t6.47-.88q2.72-.87 4.75-1.93 2.03-1.07 3.56-1.94 1.54-.88 2.97-.88 1.94 0 2.88 1.44l4.44 5.63q-2.57 3-5.75 5.03-3.19 2.03-6.66 3.25t-7.06 1.72q-3.6.5-6.97.5-6.69 0-12.44-2.22t-10-6.56q-4.25-4.35-6.69-10.75-2.43-6.41-2.43-14.85 0-6.56 2.12-12.34 2.13-5.78 6.09-10.06 3.97-4.29 9.69-6.79t12.91-2.5q6.06 0 11.19 1.94 5.12 1.94 8.81 5.66t5.78 9.12q2.09 5.41 2.09 12.35 0 3.5-.75 4.72-.75 1.21-2.87 1.21m28.81-30.12.94 7.25q3-5.75 7.12-9.03 4.13-3.28 9.75-3.28 4.44 0 7.13 1.93l-1 11.57q-.31 1.12-.91 1.59-.59.47-1.59.47-.94 0-2.78-.31-1.85-.32-3.6-.32-2.56 0-4.56.75t-3.59 2.16q-1.6 1.41-2.82 3.41-1.21 2-2.28 4.56v39.5h-15.43v-64.13h9.06q2.37 0 3.31.85.94.84 1.25 3.03m100.25-30.13v58.25q0 7.63-1.87 13.75-1.88 6.13-5.6 10.44t-9.28 6.63q-5.56 2.31-12.94 2.31-3.37 0-6.62-.41-3.25-.4-6.81-1.28.18-2.5.43-5t.44-5q.19-1.37 1.09-2.22.91-.84 2.6-.84 1.06 0 2.78.44 1.72.43 4.34.43 3.57 0 6.32-1.03t4.59-3.28 2.78-5.84q.94-3.6.94-8.72v-58.63zm29 50.94h29.13q0-3-.85-5.65-.84-2.66-2.53-4.66t-4.28-3.16q-2.59-1.15-6.03-1.15-6.69 0-10.53 3.81-3.85 3.81-4.91 10.81m39.38 9.31h-39.69q.37 4.94 1.75 8.54 1.37 3.59 3.62 5.93 2.25 2.35 5.35 3.5 3.09 1.16 6.84 1.16t6.47-.88q2.72-.87 4.75-1.93 2.03-1.07 3.56-1.94 1.53-.88 2.97-.88 1.94 0 2.88 1.44l4.43 5.63q-2.56 3-5.75 5.03-3.18 2.03-6.65 3.25t-7.07 1.72q-3.59.5-6.96.5-6.69 0-12.44-2.22t-10-6.56q-4.25-4.35-6.69-10.75-2.44-6.41-2.44-14.85 0-6.56 2.13-12.34 2.12-5.78 6.09-10.06 3.97-4.29 9.69-6.79t12.91-2.5q6.06 0 11.18 1.94 5.13 1.94 8.82 5.66 3.68 3.72 5.78 9.12 2.09 5.41 2.09 12.35 0 3.5-.75 4.72-.75 1.21-2.87 1.21m36.56 31.13q-8.38 0-12.85-4.72-4.46-4.72-4.46-13.03v-35.81h-6.57q-1.25 0-2.12-.82-.88-.81-.88-2.43V524l10.32-1.69 3.25-17.5q.31-1.25 1.18-1.93.88-.69 2.25-.69h8v20.19h17.13v11h-17.13v34.75q0 3 1.47 4.68 1.47 1.69 4.03 1.69 1.44 0 2.41-.34.97-.35 1.69-.72.72-.38 1.28-.72t1.12-.34q.69 0 1.13.34t.94 1.03l4.62 7.5q-3.37 2.81-7.75 4.25-4.37 1.44-9.06 1.44m86-15.38h23.19q2.5 0 3.96 1.41 1.47 1.41 1.47 3.72v9.25h-62v-5.13q0-1.56.66-3.28t2.09-3.09l27.44-27.5q3.44-3.5 6.16-6.69t4.53-6.31q1.81-3.13 2.78-6.34.97-3.22.97-6.79 0-3.25-.94-5.71-.94-2.47-2.66-4.16-1.71-1.69-4.12-2.53-2.41-.85-5.41-.85-2.75 0-5.09.79-2.34.78-4.16 2.18-1.81 1.41-3.06 3.28-1.25 1.88-1.87 4.13-1.07 2.87-2.75 3.81-1.69.94-4.88.44l-8.12-1.44q.93-6.5 3.62-11.4 2.69-4.91 6.72-8.19t9.25-4.94 11.22-1.66q6.25 0 11.44 1.85 5.18 1.84 8.87 5.22 3.69 3.37 5.75 8.12t2.06 10.56q0 5-1.47 9.25-1.46 4.25-3.93 8.13-2.47 3.87-5.78 7.5-3.32 3.62-6.94 7.37l-20.38 20.82q2.94-.88 5.85-1.35 2.9-.47 5.53-.47"/></svg>